<svg xmlns="http://www.w3.org/2000/svg" xmlns:xlink="http://www.w3.org/1999/xlink" width="1800" zoomAndPan="magnify" viewBox="0 0 1350 449.999984" height="600" preserveAspectRatio="xMidYMid meet" version="1.0"><defs><g/></defs><rect x="-135" width="1620" fill="#ffffff" y="-44.999998" height="539.99998" fill-opacity="1"/><rect x="-135" width="1620" fill="#ffffff" y="-44.999998" height="539.99998" fill-opacity="1"/><g fill="#242424" fill-opacity="1"><g transform="translate(819.322233, 279.767945)"><g><path d="M 9.734375 -2.640625 L 9.734375 -127.609375 C 9.734375 -129.367188 10.617188 -130.25 12.390625 -130.25 L 44.671875 -130.25 C 46.429688 -130.25 47.3125 -129.367188 47.3125 -127.609375 L 47.3125 -11 C 47.3125 -9.226562 48.191406 -8.34375 49.953125 -8.34375 L 53.015625 -8.34375 C 54.773438 -8.34375 55.65625 -9.226562 55.65625 -11 L 55.65625 -26.578125 C 55.65625 -28.335938 56.539062 -29.21875 58.3125 -29.21875 L 61.5 -29.21875 C 63.269531 -29.21875 64.15625 -30.097656 64.15625 -31.859375 L 64.15625 -34.921875 C 64.15625 -36.691406 65.035156 -37.578125 66.796875 -37.578125 L 90.59375 -37.578125 C 92.351562 -37.578125 93.234375 -36.691406 93.234375 -34.921875 L 93.234375 -11 C 93.234375 -9.226562 92.351562 -8.34375 90.59375 -8.34375 L 87.53125 -8.34375 C 85.769531 -8.34375 84.890625 -7.460938 84.890625 -5.703125 L 84.890625 -2.640625 C 84.890625 -0.878906 84.003906 0 82.234375 0 L 12.390625 0 C 10.617188 0 9.734375 -0.878906 9.734375 -2.640625 Z M 9.734375 -2.640625 "/></g></g></g><g fill="#242424" fill-opacity="1"><g transform="translate(916.734335, 279.767945)"><g><path d="M 26.4375 -2.640625 L 26.4375 -5.703125 C 26.4375 -7.460938 25.554688 -8.34375 23.796875 -8.34375 L 20.734375 -8.34375 C 18.972656 -8.34375 18.09375 -9.226562 18.09375 -11 L 18.09375 -14.0625 C 18.09375 -15.820312 17.210938 -16.703125 15.453125 -16.703125 L 12.390625 -16.703125 C 10.617188 -16.703125 9.734375 -17.582031 9.734375 -19.34375 L 9.734375 -78.0625 C 9.734375 -79.820312 10.617188 -80.703125 12.390625 -80.703125 L 15.453125 -80.703125 C 17.210938 -80.703125 18.09375 -81.585938 18.09375 -83.359375 L 18.09375 -86.421875 C 18.09375 -88.179688 18.972656 -89.0625 20.734375 -89.0625 L 23.796875 -89.0625 C 25.554688 -89.0625 26.4375 -89.941406 26.4375 -91.703125 L 26.4375 -94.765625 C 26.4375 -96.523438 27.316406 -97.40625 29.078125 -97.40625 L 82.234375 -97.40625 C 84.003906 -97.40625 84.890625 -96.523438 84.890625 -94.765625 L 84.890625 -91.703125 C 84.890625 -89.941406 85.769531 -89.0625 87.53125 -89.0625 L 90.59375 -89.0625 C 92.351562 -89.0625 93.234375 -88.179688 93.234375 -86.421875 L 93.234375 -83.359375 C 93.234375 -81.585938 94.113281 -80.703125 95.875 -80.703125 L 98.9375 -80.703125 C 100.695312 -80.703125 101.578125 -79.820312 101.578125 -78.0625 L 101.578125 -19.34375 C 101.578125 -17.582031 100.695312 -16.703125 98.9375 -16.703125 L 95.875 -16.703125 C 94.113281 -16.703125 93.234375 -15.820312 93.234375 -14.0625 L 93.234375 -11 C 93.234375 -9.226562 92.351562 -8.34375 90.59375 -8.34375 L 87.53125 -8.34375 C 85.769531 -8.34375 84.890625 -7.460938 84.890625 -5.703125 L 84.890625 -2.640625 C 84.890625 -0.878906 84.003906 0 82.234375 0 L 29.078125 0 C 27.316406 0 26.4375 -0.878906 26.4375 -2.640625 Z M 58.3125 -16.703125 L 61.375 -16.703125 C 63.132812 -16.703125 64.015625 -17.582031 64.015625 -19.34375 L 64.015625 -86.421875 C 64.015625 -88.179688 63.132812 -89.0625 61.375 -89.0625 L 58.3125 -89.0625 C 56.539062 -89.0625 55.65625 -88.179688 55.65625 -86.421875 L 55.65625 -83.359375 C 55.65625 -81.585938 54.773438 -80.703125 53.015625 -80.703125 L 49.953125 -80.703125 C 48.191406 -80.703125 47.3125 -79.820312 47.3125 -78.0625 L 47.3125 -11 C 47.3125 -9.226562 48.191406 -8.34375 49.953125 -8.34375 L 53.015625 -8.34375 C 54.773438 -8.34375 55.65625 -9.226562 55.65625 -11 L 55.65625 -14.0625 C 55.65625 -15.820312 56.539062 -16.703125 58.3125 -16.703125 Z M 58.3125 -16.703125 "/></g></g></g><g fill="#242424" fill-opacity="1"><g transform="translate(1028.062451, 279.767945)"><g><path d="M 26.4375 -2.640625 L 26.4375 -5.703125 C 26.4375 -7.460938 25.554688 -8.34375 23.796875 -8.34375 L 20.734375 -8.34375 C 18.972656 -8.34375 18.09375 -9.226562 18.09375 -11 L 18.09375 -14.0625 C 18.09375 -15.820312 17.210938 -16.703125 15.453125 -16.703125 L 12.390625 -16.703125 C 10.617188 -16.703125 9.734375 -17.582031 9.734375 -19.34375 L 9.734375 -78.0625 C 9.734375 -79.820312 10.617188 -80.703125 12.390625 -80.703125 L 15.453125 -80.703125 C 17.210938 -80.703125 18.09375 -81.585938 18.09375 -83.359375 L 18.09375 -86.421875 C 18.09375 -88.179688 18.972656 -89.0625 20.734375 -89.0625 L 23.796875 -89.0625 C 25.554688 -89.0625 26.4375 -89.941406 26.4375 -91.703125 L 26.4375 -94.765625 C 26.4375 -96.523438 27.316406 -97.40625 29.078125 -97.40625 L 82.234375 -97.40625 C 84.003906 -97.40625 84.890625 -96.523438 84.890625 -94.765625 L 84.890625 -91.703125 C 84.890625 -89.941406 85.769531 -89.0625 87.53125 -89.0625 L 90.59375 -89.0625 C 92.351562 -89.0625 93.234375 -88.179688 93.234375 -86.421875 L 93.234375 -83.359375 C 93.234375 -81.585938 94.113281 -80.703125 95.875 -80.703125 L 98.9375 -80.703125 C 100.695312 -80.703125 101.578125 -79.820312 101.578125 -78.0625 L 101.578125 -19.34375 C 101.578125 -17.582031 100.695312 -16.703125 98.9375 -16.703125 L 95.875 -16.703125 C 94.113281 -16.703125 93.234375 -15.820312 93.234375 -14.0625 L 93.234375 -11 C 93.234375 -9.226562 92.351562 -8.34375 90.59375 -8.34375 L 87.53125 -8.34375 C 85.769531 -8.34375 84.890625 -7.460938 84.890625 -5.703125 L 84.890625 -2.640625 C 84.890625 -0.878906 84.003906 0 82.234375 0 L 29.078125 0 C 27.316406 0 26.4375 -0.878906 26.4375 -2.640625 Z M 58.3125 -16.703125 L 61.375 -16.703125 C 63.132812 -16.703125 64.015625 -17.582031 64.015625 -19.34375 L 64.015625 -86.421875 C 64.015625 -88.179688 63.132812 -89.0625 61.375 -89.0625 L 58.3125 -89.0625 C 56.539062 -89.0625 55.65625 -88.179688 55.65625 -86.421875 L 55.65625 -83.359375 C 55.65625 -81.585938 54.773438 -80.703125 53.015625 -80.703125 L 49.953125 -80.703125 C 48.191406 -80.703125 47.3125 -79.820312 47.3125 -78.0625 L 47.3125 -11 C 47.3125 -9.226562 48.191406 -8.34375 49.953125 -8.34375 L 53.015625 -8.34375 C 54.773438 -8.34375 55.65625 -9.226562 55.65625 -11 L 55.65625 -14.0625 C 55.65625 -15.820312 56.539062 -16.703125 58.3125 -16.703125 Z M 58.3125 -16.703125 "/></g></g></g><g fill="#242424" fill-opacity="1"><g transform="translate(1139.390567, 279.767945)"><g><path d="M 9.734375 -2.640625 L 9.734375 -94.765625 C 9.734375 -96.523438 10.617188 -97.40625 12.390625 -97.40625 L 32.140625 -97.40625 C 33.910156 -97.40625 34.796875 -96.523438 34.796875 -94.765625 L 34.796875 -83.359375 C 34.796875 -81.585938 35.675781 -80.703125 37.4375 -80.703125 L 40.5 -80.703125 C 42.257812 -80.703125 43.140625 -81.585938 43.140625 -83.359375 L 43.140625 -86.421875 C 43.140625 -88.179688 44.019531 -89.0625 45.78125 -89.0625 L 48.84375 -89.0625 C 50.601562 -89.0625 51.484375 -89.941406 51.484375 -91.703125 L 51.484375 -94.765625 C 51.484375 -96.523438 52.363281 -97.40625 54.125 -97.40625 L 90.59375 -97.40625 C 92.351562 -97.40625 93.234375 -96.523438 93.234375 -94.765625 L 93.234375 -91.703125 C 93.234375 -89.941406 94.113281 -89.0625 95.875 -89.0625 L 103.109375 -89.0625 C 104.878906 -89.0625 105.765625 -89.941406 105.765625 -91.703125 L 105.765625 -94.765625 C 105.765625 -96.523438 106.644531 -97.40625 108.40625 -97.40625 L 144.859375 -97.40625 C 146.617188 -97.40625 147.5 -96.523438 147.5 -94.765625 L 147.5 -91.703125 C 147.5 -89.941406 148.382812 -89.0625 150.15625 -89.0625 L 153.21875 -89.0625 C 154.976562 -89.0625 155.859375 -88.179688 155.859375 -86.421875 L 155.859375 -2.640625 C 155.859375 -0.878906 154.976562 0 153.21875 0 L 120.921875 0 C 119.160156 0 118.28125 -0.878906 118.28125 -2.640625 L 118.28125 -86.421875 C 118.28125 -88.179688 117.398438 -89.0625 115.640625 -89.0625 L 112.578125 -89.0625 C 110.816406 -89.0625 109.9375 -88.179688 109.9375 -86.421875 L 109.9375 -83.359375 C 109.9375 -81.585938 109.054688 -80.703125 107.296875 -80.703125 L 104.234375 -80.703125 C 102.460938 -80.703125 101.578125 -79.820312 101.578125 -78.0625 L 101.578125 -2.640625 C 101.578125 -0.878906 100.695312 0 98.9375 0 L 66.65625 0 C 64.894531 0 64.015625 -0.878906 64.015625 -2.640625 L 64.015625 -86.421875 C 64.015625 -88.179688 63.132812 -89.0625 61.375 -89.0625 L 58.3125 -89.0625 C 56.539062 -89.0625 55.65625 -88.179688 55.65625 -86.421875 L 55.65625 -83.359375 C 55.65625 -81.585938 54.773438 -80.703125 53.015625 -80.703125 L 49.953125 -80.703125 C 48.191406 -80.703125 47.3125 -79.820312 47.3125 -78.0625 L 47.3125 -2.640625 C 47.3125 -0.878906 46.429688 0 44.671875 0 L 12.390625 0 C 10.617188 0 9.734375 -0.878906 9.734375 -2.640625 Z M 9.734375 -2.640625 "/></g></g></g><path stroke-linecap="butt" transform="matrix(2.029581, 0, 0, 2.029581, 45.000021, 116.286466)" fill="none" stroke-linejoin="miter" d="M 4.798164 77.6959 L 4.798164 16.212679 C 4.798164 15.344658 5.233137 14.909685 6.101158 14.909685 L 40.469787 14.909685 C 41.339733 14.909685 41.774706 15.344658 41.774706 16.212679 L 41.774706 17.717762 C 41.774706 18.587708 42.203905 19.022681 43.060378 19.022681 L 44.565461 19.022681 C 45.435406 19.022681 45.870379 19.455729 45.870379 20.325675 L 45.870379 21.830758 C 45.870379 22.698779 46.303427 23.133752 47.173373 23.133752 L 48.678456 23.133752 C 49.546477 23.133752 49.98145 23.56295 49.98145 24.421348 L 49.98145 69.489155 C 49.98145 70.345628 49.546477 70.774827 48.678456 70.774827 L 47.173373 70.774827 C 46.303427 70.774827 45.870379 71.2098 45.870379 72.079746 L 45.870379 73.584829 C 45.870379 74.45285 45.435406 74.887823 44.565461 74.887823 L 43.060378 74.887823 C 42.203905 74.887823 41.774706 75.322796 41.774706 76.190817 L 41.774706 77.6959 C 41.774706 78.565845 41.339733 79.000818 40.469787 79.000818 L 6.101158 79.000818 C 5.233137 79.000818 4.798164 78.565845 4.798164 77.6959 Z M 23.286435 20.325675 L 23.286435 73.584829 C 23.286435 74.45285 23.715634 74.887823 24.572107 74.887823 L 26.094512 74.887823 C 26.952909 74.887823 27.382108 74.45285 27.382108 73.584829 L 27.382108 72.079746 C 27.382108 71.2098 27.815156 70.774827 28.685102 70.774827 L 30.190185 70.774827 C 31.058206 70.774827 31.493179 70.345628 31.493179 69.489155 L 31.493179 24.421348 C 31.493179 23.56295 31.058206 23.133752 30.190185 23.133752 L 28.685102 23.133752 C 27.815156 23.133752 27.382108 22.698779 27.382108 21.830758 L 27.382108 20.325675 C 27.382108 19.455729 26.952909 19.022681 26.094512 19.022681 L 24.572107 19.022681 C 23.715634 19.022681 23.286435 19.455729 23.286435 20.325675 Z M 83.593689 57.152093 L 77.994857 57.152093 C 77.124911 57.152093 76.689938 57.587066 76.689938 58.455087 L 76.689938 73.584829 C 76.689938 74.45285 77.124911 74.887823 77.994857 74.887823 L 79.498015 74.887823 C 80.356413 74.887823 80.785612 74.45285 80.785612 73.584829 L 80.785612 72.079746 C 80.785612 71.2098 81.220585 70.774827 82.088606 70.774827 L 83.593689 70.774827 C 84.463635 70.774827 84.898607 70.345628 84.898607 69.489155 L 84.898607 58.455087 C 84.898607 57.587066 84.463635 57.152093 83.593689 57.152093 Z M 62.314663 77.6959 L 62.314663 76.190817 C 62.314663 75.322796 61.87969 74.887823 61.009744 74.887823 L 59.506586 74.887823 C 58.63664 74.887823 58.201667 74.45285 58.201667 73.584829 L 58.201667 58.455087 C 58.201667 57.587066 58.63664 57.152093 59.506586 57.152093 L 61.009744 57.152093 C 61.87969 57.152093 62.314663 56.722894 62.314663 55.864497 L 62.314663 54.344016 C 62.314663 53.485618 62.743862 53.05642 63.600335 53.05642 L 79.498015 53.05642 C 80.356413 53.05642 80.785612 52.621447 80.785612 51.751501 L 80.785612 50.248343 C 80.785612 49.378397 81.220585 48.943424 82.088606 48.943424 L 85.649224 48.943424 C 86.51917 48.943424 86.954143 48.510376 86.954143 47.64043 L 86.954143 36.473561 C 86.954143 35.615163 86.51917 35.185964 85.649224 35.185964 L 82.088606 35.185964 C 81.220585 35.185964 80.785612 35.615163 80.785612 36.473561 L 80.785612 42.089715 C 80.785612 42.95966 80.356413 43.394633 79.498015 43.394633 L 77.994857 43.394633 C 77.124911 43.394633 76.689938 43.829606 76.689938 44.697627 L 76.689938 48.258246 C 76.689938 49.128191 76.254965 49.563164 75.386944 49.563164 L 61.562121 49.563164 C 60.692176 49.563164 60.257203 49.128191 60.257203 48.258246 L 60.257203 36.473561 C 60.257203 35.615163 60.692176 35.185964 61.562121 35.185964 L 64.085349 35.185964 C 64.955294 35.185964 65.390267 34.750991 65.390267 33.88297 L 65.390267 32.377887 C 65.390267 31.509866 65.82524 31.074893 66.693261 31.074893 L 97.986286 31.074893 C 98.844684 31.074893 99.273883 31.509866 99.273883 32.377887 L 99.273883 33.88297 C 99.273883 34.750991 99.708856 35.185964 100.576877 35.185964 L 102.08196 35.185964 C 102.951906 35.185964 103.386878 35.615163 103.386878 36.473561 L 103.386878 77.6959 C 103.386878 78.565845 102.951906 79.000818 102.08196 79.000818 L 90.314597 79.000818 C 89.444651 79.000818 89.009678 78.565845 89.009678 77.6959 L 89.009678 76.190817 C 89.009678 75.322796 88.574705 74.887823 87.706684 74.887823 L 86.201601 74.887823 C 85.331656 74.887823 84.898607 75.322796 84.898607 76.190817 L 84.898607 77.6959 C 84.898607 78.565845 84.463635 79.000818 83.593689 79.000818 L 63.600335 79.000818 C 62.743862 79.000818 62.314663 78.565845 62.314663 77.6959 Z M 119.815765 77.6959 L 119.815765 76.190817 C 119.815765 75.322796 119.380792 74.887823 118.510846 74.887823 L 117.007688 74.887823 C 116.14929 74.887823 115.720091 74.45285 115.720091 73.584829 L 115.720091 36.406198 C 115.720091 35.538177 115.285118 35.103204 114.415172 35.103204 L 112.226836 35.103204 C 111.35689 35.103204 110.921917 34.674005 110.921917 33.815607 L 110.921917 32.377887 C 110.921917 31.509866 111.35689 31.074893 112.226836 31.074893 L 114.415172 31.074893 C 115.285118 31.074893 115.720091 30.63992 115.720091 29.769975 L 115.720091 20.258312 C 115.720091 19.39029 116.14929 18.955318 117.007688 18.955318 L 132.903443 18.955318 C 133.761841 18.955318 134.19104 19.39029 134.19104 20.258312 L 134.19104 29.769975 C 134.19104 30.63992 134.626013 31.074893 135.495959 31.074893 L 142.415106 31.074893 C 143.285052 31.074893 143.720025 31.509866 143.720025 32.377887 L 143.720025 33.815607 C 143.720025 34.674005 143.285052 35.103204 142.415106 35.103204 L 135.495959 35.103204 C 134.626013 35.103204 134.19104 35.538177 134.19104 36.406198 L 134.19104 73.584829 C 134.19104 74.45285 134.626013 74.887823 135.495959 74.887823 L 136.999117 74.887823 C 137.869063 74.887823 138.304036 74.45285 138.304036 73.584829 L 138.304036 66.613715 C 138.304036 65.743769 138.739008 65.308797 139.60703 65.308797 L 150.706536 65.308797 C 151.564934 65.308797 151.994133 65.743769 151.994133 66.613715 L 151.994133 73.584829 C 151.994133 74.45285 151.564934 74.887823 150.706536 74.887823 L 147.145917 74.887823 C 146.277896 74.887823 145.842924 75.322796 145.842924 76.190817 L 145.842924 77.6959 C 145.842924 78.565845 145.407951 79.000818 144.538005 79.000818 L 121.118759 79.000818 C 120.250737 79.000818 119.815765 78.565845 119.815765 77.6959 Z M 181.504924 57.152093 L 175.904167 57.152093 C 175.034221 57.152093 174.601173 57.587066 174.601173 58.455087 L 174.601173 73.584829 C 174.601173 74.45285 175.034221 74.887823 175.904167 74.887823 L 177.40925 74.887823 C 178.267648 74.887823 178.696847 74.45285 178.696847 73.584829 L 178.696847 72.079746 C 178.696847 71.2098 179.129895 70.774827 179.999841 70.774827 L 181.504924 70.774827 C 182.372945 70.774827 182.807918 70.345628 182.807918 69.489155 L 182.807918 58.455087 C 182.807918 57.587066 182.372945 57.152093 181.504924 57.152093 Z M 160.223973 77.6959 L 160.223973 76.190817 C 160.223973 75.322796 159.789 74.887823 158.920979 74.887823 L 157.415896 74.887823 C 156.547875 74.887823 156.112902 74.45285 156.112902 73.584829 L 156.112902 58.455087 C 156.112902 57.587066 156.547875 57.152093 157.415896 57.152093 L 158.920979 57.152093 C 159.789 57.152093 160.223973 56.722894 160.223973 55.864497 L 160.223973 54.344016 C 160.223973 53.485618 160.653172 53.05642 161.51157 53.05642 L 177.40925 53.05642 C 178.267648 53.05642 178.696847 52.621447 178.696847 51.751501 L 178.696847 50.248343 C 178.696847 49.378397 179.129895 48.943424 179.999841 48.943424 L 183.560459 48.943424 C 184.430405 48.943424 184.863453 48.510376 184.863453 47.64043 L 184.863453 36.473561 C 184.863453 35.615163 184.430405 35.185964 183.560459 35.185964 L 179.999841 35.185964 C 179.129895 35.185964 178.696847 35.615163 178.696847 36.473561 L 178.696847 42.089715 C 178.696847 42.95966 178.267648 43.394633 177.40925 43.394633 L 175.904167 43.394633 C 175.034221 43.394633 174.601173 43.829606 174.601173 44.697627 L 174.601173 48.258246 C 174.601173 49.128191 174.1662 49.563164 173.296255 49.563164 L 159.471431 49.563164 C 158.60341 49.563164 158.168438 49.128191 158.168438 48.258246 L 158.168438 36.473561 C 158.168438 35.615163 158.60341 35.185964 159.471431 35.185964 L 161.996584 35.185964 C 162.866529 35.185964 163.299578 34.750991 163.299578 33.88297 L 163.299578 32.377887 C 163.299578 31.509866 163.73455 31.074893 164.604496 31.074893 L 195.897521 31.074893 C 196.755919 31.074893 197.185118 31.509866 197.185118 32.377887 L 197.185118 33.88297 C 197.185118 34.750991 197.618166 35.185964 198.488112 35.185964 L 199.993195 35.185964 C 200.861216 35.185964 201.296189 35.615163 201.296189 36.473561 L 201.296189 77.6959 C 201.296189 78.565845 200.861216 79.000818 199.993195 79.000818 L 188.223907 79.000818 C 187.355886 79.000818 186.920913 78.565845 186.920913 77.6959 L 186.920913 76.190817 C 186.920913 75.322796 186.48594 74.887823 185.615995 74.887823 L 184.112836 74.887823 C 183.24289 74.887823 182.807918 75.322796 182.807918 76.190817 L 182.807918 77.6959 C 182.807918 78.565845 182.372945 79.000818 181.504924 79.000818 L 161.51157 79.000818 C 160.653172 79.000818 160.223973 78.565845 160.223973 77.6959 Z M 214.316504 77.6959 L 214.316504 76.190817 C 214.316504 75.322796 213.881531 74.887823 213.011586 74.887823 L 211.506503 74.887823 C 210.638482 74.887823 210.203509 74.45285 210.203509 73.584829 L 210.203509 61.815541 C 210.203509 60.945595 210.638482 60.512547 211.506503 60.512547 L 227.386861 60.512547 C 228.256807 60.512547 228.69178 60.945595 228.69178 61.815541 L 228.69178 73.584829 C 228.69178 74.45285 229.126753 74.887823 229.994774 74.887823 L 231.499857 74.887823 C 232.358255 74.887823 232.787453 74.45285 232.787453 73.584829 L 232.787453 72.079746 C 232.787453 71.2098 233.222426 70.774827 234.090447 70.774827 L 235.662893 70.774827 C 236.530914 70.774827 236.965887 70.345628 236.965887 69.489155 L 236.965887 62.635446 C 236.965887 61.7655 236.530914 61.330527 235.662893 61.330527 L 234.15781 61.330527 C 233.299413 61.330527 232.870214 60.895554 232.870214 60.027533 L 232.870214 58.52245 C 232.870214 57.652504 232.435241 57.219456 231.56722 57.219456 L 215.602176 57.219456 C 214.743779 57.219456 214.316504 56.790257 214.316504 55.93186 L 214.316504 54.426777 C 214.316504 53.556831 213.881531 53.123783 213.011586 53.123783 L 211.506503 53.123783 C 210.638482 53.123783 210.203509 52.68881 210.203509 51.818864 L 210.203509 36.473561 C 210.203509 35.615163 210.638482 35.185964 211.506503 35.185964 L 212.526572 35.185964 C 213.396518 35.185964 213.83149 34.750991 213.83149 33.88297 L 213.83149 32.377887 C 213.83149 31.509866 214.264539 31.074893 215.134484 31.074893 L 249.302949 31.074893 C 250.161347 31.074893 250.590546 31.509866 250.590546 32.377887 L 250.590546 33.88297 C 250.590546 34.750991 251.025519 35.185964 251.89354 35.185964 L 253.398623 35.185964 C 254.266644 35.185964 254.701617 35.615163 254.701617 36.473561 L 254.701617 48.258246 C 254.701617 49.128191 254.266644 49.563164 253.398623 49.563164 L 242.314514 49.563164 C 241.446493 49.563164 241.01152 49.128191 241.01152 48.258246 L 241.01152 46.755087 C 241.01152 45.885141 240.576547 45.450169 239.708526 45.450169 L 238.203443 45.450169 C 237.333497 45.450169 236.898524 45.015196 236.898524 44.147175 L 236.898524 36.473561 C 236.898524 35.615163 236.465476 35.185964 235.59553 35.185964 L 234.090447 35.185964 C 233.222426 35.185964 232.787453 35.615163 232.787453 36.473561 L 232.787453 37.994041 C 232.787453 38.852439 232.358255 39.281638 231.499857 39.281638 L 229.994774 39.281638 C 229.126753 39.281638 228.69178 39.716611 228.69178 40.586556 L 228.69178 47.707793 C 228.69178 48.575814 229.126753 49.010787 229.994774 49.010787 L 231.499857 49.010787 C 232.358255 49.010787 232.787453 49.44576 232.787453 50.315706 L 232.787453 51.818864 C 232.787453 52.68881 233.222426 53.123783 234.090447 53.123783 L 249.370312 53.123783 C 250.22871 53.123783 250.655984 53.556831 250.655984 54.426777 L 250.655984 55.93186 C 250.655984 56.790257 251.090957 57.219456 251.960903 57.219456 L 253.465986 57.219456 C 254.334007 57.219456 254.76898 57.652504 254.76898 58.52245 L 254.76898 73.584829 C 254.76898 74.45285 254.334007 74.887823 253.465986 74.887823 L 251.960903 74.887823 C 251.090957 74.887823 250.655984 75.322796 250.655984 76.190817 L 250.655984 77.6959 C 250.655984 78.565845 250.22871 79.000818 249.370312 79.000818 L 215.602176 79.000818 C 214.743779 79.000818 214.316504 78.565845 214.316504 77.6959 Z M 272.502785 77.6959 L 272.502785 76.190817 C 272.502785 75.322796 272.067812 74.887823 271.197866 74.887823 L 269.694708 74.887823 C 268.824762 74.887823 268.389789 74.45285 268.389789 73.584829 L 268.389789 72.079746 C 268.389789 71.2098 267.96059 70.774827 267.102192 70.774827 L 265.599034 70.774827 C 264.729088 70.774827 264.294116 70.345628 264.294116 69.489155 L 264.294116 40.586556 C 264.294116 39.716611 264.729088 39.281638 265.599034 39.281638 L 267.102192 39.281638 C 267.96059 39.281638 268.389789 38.852439 268.389789 37.994041 L 268.389789 36.473561 C 268.389789 35.615163 268.824762 35.185964 269.694708 35.185964 L 271.197866 35.185964 C 272.067812 35.185964 272.502785 34.750991 272.502785 33.88297 L 272.502785 32.377887 C 272.502785 31.509866 272.935833 31.074893 273.805779 31.074893 L 299.967664 31.074893 C 300.835685 31.074893 301.270657 31.509866 301.270657 32.377887 L 301.270657 33.88297 C 301.270657 34.750991 301.699856 35.185964 302.558254 35.185964 L 304.063337 35.185964 C 304.931358 35.185964 305.366331 35.615163 305.366331 36.473561 L 305.366331 37.994041 C 305.366331 38.852439 305.801304 39.281638 306.669325 39.281638 L 308.174408 39.281638 C 309.044354 39.281638 309.479327 39.716611 309.479327 40.586556 L 309.479327 51.686063 C 309.479327 52.554084 309.044354 52.989057 308.174408 52.989057 L 306.669325 52.989057 C 305.801304 52.989057 305.366331 53.418255 305.366331 54.276653 L 305.366331 55.781736 C 305.366331 56.649757 304.931358 57.08473 304.063337 57.08473 L 284.069983 57.08473 C 283.211585 57.08473 282.782386 57.519703 282.782386 58.389649 L 282.782386 73.584829 C 282.782386 74.45285 283.211585 74.887823 284.069983 74.887823 L 285.590463 74.887823 C 286.448861 74.887823 286.87806 74.45285 286.87806 73.584829 L 286.87806 72.079746 C 286.87806 71.2098 287.313033 70.774827 288.181054 70.774827 L 289.686137 70.774827 C 290.556083 70.774827 290.991056 70.345628 290.991056 69.489155 L 290.991056 64.758344 C 290.991056 63.888398 291.424104 63.453426 292.29405 63.453426 L 308.174408 63.453426 C 309.044354 63.453426 309.479327 63.888398 309.479327 64.758344 L 309.479327 69.489155 C 309.479327 70.345628 309.044354 70.774827 308.174408 70.774827 L 306.669325 70.774827 C 305.801304 70.774827 305.366331 71.2098 305.366331 72.079746 L 305.366331 73.584829 C 305.366331 74.45285 304.931358 74.887823 304.063337 74.887823 L 302.558254 74.887823 C 301.699856 74.887823 301.270657 75.322796 301.270657 76.190817 L 301.270657 77.6959 C 301.270657 78.565845 300.835685 79.000818 299.967664 79.000818 L 273.805779 79.000818 C 272.935833 79.000818 272.502785 78.565845 272.502785 77.6959 Z M 284.069983 52.989057 L 289.686137 52.989057 C 290.556083 52.989057 290.991056 52.554084 290.991056 51.686063 L 290.991056 36.473561 C 290.991056 35.615163 290.556083 35.185964 289.686137 35.185964 L 288.181054 35.185964 C 287.313033 35.185964 286.87806 35.615163 286.87806 36.473561 L 286.87806 37.994041 C 286.87806 38.852439 286.448861 39.281638 285.590463 39.281638 L 284.069983 39.281638 C 283.211585 39.281638 282.782386 39.716611 282.782386 40.586556 L 282.782386 51.686063 C 282.782386 52.554084 283.211585 52.989057 284.069983 52.989057 Z M 324.537856 77.6959 L 324.537856 76.190817 C 324.537856 75.322796 324.102883 74.887823 323.232937 74.887823 L 321.727854 74.887823 C 320.871381 74.887823 320.442182 74.45285 320.442182 73.584829 L 320.442182 36.406198 C 320.442182 35.538177 320.007209 35.103204 319.137264 35.103204 L 316.947002 35.103204 C 316.078981 35.103204 315.644008 34.674005 315.644008 33.815607 L 315.644008 32.377887 C 315.644008 31.509866 316.078981 31.074893 316.947002 31.074893 L 319.137264 31.074893 C 320.007209 31.074893 320.442182 30.63992 320.442182 29.769975 L 320.442182 20.258312 C 320.442182 19.39029 320.871381 18.955318 321.727854 18.955318 L 337.625535 18.955318 C 338.483932 18.955318 338.913131 19.39029 338.913131 20.258312 L 338.913131 29.769975 C 338.913131 30.63992 339.348104 31.074893 340.216125 31.074893 L 347.137198 31.074893 C 348.007143 31.074893 348.442116 31.509866 348.442116 32.377887 L 348.442116 33.815607 C 348.442116 34.674005 348.007143 35.103204 347.137198 35.103204 L 340.216125 35.103204 C 339.348104 35.103204 338.913131 35.538177 338.913131 36.406198 L 338.913131 73.584829 C 338.913131 74.45285 339.348104 74.887823 340.216125 74.887823 L 341.721208 74.887823 C 342.591154 74.887823 343.026127 74.45285 343.026127 73.584829 L 343.026127 66.613715 C 343.026127 65.743769 343.459175 65.308797 344.329121 65.308797 L 355.428627 65.308797 C 356.287025 65.308797 356.716224 65.743769 356.716224 66.613715 L 356.716224 73.584829 C 356.716224 74.45285 356.287025 74.887823 355.428627 74.887823 L 351.868009 74.887823 C 350.998063 74.887823 350.565015 75.322796 350.565015 76.190817 L 350.565015 77.6959 C 350.565015 78.565845 350.130042 79.000818 349.260096 79.000818 L 325.84085 79.000818 C 324.970904 79.000818 324.537856 78.565845 324.537856 77.6959 Z M 324.537856 77.6959 " stroke="#242424" stroke-width="9.415491" stroke-opacity="1" stroke-miterlimit="4"/><g fill="#242424" fill-opacity="1"><g transform="translate(45.000021, 276.623339)"><g><path d="M 9.734375 -2.640625 L 9.734375 -127.4375 C 9.734375 -129.195312 10.613281 -130.078125 12.375 -130.078125 L 82.125 -130.078125 C 83.882812 -130.078125 84.765625 -129.195312 84.765625 -127.4375 L 84.765625 -124.375 C 84.765625 -122.613281 85.644531 -121.734375 87.40625 -121.734375 L 90.46875 -121.734375 C 92.226562 -121.734375 93.109375 -120.851562 93.109375 -119.09375 L 93.109375 -116.03125 C 93.109375 -114.28125 93.988281 -113.40625 95.75 -113.40625 L 98.8125 -113.40625 C 100.570312 -113.40625 101.453125 -112.523438 101.453125 -110.765625 L 101.453125 -19.3125 C 101.453125 -17.550781 100.570312 -16.671875 98.8125 -16.671875 L 95.75 -16.671875 C 93.988281 -16.671875 93.109375 -15.789062 93.109375 -14.03125 L 93.109375 -10.984375 C 93.109375 -9.222656 92.226562 -8.34375 90.46875 -8.34375 L 87.40625 -8.34375 C 85.644531 -8.34375 84.765625 -7.460938 84.765625 -5.703125 L 84.765625 -2.640625 C 84.765625 -0.878906 83.882812 0 82.125 0 L 12.375 0 C 10.613281 0 9.734375 -0.878906 9.734375 -2.640625 Z M 47.25 -119.09375 L 47.25 -10.984375 C 47.25 -9.222656 48.128906 -8.34375 49.890625 -8.34375 L 52.953125 -8.34375 C 54.710938 -8.34375 55.59375 -9.222656 55.59375 -10.984375 L 55.59375 -14.03125 C 55.59375 -15.789062 56.472656 -16.671875 58.234375 -16.671875 L 61.28125 -16.671875 C 63.039062 -16.671875 63.921875 -17.550781 63.921875 -19.3125 L 63.921875 -110.765625 C 63.921875 -112.523438 63.039062 -113.40625 61.28125 -113.40625 L 58.234375 -113.40625 C 56.472656 -113.40625 55.59375 -114.28125 55.59375 -116.03125 L 55.59375 -119.09375 C 55.59375 -120.851562 54.710938 -121.734375 52.953125 -121.734375 L 49.890625 -121.734375 C 48.128906 -121.734375 47.25 -120.851562 47.25 -119.09375 Z M 47.25 -119.09375 "/></g></g></g><g fill="#242424" fill-opacity="1"><g transform="translate(156.170414, 276.623339)"><g><path d="M 58.5 -44.328125 L 47.109375 -44.328125 C 45.347656 -44.328125 44.46875 -43.445312 44.46875 -41.6875 L 44.46875 -10.984375 C 44.46875 -9.222656 45.347656 -8.34375 47.109375 -8.34375 L 50.171875 -8.34375 C 51.929688 -8.34375 52.8125 -9.222656 52.8125 -10.984375 L 52.8125 -14.03125 C 52.8125 -15.789062 53.691406 -16.671875 55.453125 -16.671875 L 58.5 -16.671875 C 60.257812 -16.671875 61.140625 -17.550781 61.140625 -19.3125 L 61.140625 -41.6875 C 61.140625 -43.445312 60.257812 -44.328125 58.5 -44.328125 Z M 15.28125 -2.640625 L 15.28125 -5.703125 C 15.28125 -7.460938 14.398438 -8.34375 12.640625 -8.34375 L 9.59375 -8.34375 C 7.832031 -8.34375 6.953125 -9.222656 6.953125 -10.984375 L 6.953125 -41.6875 C 6.953125 -43.445312 7.832031 -44.328125 9.59375 -44.328125 L 12.640625 -44.328125 C 14.398438 -44.328125 15.28125 -45.207031 15.28125 -46.96875 L 15.28125 -50.03125 C 15.28125 -51.789062 16.160156 -52.671875 17.921875 -52.671875 L 50.171875 -52.671875 C 51.929688 -52.671875 52.8125 -53.550781 52.8125 -55.3125 L 52.8125 -58.359375 C 52.8125 -60.117188 53.691406 -61 55.453125 -61 L 62.671875 -61 C 64.429688 -61 65.3125 -61.878906 65.3125 -63.640625 L 65.3125 -86.296875 C 65.3125 -88.054688 64.429688 -88.9375 62.671875 -88.9375 L 55.453125 -88.9375 C 53.691406 -88.9375 52.8125 -88.054688 52.8125 -86.296875 L 52.8125 -74.90625 C 52.8125 -73.144531 51.929688 -72.265625 50.171875 -72.265625 L 47.109375 -72.265625 C 45.347656 -72.265625 44.46875 -71.382812 44.46875 -69.625 L 44.46875 -62.390625 C 44.46875 -60.628906 43.585938 -59.75 41.828125 -59.75 L 13.765625 -59.75 C 12.003906 -59.75 11.125 -60.628906 11.125 -62.390625 L 11.125 -86.296875 C 11.125 -88.054688 12.003906 -88.9375 13.765625 -88.9375 L 18.90625 -88.9375 C 20.664062 -88.9375 21.546875 -89.816406 21.546875 -91.578125 L 21.546875 -94.640625 C 21.546875 -96.398438 22.425781 -97.28125 24.1875 -97.28125 L 87.6875 -97.28125 C 89.445312 -97.28125 90.328125 -96.398438 90.328125 -94.640625 L 90.328125 -91.578125 C 90.328125 -89.816406 91.207031 -88.9375 92.96875 -88.9375 L 96.03125 -88.9375 C 97.789062 -88.9375 98.671875 -88.054688 98.671875 -86.296875 L 98.671875 -2.640625 C 98.671875 -0.878906 97.789062 0 96.03125 0 L 72.125 0 C 70.363281 0 69.484375 -0.878906 69.484375 -2.640625 L 69.484375 -5.703125 C 69.484375 -7.460938 68.601562 -8.34375 66.84375 -8.34375 L 63.78125 -8.34375 C 62.019531 -8.34375 61.140625 -7.460938 61.140625 -5.703125 L 61.140625 -2.640625 C 61.140625 -0.878906 60.257812 0 58.5 0 L 17.921875 0 C 16.160156 0 15.28125 -0.878906 15.28125 -2.640625 Z M 15.28125 -2.640625 "/></g></g></g><g fill="#242424" fill-opacity="1"><g transform="translate(264.56153, 276.623339)"><g><path d="M 23.625 -2.640625 L 23.625 -5.703125 C 23.625 -7.460938 22.742188 -8.34375 20.984375 -8.34375 L 17.921875 -8.34375 C 16.160156 -8.34375 15.28125 -9.222656 15.28125 -10.984375 L 15.28125 -86.4375 C 15.28125 -88.195312 14.398438 -89.078125 12.640625 -89.078125 L 8.203125 -89.078125 C 6.441406 -89.078125 5.5625 -89.957031 5.5625 -91.71875 L 5.5625 -94.640625 C 5.5625 -96.398438 6.441406 -97.28125 8.203125 -97.28125 L 12.640625 -97.28125 C 14.398438 -97.28125 15.28125 -98.160156 15.28125 -99.921875 L 15.28125 -119.234375 C 15.28125 -120.992188 16.160156 -121.875 17.921875 -121.875 L 50.171875 -121.875 C 51.929688 -121.875 52.8125 -120.992188 52.8125 -119.234375 L 52.8125 -99.921875 C 52.8125 -98.160156 53.691406 -97.28125 55.453125 -97.28125 L 69.484375 -97.28125 C 71.242188 -97.28125 72.125 -96.398438 72.125 -94.640625 L 72.125 -91.71875 C 72.125 -89.957031 71.242188 -89.078125 69.484375 -89.078125 L 55.453125 -89.078125 C 53.691406 -89.078125 52.8125 -88.195312 52.8125 -86.4375 L 52.8125 -10.984375 C 52.8125 -9.222656 53.691406 -8.34375 55.453125 -8.34375 L 58.5 -8.34375 C 60.257812 -8.34375 61.140625 -9.222656 61.140625 -10.984375 L 61.140625 -25.15625 C 61.140625 -26.914062 62.019531 -27.796875 63.78125 -27.796875 L 86.296875 -27.796875 C 88.054688 -27.796875 88.9375 -26.914062 88.9375 -25.15625 L 88.9375 -10.984375 C 88.9375 -9.222656 88.054688 -8.34375 86.296875 -8.34375 L 79.078125 -8.34375 C 77.316406 -8.34375 76.4375 -7.460938 76.4375 -5.703125 L 76.4375 -2.640625 C 76.4375 -0.878906 75.554688 0 73.796875 0 L 26.265625 0 C 24.503906 0 23.625 -0.878906 23.625 -2.640625 Z M 23.625 -2.640625 "/></g></g></g><g fill="#242424" fill-opacity="1"><g transform="translate(354.88747, 276.623339)"><g><path d="M 58.5 -44.328125 L 47.109375 -44.328125 C 45.347656 -44.328125 44.46875 -43.445312 44.46875 -41.6875 L 44.46875 -10.984375 C 44.46875 -9.222656 45.347656 -8.34375 47.109375 -8.34375 L 50.171875 -8.34375 C 51.929688 -8.34375 52.8125 -9.222656 52.8125 -10.984375 L 52.8125 -14.03125 C 52.8125 -15.789062 53.691406 -16.671875 55.453125 -16.671875 L 58.5 -16.671875 C 60.257812 -16.671875 61.140625 -17.550781 61.140625 -19.3125 L 61.140625 -41.6875 C 61.140625 -43.445312 60.257812 -44.328125 58.5 -44.328125 Z M 15.28125 -2.640625 L 15.28125 -5.703125 C 15.28125 -7.460938 14.398438 -8.34375 12.640625 -8.34375 L 9.59375 -8.34375 C 7.832031 -8.34375 6.953125 -9.222656 6.953125 -10.984375 L 6.953125 -41.6875 C 6.953125 -43.445312 7.832031 -44.328125 9.59375 -44.328125 L 12.640625 -44.328125 C 14.398438 -44.328125 15.28125 -45.207031 15.28125 -46.96875 L 15.28125 -50.03125 C 15.28125 -51.789062 16.160156 -52.671875 17.921875 -52.671875 L 50.171875 -52.671875 C 51.929688 -52.671875 52.8125 -53.550781 52.8125 -55.3125 L 52.8125 -58.359375 C 52.8125 -60.117188 53.691406 -61 55.453125 -61 L 62.671875 -61 C 64.429688 -61 65.3125 -61.878906 65.3125 -63.640625 L 65.3125 -86.296875 C 65.3125 -88.054688 64.429688 -88.9375 62.671875 -88.9375 L 55.453125 -88.9375 C 53.691406 -88.9375 52.8125 -88.054688 52.8125 -86.296875 L 52.8125 -74.90625 C 52.8125 -73.144531 51.929688 -72.265625 50.171875 -72.265625 L 47.109375 -72.265625 C 45.347656 -72.265625 44.46875 -71.382812 44.46875 -69.625 L 44.46875 -62.390625 C 44.46875 -60.628906 43.585938 -59.75 41.828125 -59.75 L 13.765625 -59.75 C 12.003906 -59.75 11.125 -60.628906 11.125 -62.390625 L 11.125 -86.296875 C 11.125 -88.054688 12.003906 -88.9375 13.765625 -88.9375 L 18.90625 -88.9375 C 20.664062 -88.9375 21.546875 -89.816406 21.546875 -91.578125 L 21.546875 -94.640625 C 21.546875 -96.398438 22.425781 -97.28125 24.1875 -97.28125 L 87.6875 -97.28125 C 89.445312 -97.28125 90.328125 -96.398438 90.328125 -94.640625 L 90.328125 -91.578125 C 90.328125 -89.816406 91.207031 -88.9375 92.96875 -88.9375 L 96.03125 -88.9375 C 97.789062 -88.9375 98.671875 -88.054688 98.671875 -86.296875 L 98.671875 -2.640625 C 98.671875 -0.878906 97.789062 0 96.03125 0 L 72.125 0 C 70.363281 0 69.484375 -0.878906 69.484375 -2.640625 L 69.484375 -5.703125 C 69.484375 -7.460938 68.601562 -8.34375 66.84375 -8.34375 L 63.78125 -8.34375 C 62.019531 -8.34375 61.140625 -7.460938 61.140625 -5.703125 L 61.140625 -2.640625 C 61.140625 -0.878906 60.257812 0 58.5 0 L 17.921875 0 C 16.160156 0 15.28125 -0.878906 15.28125 -2.640625 Z M 15.28125 -2.640625 "/></g></g></g><g fill="#242424" fill-opacity="1"><g transform="translate(463.278585, 276.623339)"><g><path d="M 16.671875 -2.640625 L 16.671875 -5.703125 C 16.671875 -7.460938 15.789062 -8.34375 14.03125 -8.34375 L 10.984375 -8.34375 C 9.222656 -8.34375 8.34375 -9.222656 8.34375 -10.984375 L 8.34375 -34.875 C 8.34375 -36.632812 9.222656 -37.515625 10.984375 -37.515625 L 43.21875 -37.515625 C 44.976562 -37.515625 45.859375 -36.632812 45.859375 -34.875 L 45.859375 -10.984375 C 45.859375 -9.222656 46.738281 -8.34375 48.5 -8.34375 L 51.5625 -8.34375 C 53.320312 -8.34375 54.203125 -9.222656 54.203125 -10.984375 L 54.203125 -14.03125 C 54.203125 -15.789062 55.082031 -16.671875 56.84375 -16.671875 L 60.03125 -16.671875 C 61.789062 -16.671875 62.671875 -17.550781 62.671875 -19.3125 L 62.671875 -33.21875 C 62.671875 -34.976562 61.789062 -35.859375 60.03125 -35.859375 L 56.984375 -35.859375 C 55.222656 -35.859375 54.34375 -36.738281 54.34375 -38.5 L 54.34375 -41.546875 C 54.34375 -43.304688 53.460938 -44.1875 51.703125 -44.1875 L 19.3125 -44.1875 C 17.550781 -44.1875 16.671875 -45.066406 16.671875 -46.828125 L 16.671875 -49.890625 C 16.671875 -51.648438 15.789062 -52.53125 14.03125 -52.53125 L 10.984375 -52.53125 C 9.222656 -52.53125 8.34375 -53.410156 8.34375 -55.171875 L 8.34375 -86.296875 C 8.34375 -88.054688 9.222656 -88.9375 10.984375 -88.9375 L 13.0625 -88.9375 C 14.820312 -88.9375 15.703125 -89.816406 15.703125 -91.578125 L 15.703125 -94.640625 C 15.703125 -96.398438 16.582031 -97.28125 18.34375 -97.28125 L 87.6875 -97.28125 C 89.445312 -97.28125 90.328125 -96.398438 90.328125 -94.640625 L 90.328125 -91.578125 C 90.328125 -89.816406 91.207031 -88.9375 92.96875 -88.9375 L 96.03125 -88.9375 C 97.789062 -88.9375 98.671875 -88.054688 98.671875 -86.296875 L 98.671875 -62.390625 C 98.671875 -60.628906 97.789062 -59.75 96.03125 -59.75 L 73.515625 -59.75 C 71.753906 -59.75 70.875 -60.628906 70.875 -62.390625 L 70.875 -65.453125 C 70.875 -67.210938 69.992188 -68.09375 68.234375 -68.09375 L 65.171875 -68.09375 C 63.410156 -68.09375 62.53125 -68.972656 62.53125 -70.734375 L 62.53125 -86.296875 C 62.53125 -88.054688 61.648438 -88.9375 59.890625 -88.9375 L 56.84375 -88.9375 C 55.082031 -88.9375 54.203125 -88.054688 54.203125 -86.296875 L 54.203125 -83.25 C 54.203125 -81.488281 53.320312 -80.609375 51.5625 -80.609375 L 48.5 -80.609375 C 46.738281 -80.609375 45.859375 -79.726562 45.859375 -77.96875 L 45.859375 -63.515625 C 45.859375 -61.753906 46.738281 -60.875 48.5 -60.875 L 51.5625 -60.875 C 53.320312 -60.875 54.203125 -59.992188 54.203125 -58.234375 L 54.203125 -55.171875 C 54.203125 -53.410156 55.082031 -52.53125 56.84375 -52.53125 L 87.828125 -52.53125 C 89.585938 -52.53125 90.46875 -51.648438 90.46875 -49.890625 L 90.46875 -46.828125 C 90.46875 -45.066406 91.347656 -44.1875 93.109375 -44.1875 L 96.171875 -44.1875 C 97.929688 -44.1875 98.8125 -43.304688 98.8125 -41.546875 L 98.8125 -10.984375 C 98.8125 -9.222656 97.929688 -8.34375 96.171875 -8.34375 L 93.109375 -8.34375 C 91.347656 -8.34375 90.46875 -7.460938 90.46875 -5.703125 L 90.46875 -2.640625 C 90.46875 -0.878906 89.585938 0 87.828125 0 L 19.3125 0 C 17.550781 0 16.671875 -0.878906 16.671875 -2.640625 Z M 16.671875 -2.640625 "/></g></g></g><g fill="#242424" fill-opacity="1"><g transform="translate(571.669701, 276.623339)"><g><path d="M 26.40625 -2.640625 L 26.40625 -5.703125 C 26.40625 -7.460938 25.523438 -8.34375 23.765625 -8.34375 L 20.703125 -8.34375 C 18.941406 -8.34375 18.0625 -9.222656 18.0625 -10.984375 L 18.0625 -14.03125 C 18.0625 -15.789062 17.179688 -16.671875 15.421875 -16.671875 L 12.375 -16.671875 C 10.613281 -16.671875 9.734375 -17.550781 9.734375 -19.3125 L 9.734375 -77.96875 C 9.734375 -79.726562 10.613281 -80.609375 12.375 -80.609375 L 15.421875 -80.609375 C 17.179688 -80.609375 18.0625 -81.488281 18.0625 -83.25 L 18.0625 -86.296875 C 18.0625 -88.054688 18.941406 -88.9375 20.703125 -88.9375 L 23.765625 -88.9375 C 25.523438 -88.9375 26.40625 -89.816406 26.40625 -91.578125 L 26.40625 -94.640625 C 26.40625 -96.398438 27.285156 -97.28125 29.046875 -97.28125 L 82.125 -97.28125 C 83.882812 -97.28125 84.765625 -96.398438 84.765625 -94.640625 L 84.765625 -91.578125 C 84.765625 -89.816406 85.644531 -88.9375 87.40625 -88.9375 L 90.46875 -88.9375 C 92.226562 -88.9375 93.109375 -88.054688 93.109375 -86.296875 L 93.109375 -83.25 C 93.109375 -81.488281 93.988281 -80.609375 95.75 -80.609375 L 98.8125 -80.609375 C 100.570312 -80.609375 101.453125 -79.726562 101.453125 -77.96875 L 101.453125 -55.453125 C 101.453125 -53.691406 100.570312 -52.8125 98.8125 -52.8125 L 95.75 -52.8125 C 93.988281 -52.8125 93.109375 -51.929688 93.109375 -50.171875 L 93.109375 -47.109375 C 93.109375 -45.347656 92.226562 -44.46875 90.46875 -44.46875 L 49.890625 -44.46875 C 48.128906 -44.46875 47.25 -43.585938 47.25 -41.828125 L 47.25 -10.984375 C 47.25 -9.222656 48.128906 -8.34375 49.890625 -8.34375 L 52.953125 -8.34375 C 54.710938 -8.34375 55.59375 -9.222656 55.59375 -10.984375 L 55.59375 -14.03125 C 55.59375 -15.789062 56.472656 -16.671875 58.234375 -16.671875 L 61.28125 -16.671875 C 63.039062 -16.671875 63.921875 -17.550781 63.921875 -19.3125 L 63.921875 -28.90625 C 63.921875 -30.664062 64.800781 -31.546875 66.5625 -31.546875 L 98.8125 -31.546875 C 100.570312 -31.546875 101.453125 -30.664062 101.453125 -28.90625 L 101.453125 -19.3125 C 101.453125 -17.550781 100.570312 -16.671875 98.8125 -16.671875 L 95.75 -16.671875 C 93.988281 -16.671875 93.109375 -15.789062 93.109375 -14.03125 L 93.109375 -10.984375 C 93.109375 -9.222656 92.226562 -8.34375 90.46875 -8.34375 L 87.40625 -8.34375 C 85.644531 -8.34375 84.765625 -7.460938 84.765625 -5.703125 L 84.765625 -2.640625 C 84.765625 -0.878906 83.882812 0 82.125 0 L 29.046875 0 C 27.285156 0 26.40625 -0.878906 26.40625 -2.640625 Z M 49.890625 -52.8125 L 61.28125 -52.8125 C 63.039062 -52.8125 63.921875 -53.691406 63.921875 -55.453125 L 63.921875 -86.296875 C 63.921875 -88.054688 63.039062 -88.9375 61.28125 -88.9375 L 58.234375 -88.9375 C 56.472656 -88.9375 55.59375 -88.054688 55.59375 -86.296875 L 55.59375 -83.25 C 55.59375 -81.488281 54.710938 -80.609375 52.953125 -80.609375 L 49.890625 -80.609375 C 48.128906 -80.609375 47.25 -79.726562 47.25 -77.96875 L 47.25 -55.453125 C 47.25 -53.691406 48.128906 -52.8125 49.890625 -52.8125 Z M 49.890625 -52.8125 "/></g></g></g><g fill="#242424" fill-opacity="1"><g transform="translate(680.060817, 276.623339)"><g><path d="M 23.625 -2.640625 L 23.625 -5.703125 C 23.625 -7.460938 22.742188 -8.34375 20.984375 -8.34375 L 17.921875 -8.34375 C 16.160156 -8.34375 15.28125 -9.222656 15.28125 -10.984375 L 15.28125 -86.4375 C 15.28125 -88.195312 14.398438 -89.078125 12.640625 -89.078125 L 8.203125 -89.078125 C 6.441406 -89.078125 5.5625 -89.957031 5.5625 -91.71875 L 5.5625 -94.640625 C 5.5625 -96.398438 6.441406 -97.28125 8.203125 -97.28125 L 12.640625 -97.28125 C 14.398438 -97.28125 15.28125 -98.160156 15.28125 -99.921875 L 15.28125 -119.234375 C 15.28125 -120.992188 16.160156 -121.875 17.921875 -121.875 L 50.171875 -121.875 C 51.929688 -121.875 52.8125 -120.992188 52.8125 -119.234375 L 52.8125 -99.921875 C 52.8125 -98.160156 53.691406 -97.28125 55.453125 -97.28125 L 69.484375 -97.28125 C 71.242188 -97.28125 72.125 -96.398438 72.125 -94.640625 L 72.125 -91.71875 C 72.125 -89.957031 71.242188 -89.078125 69.484375 -89.078125 L 55.453125 -89.078125 C 53.691406 -89.078125 52.8125 -88.195312 52.8125 -86.4375 L 52.8125 -10.984375 C 52.8125 -9.222656 53.691406 -8.34375 55.453125 -8.34375 L 58.5 -8.34375 C 60.257812 -8.34375 61.140625 -9.222656 61.140625 -10.984375 L 61.140625 -25.15625 C 61.140625 -26.914062 62.019531 -27.796875 63.78125 -27.796875 L 86.296875 -27.796875 C 88.054688 -27.796875 88.9375 -26.914062 88.9375 -25.15625 L 88.9375 -10.984375 C 88.9375 -9.222656 88.054688 -8.34375 86.296875 -8.34375 L 79.078125 -8.34375 C 77.316406 -8.34375 76.4375 -7.460938 76.4375 -5.703125 L 76.4375 -2.640625 C 76.4375 -0.878906 75.554688 0 73.796875 0 L 26.265625 0 C 24.503906 0 23.625 -0.878906 23.625 -2.640625 Z M 23.625 -2.640625 "/></g></g></g><path stroke-linecap="butt" transform="matrix(2.029581, 0, 0, 2.029581, 55.69676, 102.626682)" fill="none" stroke-linejoin="miter" d="M 4.797461 77.695716 L 4.797461 16.21442 C 4.797461 15.344474 5.232434 14.909502 6.102379 14.909502 L 40.471009 14.909502 C 41.33903 14.909502 41.774003 15.344474 41.774003 16.21442 L 41.774003 17.717579 C 41.774003 18.587524 42.203202 19.022497 43.061599 19.022497 L 44.564758 19.022497 C 45.434703 19.022497 45.869676 19.45747 45.869676 20.325491 L 45.869676 21.830574 C 45.869676 22.698595 46.304649 23.133568 47.17267 23.133568 L 48.677753 23.133568 C 49.547699 23.133568 49.982672 23.562767 49.982672 24.421165 L 49.982672 69.488972 C 49.982672 70.347369 49.547699 70.774644 48.677753 70.774644 L 47.17267 70.774644 C 46.304649 70.774644 45.869676 71.209616 45.869676 72.079562 L 45.869676 73.584645 C 45.869676 74.452666 45.434703 74.887639 44.564758 74.887639 L 43.061599 74.887639 C 42.203202 74.887639 41.774003 75.322612 41.774003 76.192558 L 41.774003 77.695716 C 41.774003 78.565662 41.33903 79.000635 40.471009 79.000635 L 6.102379 79.000635 C 5.232434 79.000635 4.797461 78.565662 4.797461 77.695716 Z M 23.285732 20.325491 L 23.285732 73.584645 C 23.285732 74.452666 23.714931 74.887639 24.573328 74.887639 L 26.093809 74.887639 C 26.952206 74.887639 27.381405 74.452666 27.381405 73.584645 L 27.381405 72.079562 C 27.381405 71.209616 27.816378 70.774644 28.684399 70.774644 L 30.189482 70.774644 C 31.059428 70.774644 31.494401 70.347369 31.494401 69.488972 L 31.494401 24.421165 C 31.494401 23.562767 31.059428 23.133568 30.189482 23.133568 L 28.684399 23.133568 C 27.816378 23.133568 27.381405 22.698595 27.381405 21.830574 L 27.381405 20.325491 C 27.381405 19.45747 26.952206 19.022497 26.093809 19.022497 L 24.573328 19.022497 C 23.714931 19.022497 23.285732 19.45747 23.285732 20.325491 Z M 83.594911 57.15191 L 77.994154 57.15191 C 77.124208 57.15191 76.689235 57.586883 76.689235 58.454904 L 76.689235 73.584645 C 76.689235 74.452666 77.124208 74.887639 77.994154 74.887639 L 79.499237 74.887639 C 80.35571 74.887639 80.784909 74.452666 80.784909 73.584645 L 80.784909 72.079562 C 80.784909 71.209616 81.219882 70.774644 82.089827 70.774644 L 83.594911 70.774644 C 84.462932 70.774644 84.897904 70.347369 84.897904 69.488972 L 84.897904 58.454904 C 84.897904 57.586883 84.462932 57.15191 83.594911 57.15191 Z M 62.31396 77.695716 L 62.31396 76.192558 C 62.31396 75.322612 61.878987 74.887639 61.010966 74.887639 L 59.505883 74.887639 C 58.635937 74.887639 58.200964 74.452666 58.200964 73.584645 L 58.200964 58.454904 C 58.200964 57.586883 58.635937 57.15191 59.505883 57.15191 L 61.010966 57.15191 C 61.878987 57.15191 62.31396 56.722711 62.31396 55.864313 L 62.31396 54.343833 C 62.31396 53.485435 62.743159 53.056236 63.601556 53.056236 L 79.499237 53.056236 C 80.35571 53.056236 80.784909 52.621263 80.784909 51.753242 L 80.784909 50.248159 C 80.784909 49.378213 81.219882 48.943241 82.089827 48.943241 L 85.650446 48.943241 C 86.518467 48.943241 86.95344 48.510192 86.95344 47.640247 L 86.95344 36.473377 C 86.95344 35.614979 86.518467 35.18578 85.650446 35.18578 L 82.089827 35.18578 C 81.219882 35.18578 80.784909 35.614979 80.784909 36.473377 L 80.784909 42.089531 C 80.784909 42.959477 80.35571 43.39445 79.499237 43.39445 L 77.994154 43.39445 C 77.124208 43.39445 76.689235 43.829422 76.689235 44.697444 L 76.689235 48.258062 C 76.689235 49.128008 76.256187 49.562981 75.386241 49.562981 L 61.561418 49.562981 C 60.693397 49.562981 60.258424 49.128008 60.258424 48.258062 L 60.258424 36.473377 C 60.258424 35.614979 60.693397 35.18578 61.561418 35.18578 L 64.08657 35.18578 C 64.954592 35.18578 65.389564 34.752732 65.389564 33.882787 L 65.389564 32.377704 C 65.389564 31.509682 65.824537 31.07471 66.694483 31.07471 L 97.987508 31.07471 C 98.843981 31.07471 99.27318 31.509682 99.27318 32.377704 L 99.27318 33.882787 C 99.27318 34.752732 99.708153 35.18578 100.578098 35.18578 L 102.081257 35.18578 C 102.951203 35.18578 103.386175 35.614979 103.386175 36.473377 L 103.386175 77.695716 C 103.386175 78.565662 102.951203 79.000635 102.081257 79.000635 L 90.313894 79.000635 C 89.443948 79.000635 89.0109 78.565662 89.0109 77.695716 L 89.0109 76.192558 C 89.0109 75.322612 88.575927 74.887639 87.705981 74.887639 L 86.200898 74.887639 C 85.332877 74.887639 84.897904 75.322612 84.897904 76.192558 L 84.897904 77.695716 C 84.897904 78.565662 84.462932 79.000635 83.594911 79.000635 L 63.601556 79.000635 C 62.743159 79.000635 62.31396 78.565662 62.31396 77.695716 Z M 119.815062 77.695716 L 119.815062 76.192558 C 119.815062 75.322612 119.380089 74.887639 118.512068 74.887639 L 117.006985 74.887639 C 116.148587 74.887639 115.719388 74.452666 115.719388 73.584645 L 115.719388 36.406014 C 115.719388 35.537993 115.284415 35.10302 114.416394 35.10302 L 112.226133 35.10302 C 111.356187 35.10302 110.923139 34.673821 110.923139 33.815424 L 110.923139 32.377704 C 110.923139 31.509682 111.356187 31.07471 112.226133 31.07471 L 114.416394 31.07471 C 115.284415 31.07471 115.719388 30.639737 115.719388 29.769791 L 115.719388 20.258128 C 115.719388 19.390107 116.148587 18.955134 117.006985 18.955134 L 132.904665 18.955134 C 133.763063 18.955134 134.190337 19.390107 134.190337 20.258128 L 134.190337 29.769791 C 134.190337 30.639737 134.62531 31.07471 135.495256 31.07471 L 142.416328 31.07471 C 143.284349 31.07471 143.719322 31.509682 143.719322 32.377704 L 143.719322 33.815424 C 143.719322 34.673821 143.284349 35.10302 142.416328 35.10302 L 135.495256 35.10302 C 134.62531 35.10302 134.190337 35.537993 134.190337 36.406014 L 134.190337 73.584645 C 134.190337 74.452666 134.62531 74.887639 135.495256 74.887639 L 137.000339 74.887639 C 137.86836 74.887639 138.303333 74.452666 138.303333 73.584645 L 138.303333 66.613532 C 138.303333 65.743586 138.738306 65.308613 139.608251 65.308613 L 150.707758 65.308613 C 151.564231 65.308613 151.99343 65.743586 151.99343 66.613532 L 151.99343 73.584645 C 151.99343 74.452666 151.564231 74.887639 150.707758 74.887639 L 147.147139 74.887639 C 146.277193 74.887639 145.842221 75.322612 145.842221 76.192558 L 145.842221 77.695716 C 145.842221 78.565662 145.407248 79.000635 144.539227 79.000635 L 121.11998 79.000635 C 120.250035 79.000635 119.815062 78.565662 119.815062 77.695716 Z M 181.504221 57.15191 L 175.903464 57.15191 C 175.035443 57.15191 174.60047 57.586883 174.60047 58.454904 L 174.60047 73.584645 C 174.60047 74.452666 175.035443 74.887639 175.903464 74.887639 L 177.408547 74.887639 C 178.266945 74.887639 178.696144 74.452666 178.696144 73.584645 L 178.696144 72.079562 C 178.696144 71.209616 179.131117 70.774644 179.999138 70.774644 L 181.504221 70.774644 C 182.374166 70.774644 182.809139 70.347369 182.809139 69.488972 L 182.809139 58.454904 C 182.809139 57.586883 182.374166 57.15191 181.504221 57.15191 Z M 160.225195 77.695716 L 160.225195 76.192558 C 160.225195 75.322612 159.790222 74.887639 158.920276 74.887639 L 157.417118 74.887639 C 156.547172 74.887639 156.112199 74.452666 156.112199 73.584645 L 156.112199 58.454904 C 156.112199 57.586883 156.547172 57.15191 157.417118 57.15191 L 158.920276 57.15191 C 159.790222 57.15191 160.225195 56.722711 160.225195 55.864313 L 160.225195 54.343833 C 160.225195 53.485435 160.654394 53.056236 161.510867 53.056236 L 177.408547 53.056236 C 178.266945 53.056236 178.696144 52.621263 178.696144 51.753242 L 178.696144 50.248159 C 178.696144 49.378213 179.131117 48.943241 179.999138 48.943241 L 183.559756 48.943241 C 184.429702 48.943241 184.864675 48.510192 184.864675 47.640247 L 184.864675 36.473377 C 184.864675 35.614979 184.429702 35.18578 183.559756 35.18578 L 179.999138 35.18578 C 179.131117 35.18578 178.696144 35.614979 178.696144 36.473377 L 178.696144 42.089531 C 178.696144 42.959477 178.266945 43.39445 177.408547 43.39445 L 175.903464 43.39445 C 175.035443 43.39445 174.60047 43.829422 174.60047 44.697444 L 174.60047 48.258062 C 174.60047 49.128008 174.165497 49.562981 173.297476 49.562981 L 159.472653 49.562981 C 158.602707 49.562981 158.167735 49.128008 158.167735 48.258062 L 158.167735 36.473377 C 158.167735 35.614979 158.602707 35.18578 159.472653 35.18578 L 161.995881 35.18578 C 162.865826 35.18578 163.300799 34.752732 163.300799 33.882787 L 163.300799 32.377704 C 163.300799 31.509682 163.735772 31.07471 164.603793 31.07471 L 195.896818 31.07471 C 196.755216 31.07471 197.184415 31.509682 197.184415 32.377704 L 197.184415 33.882787 C 197.184415 34.752732 197.619388 35.18578 198.487409 35.18578 L 199.992492 35.18578 C 200.862437 35.18578 201.29741 35.614979 201.29741 36.473377 L 201.29741 77.695716 C 201.29741 78.565662 200.862437 79.000635 199.992492 79.000635 L 188.225129 79.000635 C 187.355183 79.000635 186.92021 78.565662 186.92021 77.695716 L 186.92021 76.192558 C 186.92021 75.322612 186.485237 74.887639 185.617216 74.887639 L 184.112133 74.887639 C 183.242187 74.887639 182.809139 75.322612 182.809139 76.192558 L 182.809139 77.695716 C 182.809139 78.565662 182.374166 79.000635 181.504221 79.000635 L 161.510867 79.000635 C 160.654394 79.000635 160.225195 78.565662 160.225195 77.695716 Z M 214.315801 77.695716 L 214.315801 76.192558 C 214.315801 75.322612 213.880829 74.887639 213.010883 74.887639 L 211.507724 74.887639 C 210.637779 74.887639 210.202806 74.452666 210.202806 73.584645 L 210.202806 61.815358 C 210.202806 60.947337 210.637779 60.512364 211.507724 60.512364 L 227.388083 60.512364 C 228.256104 60.512364 228.691077 60.947337 228.691077 61.815358 L 228.691077 73.584645 C 228.691077 74.452666 229.12605 74.887639 229.995995 74.887639 L 231.499154 74.887639 C 232.357552 74.887639 232.78675 74.452666 232.78675 73.584645 L 232.78675 72.079562 C 232.78675 71.209616 233.221723 70.774644 234.091669 70.774644 L 235.66219 70.774644 C 236.532136 70.774644 236.967109 70.347369 236.967109 69.488972 L 236.967109 62.635262 C 236.967109 61.765316 236.532136 61.330344 235.66219 61.330344 L 234.157107 61.330344 C 233.300634 61.330344 232.871435 60.895371 232.871435 60.02735 L 232.871435 58.522267 C 232.871435 57.652321 232.436463 57.219273 231.566517 57.219273 L 215.603398 57.219273 C 214.745 57.219273 214.315801 56.790074 214.315801 55.931676 L 214.315801 54.426593 C 214.315801 53.558572 213.880829 53.123599 213.010883 53.123599 L 211.507724 53.123599 C 210.637779 53.123599 210.202806 52.688626 210.202806 51.818681 L 210.202806 36.473377 C 210.202806 35.614979 210.637779 35.18578 211.507724 35.18578 L 212.527794 35.18578 C 213.395815 35.18578 213.830787 34.752732 213.830787 33.882787 L 213.830787 32.377704 C 213.830787 31.509682 214.26576 31.07471 215.133781 31.07471 L 249.302246 31.07471 C 250.160644 31.07471 250.589843 31.509682 250.589843 32.377704 L 250.589843 33.882787 C 250.589843 34.752732 251.024816 35.18578 251.894762 35.18578 L 253.39792 35.18578 C 254.267866 35.18578 254.702839 35.614979 254.702839 36.473377 L 254.702839 48.258062 C 254.702839 49.128008 254.267866 49.562981 253.39792 49.562981 L 242.315735 49.562981 C 241.44579 49.562981 241.010817 49.128008 241.010817 48.258062 L 241.010817 46.754904 C 241.010817 45.884958 240.577769 45.449985 239.707823 45.449985 L 238.20274 45.449985 C 237.334719 45.449985 236.899746 45.015012 236.899746 44.146991 L 236.899746 36.473377 C 236.899746 35.614979 236.464773 35.18578 235.594827 35.18578 L 234.091669 35.18578 C 233.221723 35.18578 232.78675 35.614979 232.78675 36.473377 L 232.78675 37.995782 C 232.78675 38.852255 232.357552 39.281454 231.499154 39.281454 L 229.995995 39.281454 C 229.12605 39.281454 228.691077 39.716427 228.691077 40.586373 L 228.691077 47.70761 C 228.691077 48.575631 229.12605 49.010604 229.995995 49.010604 L 231.499154 49.010604 C 232.357552 49.010604 232.78675 49.445576 232.78675 50.315522 L 232.78675 51.818681 C 232.78675 52.688626 233.221723 53.123599 234.091669 53.123599 L 249.369609 53.123599 C 250.228007 53.123599 250.657206 53.558572 250.657206 54.426593 L 250.657206 55.931676 C 250.657206 56.790074 251.092179 57.219273 251.9602 57.219273 L 253.465283 57.219273 C 254.335229 57.219273 254.768277 57.652321 254.768277 58.522267 L 254.768277 73.584645 C 254.768277 74.452666 254.335229 74.887639 253.465283 74.887639 L 251.9602 74.887639 C 251.092179 74.887639 250.657206 75.322612 250.657206 76.192558 L 250.657206 77.695716 C 250.657206 78.565662 250.228007 79.000635 249.369609 79.000635 L 215.603398 79.000635 C 214.745 79.000635 214.315801 78.565662 214.315801 77.695716 Z M 272.502082 77.695716 L 272.502082 76.192558 C 272.502082 75.322612 272.067109 74.887639 271.199088 74.887639 L 269.694005 74.887639 C 268.824059 74.887639 268.389086 74.452666 268.389086 73.584645 L 268.389086 72.079562 C 268.389086 71.209616 267.959887 70.774644 267.103414 70.774644 L 265.598331 70.774644 C 264.728385 70.774644 264.293413 70.347369 264.293413 69.488972 L 264.293413 40.586373 C 264.293413 39.716427 264.728385 39.281454 265.598331 39.281454 L 267.103414 39.281454 C 267.959887 39.281454 268.389086 38.852255 268.389086 37.995782 L 268.389086 36.473377 C 268.389086 35.614979 268.824059 35.18578 269.694005 35.18578 L 271.199088 35.18578 C 272.067109 35.18578 272.502082 34.752732 272.502082 33.882787 L 272.502082 32.377704 C 272.502082 31.509682 272.937055 31.07471 273.805076 31.07471 L 299.966961 31.07471 C 300.836906 31.07471 301.269955 31.509682 301.269955 32.377704 L 301.269955 33.882787 C 301.269955 34.752732 301.699153 35.18578 302.557551 35.18578 L 304.062634 35.18578 C 304.93258 35.18578 305.365628 35.614979 305.365628 36.473377 L 305.365628 37.995782 C 305.365628 38.852255 305.800601 39.281454 306.670547 39.281454 L 308.17563 39.281454 C 309.043651 39.281454 309.478624 39.716427 309.478624 40.586373 L 309.478624 51.685879 C 309.478624 52.5539 309.043651 52.988873 308.17563 52.988873 L 306.670547 52.988873 C 305.800601 52.988873 305.365628 53.418072 305.365628 54.27647 L 305.365628 55.781553 C 305.365628 56.649574 304.93258 57.084547 304.062634 57.084547 L 284.06928 57.084547 C 283.210882 57.084547 282.781684 57.519519 282.781684 58.389465 L 282.781684 73.584645 C 282.781684 74.452666 283.210882 74.887639 284.06928 74.887639 L 285.591685 74.887639 C 286.448158 74.887639 286.877357 74.452666 286.877357 73.584645 L 286.877357 72.079562 C 286.877357 71.209616 287.31233 70.774644 288.182276 70.774644 L 289.687359 70.774644 C 290.55538 70.774644 290.990353 70.347369 290.990353 69.488972 L 290.990353 64.758161 C 290.990353 63.888215 291.425326 63.453242 292.293347 63.453242 L 308.17563 63.453242 C 309.043651 63.453242 309.478624 63.888215 309.478624 64.758161 L 309.478624 69.488972 C 309.478624 70.347369 309.043651 70.774644 308.17563 70.774644 L 306.670547 70.774644 C 305.800601 70.774644 305.365628 71.209616 305.365628 72.079562 L 305.365628 73.584645 C 305.365628 74.452666 304.93258 74.887639 304.062634 74.887639 L 302.557551 74.887639 C 301.699153 74.887639 301.269955 75.322612 301.269955 76.192558 L 301.269955 77.695716 C 301.269955 78.565662 300.836906 79.000635 299.966961 79.000635 L 273.805076 79.000635 C 272.937055 79.000635 272.502082 78.565662 272.502082 77.695716 Z M 284.06928 52.988873 L 289.687359 52.988873 C 290.55538 52.988873 290.990353 52.5539 290.990353 51.685879 L 290.990353 36.473377 C 290.990353 35.614979 290.55538 35.18578 289.687359 35.18578 L 288.182276 35.18578 C 287.31233 35.18578 286.877357 35.614979 286.877357 36.473377 L 286.877357 37.995782 C 286.877357 38.852255 286.448158 39.281454 285.591685 39.281454 L 284.06928 39.281454 C 283.210882 39.281454 282.781684 39.716427 282.781684 40.586373 L 282.781684 51.685879 C 282.781684 52.5539 283.210882 52.988873 284.06928 52.988873 Z M 324.537153 77.695716 L 324.537153 76.192558 C 324.537153 75.322612 324.10218 74.887639 323.232234 74.887639 L 321.729076 74.887639 C 320.870678 74.887639 320.441479 74.452666 320.441479 73.584645 L 320.441479 36.406014 C 320.441479 35.537993 320.006507 35.10302 319.138485 35.10302 L 316.948224 35.10302 C 316.078278 35.10302 315.643305 34.673821 315.643305 33.815424 L 315.643305 32.377704 C 315.643305 31.509682 316.078278 31.07471 316.948224 31.07471 L 319.138485 31.07471 C 320.006507 31.07471 320.441479 30.639737 320.441479 29.769791 L 320.441479 20.258128 C 320.441479 19.390107 320.870678 18.955134 321.729076 18.955134 L 337.626756 18.955134 C 338.48323 18.955134 338.912428 19.390107 338.912428 20.258128 L 338.912428 29.769791 C 338.912428 30.639737 339.347401 31.07471 340.217347 31.07471 L 347.136495 31.07471 C 348.006441 31.07471 348.441413 31.509682 348.441413 32.377704 L 348.441413 33.815424 C 348.441413 34.673821 348.006441 35.10302 347.136495 35.10302 L 340.217347 35.10302 C 339.347401 35.10302 338.912428 35.537993 338.912428 36.406014 L 338.912428 73.584645 C 338.912428 74.452666 339.347401 74.887639 340.217347 74.887639 L 341.720505 74.887639 C 342.590451 74.887639 343.025424 74.452666 343.025424 73.584645 L 343.025424 66.613532 C 343.025424 65.743586 343.460397 65.308613 344.328418 65.308613 L 355.427924 65.308613 C 356.286322 65.308613 356.715521 65.743586 356.715521 66.613532 L 356.715521 73.584645 C 356.715521 74.452666 356.286322 74.887639 355.427924 74.887639 L 351.867306 74.887639 C 350.999285 74.887639 350.564312 75.322612 350.564312 76.192558 L 350.564312 77.695716 C 350.564312 78.565662 350.129339 79.000635 349.261318 79.000635 L 325.840147 79.000635 C 324.972126 79.000635 324.537153 78.565662 324.537153 77.695716 Z M 324.537153 77.695716 " stroke="#242424" stroke-width="9.415491" stroke-opacity="1" stroke-miterlimit="4"/><g fill="#c1ff72" fill-opacity="1"><g transform="translate(55.69676, 262.963556)"><g><path d="M 9.734375 -2.640625 L 9.734375 -127.4375 C 9.734375 -129.195312 10.613281 -130.078125 12.375 -130.078125 L 82.125 -130.078125 C 83.882812 -130.078125 84.765625 -129.195312 84.765625 -127.4375 L 84.765625 -124.375 C 84.765625 -122.613281 85.644531 -121.734375 87.40625 -121.734375 L 90.46875 -121.734375 C 92.226562 -121.734375 93.109375 -120.851562 93.109375 -119.09375 L 93.109375 -116.03125 C 93.109375 -114.28125 93.988281 -113.40625 95.75 -113.40625 L 98.8125 -113.40625 C 100.570312 -113.40625 101.453125 -112.523438 101.453125 -110.765625 L 101.453125 -19.3125 C 101.453125 -17.550781 100.570312 -16.671875 98.8125 -16.671875 L 95.75 -16.671875 C 93.988281 -16.671875 93.109375 -15.789062 93.109375 -14.03125 L 93.109375 -10.984375 C 93.109375 -9.222656 92.226562 -8.34375 90.46875 -8.34375 L 87.40625 -8.34375 C 85.644531 -8.34375 84.765625 -7.460938 84.765625 -5.703125 L 84.765625 -2.640625 C 84.765625 -0.878906 83.882812 0 82.125 0 L 12.375 0 C 10.613281 0 9.734375 -0.878906 9.734375 -2.640625 Z M 47.25 -119.09375 L 47.25 -10.984375 C 47.25 -9.222656 48.128906 -8.34375 49.890625 -8.34375 L 52.953125 -8.34375 C 54.710938 -8.34375 55.59375 -9.222656 55.59375 -10.984375 L 55.59375 -14.03125 C 55.59375 -15.789062 56.472656 -16.671875 58.234375 -16.671875 L 61.28125 -16.671875 C 63.039062 -16.671875 63.921875 -17.550781 63.921875 -19.3125 L 63.921875 -110.765625 C 63.921875 -112.523438 63.039062 -113.40625 61.28125 -113.40625 L 58.234375 -113.40625 C 56.472656 -113.40625 55.59375 -114.28125 55.59375 -116.03125 L 55.59375 -119.09375 C 55.59375 -120.851562 54.710938 -121.734375 52.953125 -121.734375 L 49.890625 -121.734375 C 48.128906 -121.734375 47.25 -120.851562 47.25 -119.09375 Z M 47.25 -119.09375 "/></g></g></g><g fill="#c1ff72" fill-opacity="1"><g transform="translate(166.867153, 262.963556)"><g><path d="M 58.5 -44.328125 L 47.109375 -44.328125 C 45.347656 -44.328125 44.46875 -43.445312 44.46875 -41.6875 L 44.46875 -10.984375 C 44.46875 -9.222656 45.347656 -8.34375 47.109375 -8.34375 L 50.171875 -8.34375 C 51.929688 -8.34375 52.8125 -9.222656 52.8125 -10.984375 L 52.8125 -14.03125 C 52.8125 -15.789062 53.691406 -16.671875 55.453125 -16.671875 L 58.5 -16.671875 C 60.257812 -16.671875 61.140625 -17.550781 61.140625 -19.3125 L 61.140625 -41.6875 C 61.140625 -43.445312 60.257812 -44.328125 58.5 -44.328125 Z M 15.28125 -2.640625 L 15.28125 -5.703125 C 15.28125 -7.460938 14.398438 -8.34375 12.640625 -8.34375 L 9.59375 -8.34375 C 7.832031 -8.34375 6.953125 -9.222656 6.953125 -10.984375 L 6.953125 -41.6875 C 6.953125 -43.445312 7.832031 -44.328125 9.59375 -44.328125 L 12.640625 -44.328125 C 14.398438 -44.328125 15.28125 -45.207031 15.28125 -46.96875 L 15.28125 -50.03125 C 15.28125 -51.789062 16.160156 -52.671875 17.921875 -52.671875 L 50.171875 -52.671875 C 51.929688 -52.671875 52.8125 -53.550781 52.8125 -55.3125 L 52.8125 -58.359375 C 52.8125 -60.117188 53.691406 -61 55.453125 -61 L 62.671875 -61 C 64.429688 -61 65.3125 -61.878906 65.3125 -63.640625 L 65.3125 -86.296875 C 65.3125 -88.054688 64.429688 -88.9375 62.671875 -88.9375 L 55.453125 -88.9375 C 53.691406 -88.9375 52.8125 -88.054688 52.8125 -86.296875 L 52.8125 -74.90625 C 52.8125 -73.144531 51.929688 -72.265625 50.171875 -72.265625 L 47.109375 -72.265625 C 45.347656 -72.265625 44.46875 -71.382812 44.46875 -69.625 L 44.46875 -62.390625 C 44.46875 -60.628906 43.585938 -59.75 41.828125 -59.75 L 13.765625 -59.75 C 12.003906 -59.75 11.125 -60.628906 11.125 -62.390625 L 11.125 -86.296875 C 11.125 -88.054688 12.003906 -88.9375 13.765625 -88.9375 L 18.90625 -88.9375 C 20.664062 -88.9375 21.546875 -89.816406 21.546875 -91.578125 L 21.546875 -94.640625 C 21.546875 -96.398438 22.425781 -97.28125 24.1875 -97.28125 L 87.6875 -97.28125 C 89.445312 -97.28125 90.328125 -96.398438 90.328125 -94.640625 L 90.328125 -91.578125 C 90.328125 -89.816406 91.207031 -88.9375 92.96875 -88.9375 L 96.03125 -88.9375 C 97.789062 -88.9375 98.671875 -88.054688 98.671875 -86.296875 L 98.671875 -2.640625 C 98.671875 -0.878906 97.789062 0 96.03125 0 L 72.125 0 C 70.363281 0 69.484375 -0.878906 69.484375 -2.640625 L 69.484375 -5.703125 C 69.484375 -7.460938 68.601562 -8.34375 66.84375 -8.34375 L 63.78125 -8.34375 C 62.019531 -8.34375 61.140625 -7.460938 61.140625 -5.703125 L 61.140625 -2.640625 C 61.140625 -0.878906 60.257812 0 58.5 0 L 17.921875 0 C 16.160156 0 15.28125 -0.878906 15.28125 -2.640625 Z M 15.28125 -2.640625 "/></g></g></g><g fill="#c1ff72" fill-opacity="1"><g transform="translate(275.258269, 262.963556)"><g><path d="M 23.625 -2.640625 L 23.625 -5.703125 C 23.625 -7.460938 22.742188 -8.34375 20.984375 -8.34375 L 17.921875 -8.34375 C 16.160156 -8.34375 15.28125 -9.222656 15.28125 -10.984375 L 15.28125 -86.4375 C 15.28125 -88.195312 14.398438 -89.078125 12.640625 -89.078125 L 8.203125 -89.078125 C 6.441406 -89.078125 5.5625 -89.957031 5.5625 -91.71875 L 5.5625 -94.640625 C 5.5625 -96.398438 6.441406 -97.28125 8.203125 -97.28125 L 12.640625 -97.28125 C 14.398438 -97.28125 15.28125 -98.160156 15.28125 -99.921875 L 15.28125 -119.234375 C 15.28125 -120.992188 16.160156 -121.875 17.921875 -121.875 L 50.171875 -121.875 C 51.929688 -121.875 52.8125 -120.992188 52.8125 -119.234375 L 52.8125 -99.921875 C 52.8125 -98.160156 53.691406 -97.28125 55.453125 -97.28125 L 69.484375 -97.28125 C 71.242188 -97.28125 72.125 -96.398438 72.125 -94.640625 L 72.125 -91.71875 C 72.125 -89.957031 71.242188 -89.078125 69.484375 -89.078125 L 55.453125 -89.078125 C 53.691406 -89.078125 52.8125 -88.195312 52.8125 -86.4375 L 52.8125 -10.984375 C 52.8125 -9.222656 53.691406 -8.34375 55.453125 -8.34375 L 58.5 -8.34375 C 60.257812 -8.34375 61.140625 -9.222656 61.140625 -10.984375 L 61.140625 -25.15625 C 61.140625 -26.914062 62.019531 -27.796875 63.78125 -27.796875 L 86.296875 -27.796875 C 88.054688 -27.796875 88.9375 -26.914062 88.9375 -25.15625 L 88.9375 -10.984375 C 88.9375 -9.222656 88.054688 -8.34375 86.296875 -8.34375 L 79.078125 -8.34375 C 77.316406 -8.34375 76.4375 -7.460938 76.4375 -5.703125 L 76.4375 -2.640625 C 76.4375 -0.878906 75.554688 0 73.796875 0 L 26.265625 0 C 24.503906 0 23.625 -0.878906 23.625 -2.640625 Z M 23.625 -2.640625 "/></g></g></g><g fill="#c1ff72" fill-opacity="1"><g transform="translate(365.584209, 262.963556)"><g><path d="M 58.5 -44.328125 L 47.109375 -44.328125 C 45.347656 -44.328125 44.46875 -43.445312 44.46875 -41.6875 L 44.46875 -10.984375 C 44.46875 -9.222656 45.347656 -8.34375 47.109375 -8.34375 L 50.171875 -8.34375 C 51.929688 -8.34375 52.8125 -9.222656 52.8125 -10.984375 L 52.8125 -14.03125 C 52.8125 -15.789062 53.691406 -16.671875 55.453125 -16.671875 L 58.5 -16.671875 C 60.257812 -16.671875 61.140625 -17.550781 61.140625 -19.3125 L 61.140625 -41.6875 C 61.140625 -43.445312 60.257812 -44.328125 58.5 -44.328125 Z M 15.28125 -2.640625 L 15.28125 -5.703125 C 15.28125 -7.460938 14.398438 -8.34375 12.640625 -8.34375 L 9.59375 -8.34375 C 7.832031 -8.34375 6.953125 -9.222656 6.953125 -10.984375 L 6.953125 -41.6875 C 6.953125 -43.445312 7.832031 -44.328125 9.59375 -44.328125 L 12.640625 -44.328125 C 14.398438 -44.328125 15.28125 -45.207031 15.28125 -46.96875 L 15.28125 -50.03125 C 15.28125 -51.789062 16.160156 -52.671875 17.921875 -52.671875 L 50.171875 -52.671875 C 51.929688 -52.671875 52.8125 -53.550781 52.8125 -55.3125 L 52.8125 -58.359375 C 52.8125 -60.117188 53.691406 -61 55.453125 -61 L 62.671875 -61 C 64.429688 -61 65.3125 -61.878906 65.3125 -63.640625 L 65.3125 -86.296875 C 65.3125 -88.054688 64.429688 -88.9375 62.671875 -88.9375 L 55.453125 -88.9375 C 53.691406 -88.9375 52.8125 -88.054688 52.8125 -86.296875 L 52.8125 -74.90625 C 52.8125 -73.144531 51.929688 -72.265625 50.171875 -72.265625 L 47.109375 -72.265625 C 45.347656 -72.265625 44.46875 -71.382812 44.46875 -69.625 L 44.46875 -62.390625 C 44.46875 -60.628906 43.585938 -59.75 41.828125 -59.75 L 13.765625 -59.75 C 12.003906 -59.75 11.125 -60.628906 11.125 -62.390625 L 11.125 -86.296875 C 11.125 -88.054688 12.003906 -88.9375 13.765625 -88.9375 L 18.90625 -88.9375 C 20.664062 -88.9375 21.546875 -89.816406 21.546875 -91.578125 L 21.546875 -94.640625 C 21.546875 -96.398438 22.425781 -97.28125 24.1875 -97.28125 L 87.6875 -97.28125 C 89.445312 -97.28125 90.328125 -96.398438 90.328125 -94.640625 L 90.328125 -91.578125 C 90.328125 -89.816406 91.207031 -88.9375 92.96875 -88.9375 L 96.03125 -88.9375 C 97.789062 -88.9375 98.671875 -88.054688 98.671875 -86.296875 L 98.671875 -2.640625 C 98.671875 -0.878906 97.789062 0 96.03125 0 L 72.125 0 C 70.363281 0 69.484375 -0.878906 69.484375 -2.640625 L 69.484375 -5.703125 C 69.484375 -7.460938 68.601562 -8.34375 66.84375 -8.34375 L 63.78125 -8.34375 C 62.019531 -8.34375 61.140625 -7.460938 61.140625 -5.703125 L 61.140625 -2.640625 C 61.140625 -0.878906 60.257812 0 58.5 0 L 17.921875 0 C 16.160156 0 15.28125 -0.878906 15.28125 -2.640625 Z M 15.28125 -2.640625 "/></g></g></g><g fill="#c1ff72" fill-opacity="1"><g transform="translate(473.975324, 262.963556)"><g><path d="M 16.671875 -2.640625 L 16.671875 -5.703125 C 16.671875 -7.460938 15.789062 -8.34375 14.03125 -8.34375 L 10.984375 -8.34375 C 9.222656 -8.34375 8.34375 -9.222656 8.34375 -10.984375 L 8.34375 -34.875 C 8.34375 -36.632812 9.222656 -37.515625 10.984375 -37.515625 L 43.21875 -37.515625 C 44.976562 -37.515625 45.859375 -36.632812 45.859375 -34.875 L 45.859375 -10.984375 C 45.859375 -9.222656 46.738281 -8.34375 48.5 -8.34375 L 51.5625 -8.34375 C 53.320312 -8.34375 54.203125 -9.222656 54.203125 -10.984375 L 54.203125 -14.03125 C 54.203125 -15.789062 55.082031 -16.671875 56.84375 -16.671875 L 60.03125 -16.671875 C 61.789062 -16.671875 62.671875 -17.550781 62.671875 -19.3125 L 62.671875 -33.21875 C 62.671875 -34.976562 61.789062 -35.859375 60.03125 -35.859375 L 56.984375 -35.859375 C 55.222656 -35.859375 54.34375 -36.738281 54.34375 -38.5 L 54.34375 -41.546875 C 54.34375 -43.304688 53.460938 -44.1875 51.703125 -44.1875 L 19.3125 -44.1875 C 17.550781 -44.1875 16.671875 -45.066406 16.671875 -46.828125 L 16.671875 -49.890625 C 16.671875 -51.648438 15.789062 -52.53125 14.03125 -52.53125 L 10.984375 -52.53125 C 9.222656 -52.53125 8.34375 -53.410156 8.34375 -55.171875 L 8.34375 -86.296875 C 8.34375 -88.054688 9.222656 -88.9375 10.984375 -88.9375 L 13.0625 -88.9375 C 14.820312 -88.9375 15.703125 -89.816406 15.703125 -91.578125 L 15.703125 -94.640625 C 15.703125 -96.398438 16.582031 -97.28125 18.34375 -97.28125 L 87.6875 -97.28125 C 89.445312 -97.28125 90.328125 -96.398438 90.328125 -94.640625 L 90.328125 -91.578125 C 90.328125 -89.816406 91.207031 -88.9375 92.96875 -88.9375 L 96.03125 -88.9375 C 97.789062 -88.9375 98.671875 -88.054688 98.671875 -86.296875 L 98.671875 -62.390625 C 98.671875 -60.628906 97.789062 -59.75 96.03125 -59.75 L 73.515625 -59.75 C 71.753906 -59.75 70.875 -60.628906 70.875 -62.390625 L 70.875 -65.453125 C 70.875 -67.210938 69.992188 -68.09375 68.234375 -68.09375 L 65.171875 -68.09375 C 63.410156 -68.09375 62.53125 -68.972656 62.53125 -70.734375 L 62.53125 -86.296875 C 62.53125 -88.054688 61.648438 -88.9375 59.890625 -88.9375 L 56.84375 -88.9375 C 55.082031 -88.9375 54.203125 -88.054688 54.203125 -86.296875 L 54.203125 -83.25 C 54.203125 -81.488281 53.320312 -80.609375 51.5625 -80.609375 L 48.5 -80.609375 C 46.738281 -80.609375 45.859375 -79.726562 45.859375 -77.96875 L 45.859375 -63.515625 C 45.859375 -61.753906 46.738281 -60.875 48.5 -60.875 L 51.5625 -60.875 C 53.320312 -60.875 54.203125 -59.992188 54.203125 -58.234375 L 54.203125 -55.171875 C 54.203125 -53.410156 55.082031 -52.53125 56.84375 -52.53125 L 87.828125 -52.53125 C 89.585938 -52.53125 90.46875 -51.648438 90.46875 -49.890625 L 90.46875 -46.828125 C 90.46875 -45.066406 91.347656 -44.1875 93.109375 -44.1875 L 96.171875 -44.1875 C 97.929688 -44.1875 98.8125 -43.304688 98.8125 -41.546875 L 98.8125 -10.984375 C 98.8125 -9.222656 97.929688 -8.34375 96.171875 -8.34375 L 93.109375 -8.34375 C 91.347656 -8.34375 90.46875 -7.460938 90.46875 -5.703125 L 90.46875 -2.640625 C 90.46875 -0.878906 89.585938 0 87.828125 0 L 19.3125 0 C 17.550781 0 16.671875 -0.878906 16.671875 -2.640625 Z M 16.671875 -2.640625 "/></g></g></g><g fill="#c1ff72" fill-opacity="1"><g transform="translate(582.36644, 262.963556)"><g><path d="M 26.40625 -2.640625 L 26.40625 -5.703125 C 26.40625 -7.460938 25.523438 -8.34375 23.765625 -8.34375 L 20.703125 -8.34375 C 18.941406 -8.34375 18.0625 -9.222656 18.0625 -10.984375 L 18.0625 -14.03125 C 18.0625 -15.789062 17.179688 -16.671875 15.421875 -16.671875 L 12.375 -16.671875 C 10.613281 -16.671875 9.734375 -17.550781 9.734375 -19.3125 L 9.734375 -77.96875 C 9.734375 -79.726562 10.613281 -80.609375 12.375 -80.609375 L 15.421875 -80.609375 C 17.179688 -80.609375 18.0625 -81.488281 18.0625 -83.25 L 18.0625 -86.296875 C 18.0625 -88.054688 18.941406 -88.9375 20.703125 -88.9375 L 23.765625 -88.9375 C 25.523438 -88.9375 26.40625 -89.816406 26.40625 -91.578125 L 26.40625 -94.640625 C 26.40625 -96.398438 27.285156 -97.28125 29.046875 -97.28125 L 82.125 -97.28125 C 83.882812 -97.28125 84.765625 -96.398438 84.765625 -94.640625 L 84.765625 -91.578125 C 84.765625 -89.816406 85.644531 -88.9375 87.40625 -88.9375 L 90.46875 -88.9375 C 92.226562 -88.9375 93.109375 -88.054688 93.109375 -86.296875 L 93.109375 -83.25 C 93.109375 -81.488281 93.988281 -80.609375 95.75 -80.609375 L 98.8125 -80.609375 C 100.570312 -80.609375 101.453125 -79.726562 101.453125 -77.96875 L 101.453125 -55.453125 C 101.453125 -53.691406 100.570312 -52.8125 98.8125 -52.8125 L 95.75 -52.8125 C 93.988281 -52.8125 93.109375 -51.929688 93.109375 -50.171875 L 93.109375 -47.109375 C 93.109375 -45.347656 92.226562 -44.46875 90.46875 -44.46875 L 49.890625 -44.46875 C 48.128906 -44.46875 47.25 -43.585938 47.25 -41.828125 L 47.25 -10.984375 C 47.25 -9.222656 48.128906 -8.34375 49.890625 -8.34375 L 52.953125 -8.34375 C 54.710938 -8.34375 55.59375 -9.222656 55.59375 -10.984375 L 55.59375 -14.03125 C 55.59375 -15.789062 56.472656 -16.671875 58.234375 -16.671875 L 61.28125 -16.671875 C 63.039062 -16.671875 63.921875 -17.550781 63.921875 -19.3125 L 63.921875 -28.90625 C 63.921875 -30.664062 64.800781 -31.546875 66.5625 -31.546875 L 98.8125 -31.546875 C 100.570312 -31.546875 101.453125 -30.664062 101.453125 -28.90625 L 101.453125 -19.3125 C 101.453125 -17.550781 100.570312 -16.671875 98.8125 -16.671875 L 95.75 -16.671875 C 93.988281 -16.671875 93.109375 -15.789062 93.109375 -14.03125 L 93.109375 -10.984375 C 93.109375 -9.222656 92.226562 -8.34375 90.46875 -8.34375 L 87.40625 -8.34375 C 85.644531 -8.34375 84.765625 -7.460938 84.765625 -5.703125 L 84.765625 -2.640625 C 84.765625 -0.878906 83.882812 0 82.125 0 L 29.046875 0 C 27.285156 0 26.40625 -0.878906 26.40625 -2.640625 Z M 49.890625 -52.8125 L 61.28125 -52.8125 C 63.039062 -52.8125 63.921875 -53.691406 63.921875 -55.453125 L 63.921875 -86.296875 C 63.921875 -88.054688 63.039062 -88.9375 61.28125 -88.9375 L 58.234375 -88.9375 C 56.472656 -88.9375 55.59375 -88.054688 55.59375 -86.296875 L 55.59375 -83.25 C 55.59375 -81.488281 54.710938 -80.609375 52.953125 -80.609375 L 49.890625 -80.609375 C 48.128906 -80.609375 47.25 -79.726562 47.25 -77.96875 L 47.25 -55.453125 C 47.25 -53.691406 48.128906 -52.8125 49.890625 -52.8125 Z M 49.890625 -52.8125 "/></g></g></g><g fill="#c1ff72" fill-opacity="1"><g transform="translate(690.757556, 262.963556)"><g><path d="M 23.625 -2.640625 L 23.625 -5.703125 C 23.625 -7.460938 22.742188 -8.34375 20.984375 -8.34375 L 17.921875 -8.34375 C 16.160156 -8.34375 15.28125 -9.222656 15.28125 -10.984375 L 15.28125 -86.4375 C 15.28125 -88.195312 14.398438 -89.078125 12.640625 -89.078125 L 8.203125 -89.078125 C 6.441406 -89.078125 5.5625 -89.957031 5.5625 -91.71875 L 5.5625 -94.640625 C 5.5625 -96.398438 6.441406 -97.28125 8.203125 -97.28125 L 12.640625 -97.28125 C 14.398438 -97.28125 15.28125 -98.160156 15.28125 -99.921875 L 15.28125 -119.234375 C 15.28125 -120.992188 16.160156 -121.875 17.921875 -121.875 L 50.171875 -121.875 C 51.929688 -121.875 52.8125 -120.992188 52.8125 -119.234375 L 52.8125 -99.921875 C 52.8125 -98.160156 53.691406 -97.28125 55.453125 -97.28125 L 69.484375 -97.28125 C 71.242188 -97.28125 72.125 -96.398438 72.125 -94.640625 L 72.125 -91.71875 C 72.125 -89.957031 71.242188 -89.078125 69.484375 -89.078125 L 55.453125 -89.078125 C 53.691406 -89.078125 52.8125 -88.195312 52.8125 -86.4375 L 52.8125 -10.984375 C 52.8125 -9.222656 53.691406 -8.34375 55.453125 -8.34375 L 58.5 -8.34375 C 60.257812 -8.34375 61.140625 -9.222656 61.140625 -10.984375 L 61.140625 -25.15625 C 61.140625 -26.914062 62.019531 -27.796875 63.78125 -27.796875 L 86.296875 -27.796875 C 88.054688 -27.796875 88.9375 -26.914062 88.9375 -25.15625 L 88.9375 -10.984375 C 88.9375 -9.222656 88.054688 -8.34375 86.296875 -8.34375 L 79.078125 -8.34375 C 77.316406 -8.34375 76.4375 -7.460938 76.4375 -5.703125 L 76.4375 -2.640625 C 76.4375 -0.878906 75.554688 0 73.796875 0 L 26.265625 0 C 24.503906 0 23.625 -0.878906 23.625 -2.640625 Z M 23.625 -2.640625 "/></g></g></g></svg>