<svg xmlns="http://www.w3.org/2000/svg" xmlns:xlink="http://www.w3.org/1999/xlink" width="500" zoomAndPan="magnify" viewBox="0 0 375 374.999991" height="500" preserveAspectRatio="xMidYMid meet" version="1.0"><defs><g/></defs><rect x="-37.5" width="450" fill="#ffffff" y="-37.499999" height="449.999989" fill-opacity="1"/><rect x="-37.5" width="450" fill="#ffffff" y="-37.499999" height="449.999989" fill-opacity="1"/><g fill="#242424" fill-opacity="1"><g transform="translate(75.861328, 255.859934)"><g><path d="M 4.484375 -1.21875 L 4.484375 -58.671875 C 4.484375 -59.484375 4.882812 -59.890625 5.6875 -59.890625 L 20.53125 -59.890625 C 21.34375 -59.890625 21.75 -59.484375 21.75 -58.671875 L 21.75 -5.0625 C 21.75 -4.25 22.15625 -3.84375 22.96875 -3.84375 L 24.375 -3.84375 C 25.1875 -3.84375 25.59375 -4.25 25.59375 -5.0625 L 25.59375 -12.21875 C 25.59375 -13.03125 26 -13.4375 26.8125 -13.4375 L 28.28125 -13.4375 C 29.09375 -13.4375 29.5 -13.84375 29.5 -14.65625 L 29.5 -16.0625 C 29.5 -16.875 29.90625 -17.28125 30.71875 -17.28125 L 41.65625 -17.28125 C 42.46875 -17.28125 42.875 -16.875 42.875 -16.0625 L 42.875 -5.0625 C 42.875 -4.25 42.46875 -3.84375 41.65625 -3.84375 L 40.25 -3.84375 C 39.4375 -3.84375 39.03125 -3.4375 39.03125 -2.625 L 39.03125 -1.21875 C 39.03125 -0.40625 38.625 0 37.8125 0 L 5.6875 0 C 4.882812 0 4.484375 -0.40625 4.484375 -1.21875 Z M 4.484375 -1.21875 "/></g></g></g><g fill="#242424" fill-opacity="1"><g transform="translate(120.642182, 255.859934)"><g><path d="M 12.15625 -1.21875 L 12.15625 -2.625 C 12.15625 -3.4375 11.75 -3.84375 10.9375 -3.84375 L 9.53125 -3.84375 C 8.71875 -3.84375 8.3125 -4.25 8.3125 -5.0625 L 8.3125 -6.46875 C 8.3125 -7.269531 7.910156 -7.671875 7.109375 -7.671875 L 5.6875 -7.671875 C 4.882812 -7.671875 4.484375 -8.078125 4.484375 -8.890625 L 4.484375 -35.890625 C 4.484375 -36.703125 4.882812 -37.109375 5.6875 -37.109375 L 7.109375 -37.109375 C 7.910156 -37.109375 8.3125 -37.515625 8.3125 -38.328125 L 8.3125 -39.734375 C 8.3125 -40.546875 8.71875 -40.953125 9.53125 -40.953125 L 10.9375 -40.953125 C 11.75 -40.953125 12.15625 -41.359375 12.15625 -42.171875 L 12.15625 -43.578125 C 12.15625 -44.390625 12.5625 -44.796875 13.375 -44.796875 L 37.8125 -44.796875 C 38.625 -44.796875 39.03125 -44.390625 39.03125 -43.578125 L 39.03125 -42.171875 C 39.03125 -41.359375 39.4375 -40.953125 40.25 -40.953125 L 41.65625 -40.953125 C 42.46875 -40.953125 42.875 -40.546875 42.875 -39.734375 L 42.875 -38.328125 C 42.875 -37.515625 43.273438 -37.109375 44.078125 -37.109375 L 45.5 -37.109375 C 46.300781 -37.109375 46.703125 -36.703125 46.703125 -35.890625 L 46.703125 -8.890625 C 46.703125 -8.078125 46.300781 -7.671875 45.5 -7.671875 L 44.078125 -7.671875 C 43.273438 -7.671875 42.875 -7.269531 42.875 -6.46875 L 42.875 -5.0625 C 42.875 -4.25 42.46875 -3.84375 41.65625 -3.84375 L 40.25 -3.84375 C 39.4375 -3.84375 39.03125 -3.4375 39.03125 -2.625 L 39.03125 -1.21875 C 39.03125 -0.40625 38.625 0 37.8125 0 L 13.375 0 C 12.5625 0 12.15625 -0.40625 12.15625 -1.21875 Z M 26.8125 -7.671875 L 28.21875 -7.671875 C 29.03125 -7.671875 29.4375 -8.078125 29.4375 -8.890625 L 29.4375 -39.734375 C 29.4375 -40.546875 29.03125 -40.953125 28.21875 -40.953125 L 26.8125 -40.953125 C 26 -40.953125 25.59375 -40.546875 25.59375 -39.734375 L 25.59375 -38.328125 C 25.59375 -37.515625 25.1875 -37.109375 24.375 -37.109375 L 22.96875 -37.109375 C 22.15625 -37.109375 21.75 -36.703125 21.75 -35.890625 L 21.75 -5.0625 C 21.75 -4.25 22.15625 -3.84375 22.96875 -3.84375 L 24.375 -3.84375 C 25.1875 -3.84375 25.59375 -4.25 25.59375 -5.0625 L 25.59375 -6.46875 C 25.59375 -7.269531 26 -7.671875 26.8125 -7.671875 Z M 26.8125 -7.671875 "/></g></g></g><g fill="#242424" fill-opacity="1"><g transform="translate(171.820306, 255.859934)"><g><path d="M 12.15625 -1.21875 L 12.15625 -2.625 C 12.15625 -3.4375 11.75 -3.84375 10.9375 -3.84375 L 9.53125 -3.84375 C 8.71875 -3.84375 8.3125 -4.25 8.3125 -5.0625 L 8.3125 -6.46875 C 8.3125 -7.269531 7.910156 -7.671875 7.109375 -7.671875 L 5.6875 -7.671875 C 4.882812 -7.671875 4.484375 -8.078125 4.484375 -8.890625 L 4.484375 -35.890625 C 4.484375 -36.703125 4.882812 -37.109375 5.6875 -37.109375 L 7.109375 -37.109375 C 7.910156 -37.109375 8.3125 -37.515625 8.3125 -38.328125 L 8.3125 -39.734375 C 8.3125 -40.546875 8.71875 -40.953125 9.53125 -40.953125 L 10.9375 -40.953125 C 11.75 -40.953125 12.15625 -41.359375 12.15625 -42.171875 L 12.15625 -43.578125 C 12.15625 -44.390625 12.5625 -44.796875 13.375 -44.796875 L 37.8125 -44.796875 C 38.625 -44.796875 39.03125 -44.390625 39.03125 -43.578125 L 39.03125 -42.171875 C 39.03125 -41.359375 39.4375 -40.953125 40.25 -40.953125 L 41.65625 -40.953125 C 42.46875 -40.953125 42.875 -40.546875 42.875 -39.734375 L 42.875 -38.328125 C 42.875 -37.515625 43.273438 -37.109375 44.078125 -37.109375 L 45.5 -37.109375 C 46.300781 -37.109375 46.703125 -36.703125 46.703125 -35.890625 L 46.703125 -8.890625 C 46.703125 -8.078125 46.300781 -7.671875 45.5 -7.671875 L 44.078125 -7.671875 C 43.273438 -7.671875 42.875 -7.269531 42.875 -6.46875 L 42.875 -5.0625 C 42.875 -4.25 42.46875 -3.84375 41.65625 -3.84375 L 40.25 -3.84375 C 39.4375 -3.84375 39.03125 -3.4375 39.03125 -2.625 L 39.03125 -1.21875 C 39.03125 -0.40625 38.625 0 37.8125 0 L 13.375 0 C 12.5625 0 12.15625 -0.40625 12.15625 -1.21875 Z M 26.8125 -7.671875 L 28.21875 -7.671875 C 29.03125 -7.671875 29.4375 -8.078125 29.4375 -8.890625 L 29.4375 -39.734375 C 29.4375 -40.546875 29.03125 -40.953125 28.21875 -40.953125 L 26.8125 -40.953125 C 26 -40.953125 25.59375 -40.546875 25.59375 -39.734375 L 25.59375 -38.328125 C 25.59375 -37.515625 25.1875 -37.109375 24.375 -37.109375 L 22.96875 -37.109375 C 22.15625 -37.109375 21.75 -36.703125 21.75 -35.890625 L 21.75 -5.0625 C 21.75 -4.25 22.15625 -3.84375 22.96875 -3.84375 L 24.375 -3.84375 C 25.1875 -3.84375 25.59375 -4.25 25.59375 -5.0625 L 25.59375 -6.46875 C 25.59375 -7.269531 26 -7.671875 26.8125 -7.671875 Z M 26.8125 -7.671875 "/></g></g></g><g fill="#242424" fill-opacity="1"><g transform="translate(222.998429, 255.859934)"><g><path d="M 4.484375 -1.21875 L 4.484375 -43.578125 C 4.484375 -44.390625 4.882812 -44.796875 5.6875 -44.796875 L 14.78125 -44.796875 C 15.59375 -44.796875 16 -44.390625 16 -43.578125 L 16 -38.328125 C 16 -37.515625 16.40625 -37.109375 17.21875 -37.109375 L 18.625 -37.109375 C 19.425781 -37.109375 19.828125 -37.515625 19.828125 -38.328125 L 19.828125 -39.734375 C 19.828125 -40.546875 20.234375 -40.953125 21.046875 -40.953125 L 22.453125 -40.953125 C 23.265625 -40.953125 23.671875 -41.359375 23.671875 -42.171875 L 23.671875 -43.578125 C 23.671875 -44.390625 24.078125 -44.796875 24.890625 -44.796875 L 41.65625 -44.796875 C 42.46875 -44.796875 42.875 -44.390625 42.875 -43.578125 L 42.875 -42.171875 C 42.875 -41.359375 43.273438 -40.953125 44.078125 -40.953125 L 47.40625 -40.953125 C 48.21875 -40.953125 48.625 -41.359375 48.625 -42.171875 L 48.625 -43.578125 C 48.625 -44.390625 49.03125 -44.796875 49.84375 -44.796875 L 66.609375 -44.796875 C 67.421875 -44.796875 67.828125 -44.390625 67.828125 -43.578125 L 67.828125 -42.171875 C 67.828125 -41.359375 68.234375 -40.953125 69.046875 -40.953125 L 70.453125 -40.953125 C 71.253906 -40.953125 71.65625 -40.546875 71.65625 -39.734375 L 71.65625 -1.21875 C 71.65625 -0.40625 71.253906 0 70.453125 0 L 55.609375 0 C 54.796875 0 54.390625 -0.40625 54.390625 -1.21875 L 54.390625 -39.734375 C 54.390625 -40.546875 53.984375 -40.953125 53.171875 -40.953125 L 51.765625 -40.953125 C 50.953125 -40.953125 50.546875 -40.546875 50.546875 -39.734375 L 50.546875 -38.328125 C 50.546875 -37.515625 50.140625 -37.109375 49.328125 -37.109375 L 47.921875 -37.109375 C 47.109375 -37.109375 46.703125 -36.703125 46.703125 -35.890625 L 46.703125 -1.21875 C 46.703125 -0.40625 46.300781 0 45.5 0 L 30.65625 0 C 29.84375 0 29.4375 -0.40625 29.4375 -1.21875 L 29.4375 -39.734375 C 29.4375 -40.546875 29.03125 -40.953125 28.21875 -40.953125 L 26.8125 -40.953125 C 26 -40.953125 25.59375 -40.546875 25.59375 -39.734375 L 25.59375 -38.328125 C 25.59375 -37.515625 25.1875 -37.109375 24.375 -37.109375 L 22.96875 -37.109375 C 22.15625 -37.109375 21.75 -36.703125 21.75 -35.890625 L 21.75 -1.21875 C 21.75 -0.40625 21.34375 0 20.53125 0 L 5.6875 0 C 4.882812 0 4.484375 -0.40625 4.484375 -1.21875 Z M 4.484375 -1.21875 "/></g></g></g><path stroke-linecap="butt" transform="matrix(0.934385, 0, 0, 0.934385, 18.041964, 111.178769)" fill="none" stroke-linejoin="miter" d="M 4.796176 77.696662 L 4.796176 16.213189 C 4.796176 15.343633 5.230954 14.908855 6.10051 14.908855 L 40.468881 14.908855 C 41.338437 14.908855 41.773215 15.343633 41.773215 16.213189 L 41.773215 17.71819 C 41.773215 18.587746 42.203813 19.022524 43.060827 19.022524 L 44.565829 19.022524 C 45.435385 19.022524 45.870163 19.457302 45.870163 20.326858 L 45.870163 21.831859 C 45.870163 22.701416 46.304941 23.132013 47.174497 23.132013 L 48.679498 23.132013 C 49.549054 23.132013 49.983832 23.562611 49.983832 24.419625 L 49.983832 69.490226 C 49.983832 70.34724 49.549054 70.773657 48.679498 70.773657 L 47.174497 70.773657 C 46.304941 70.773657 45.870163 71.208435 45.870163 72.077991 L 45.870163 73.582992 C 45.870163 74.452548 45.435385 74.887327 44.565829 74.887327 L 43.060827 74.887327 C 42.203813 74.887327 41.773215 75.322105 41.773215 76.191661 L 41.773215 77.696662 C 41.773215 78.566218 41.338437 79.000996 40.468881 79.000996 L 6.10051 79.000996 C 5.230954 79.000996 4.796176 78.566218 4.796176 77.696662 Z M 23.286786 20.326858 L 23.286786 73.582992 C 23.286786 74.452548 23.713203 74.887327 24.574398 74.887327 L 26.096121 74.887327 C 26.953136 74.887327 27.379553 74.452548 27.379553 73.582992 L 27.379553 72.077991 C 27.379553 71.208435 27.814331 70.773657 28.683887 70.773657 L 30.188888 70.773657 C 31.058444 70.773657 31.493222 70.34724 31.493222 69.490226 L 31.493222 24.419625 C 31.493222 23.562611 31.058444 23.132013 30.188888 23.132013 L 28.683887 23.132013 C 27.814331 23.132013 27.379553 22.701416 27.379553 21.831859 L 27.379553 20.326858 C 27.379553 19.457302 26.953136 19.022524 26.096121 19.022524 L 24.574398 19.022524 C 23.713203 19.022524 23.286786 19.457302 23.286786 20.326858 Z M 83.595522 57.153398 L 77.993574 57.153398 C 77.124018 57.153398 76.68924 57.588176 76.68924 58.457732 L 76.68924 73.582992 C 76.68924 74.452548 77.124018 74.887327 77.993574 74.887327 L 79.498575 74.887327 C 80.355589 74.887327 80.786187 74.452548 80.786187 73.582992 L 80.786187 72.077991 C 80.786187 71.208435 81.220965 70.773657 82.090521 70.773657 L 83.595522 70.773657 C 84.465078 70.773657 84.899856 70.34724 84.899856 69.490226 L 84.899856 58.457732 C 84.899856 57.588176 84.465078 57.153398 83.595522 57.153398 Z M 62.312299 77.696662 L 62.312299 76.191661 C 62.312299 75.322105 61.877521 74.887327 61.012145 74.887327 L 59.507144 74.887327 C 58.637588 74.887327 58.20281 74.452548 58.20281 73.582992 L 58.20281 58.457732 C 58.20281 57.588176 58.637588 57.153398 59.507144 57.153398 L 61.012145 57.153398 C 61.877521 57.153398 62.312299 56.7228 62.312299 55.865786 L 62.312299 54.344062 C 62.312299 53.487048 62.742897 53.05645 63.599911 53.05645 L 79.498575 53.05645 C 80.355589 53.05645 80.786187 52.621672 80.786187 51.752116 L 80.786187 50.247115 C 80.786187 49.377559 81.220965 48.942781 82.090521 48.942781 L 85.648176 48.942781 C 86.517732 48.942781 86.95251 48.508003 86.95251 47.638447 L 86.95251 36.472175 C 86.95251 35.615161 86.517732 35.184563 85.648176 35.184563 L 82.090521 35.184563 C 81.220965 35.184563 80.786187 35.615161 80.786187 36.472175 L 80.786187 42.090846 C 80.786187 42.960402 80.355589 43.39518 79.498575 43.39518 L 77.993574 43.39518 C 77.124018 43.39518 76.68924 43.829958 76.68924 44.699514 L 76.68924 48.257169 C 76.68924 49.126725 76.254461 49.561504 75.384905 49.561504 L 61.559799 49.561504 C 60.694423 49.561504 60.259645 49.126725 60.259645 48.257169 L 60.259645 36.472175 C 60.259645 35.615161 60.694423 35.184563 61.559799 35.184563 L 64.084856 35.184563 C 64.954412 35.184563 65.38919 34.753966 65.38919 33.884409 L 65.38919 32.379408 C 65.38919 31.509852 65.823968 31.075074 66.693524 31.075074 L 97.985004 31.075074 C 98.846199 31.075074 99.272616 31.509852 99.272616 32.379408 L 99.272616 33.884409 C 99.272616 34.753966 99.707394 35.184563 100.57695 35.184563 L 102.081951 35.184563 C 102.951508 35.184563 103.386286 35.615161 103.386286 36.472175 L 103.386286 77.696662 C 103.386286 78.566218 102.951508 79.000996 102.081951 79.000996 L 90.313679 79.000996 C 89.444123 79.000996 89.009345 78.566218 89.009345 77.696662 L 89.009345 76.191661 C 89.009345 75.322105 88.574567 74.887327 87.705011 74.887327 L 86.20001 74.887327 C 85.330454 74.887327 84.899856 75.322105 84.899856 76.191661 L 84.899856 77.696662 C 84.899856 78.566218 84.465078 79.000996 83.595522 79.000996 L 63.599911 79.000996 C 62.742897 79.000996 62.312299 78.566218 62.312299 77.696662 Z M 119.81588 77.696662 L 119.81588 76.191661 C 119.81588 75.322105 119.381102 74.887327 118.511546 74.887327 L 117.006545 74.887327 C 116.149531 74.887327 115.718933 74.452548 115.718933 73.582992 L 115.718933 36.405286 C 115.718933 35.53573 115.284155 35.100952 114.414599 35.100952 L 112.223986 35.100952 C 111.358611 35.100952 110.923833 34.674535 110.923833 33.81752 L 110.923833 32.379408 C 110.923833 31.509852 111.358611 31.075074 112.223986 31.075074 L 114.414599 31.075074 C 115.284155 31.075074 115.718933 30.640296 115.718933 29.77074 L 115.718933 20.259969 C 115.718933 19.390413 116.149531 18.955635 117.006545 18.955635 L 132.905209 18.955635 C 133.762223 18.955635 134.192821 19.390413 134.192821 20.259969 L 134.192821 29.77074 C 134.192821 30.640296 134.627599 31.075074 135.497155 31.075074 L 142.415979 31.075074 C 143.285535 31.075074 143.720313 31.509852 143.720313 32.379408 L 143.720313 33.81752 C 143.720313 34.674535 143.285535 35.100952 142.415979 35.100952 L 135.497155 35.100952 C 134.627599 35.100952 134.192821 35.53573 134.192821 36.405286 L 134.192821 73.582992 C 134.192821 74.452548 134.627599 74.887327 135.497155 74.887327 L 136.997976 74.887327 C 137.867532 74.887327 138.30231 74.452548 138.30231 73.582992 L 138.30231 66.614001 C 138.30231 65.744445 138.737088 65.309667 139.606644 65.309667 L 150.706027 65.309667 C 151.563041 65.309667 151.993639 65.744445 151.993639 66.614001 L 151.993639 73.582992 C 151.993639 74.452548 151.563041 74.887327 150.706027 74.887327 L 147.148371 74.887327 C 146.278815 74.887327 145.844037 75.322105 145.844037 76.191661 L 145.844037 77.696662 C 145.844037 78.566218 145.409259 79.000996 144.539703 79.000996 L 121.120215 79.000996 C 120.250658 79.000996 119.81588 78.566218 119.81588 77.696662 Z M 181.504201 57.153398 L 175.906433 57.153398 C 175.036877 57.153398 174.602099 57.588176 174.602099 58.457732 L 174.602099 73.582992 C 174.602099 74.452548 175.036877 74.887327 175.906433 74.887327 L 177.407253 74.887327 C 178.268448 74.887327 178.694865 74.452548 178.694865 73.582992 L 178.694865 72.077991 C 178.694865 71.208435 179.129643 70.773657 179.9992 70.773657 L 181.504201 70.773657 C 182.373757 70.773657 182.808535 70.34724 182.808535 69.490226 L 182.808535 58.457732 C 182.808535 57.588176 182.373757 57.153398 181.504201 57.153398 Z M 160.225158 77.696662 L 160.225158 76.191661 C 160.225158 75.322105 159.79038 74.887327 158.920824 74.887327 L 157.415823 74.887327 C 156.546267 74.887327 156.111489 74.452548 156.111489 73.582992 L 156.111489 58.457732 C 156.111489 57.588176 156.546267 57.153398 157.415823 57.153398 L 158.920824 57.153398 C 159.79038 57.153398 160.225158 56.7228 160.225158 55.865786 L 160.225158 54.344062 C 160.225158 53.487048 160.651575 53.05645 161.51277 53.05645 L 177.407253 53.05645 C 178.268448 53.05645 178.694865 52.621672 178.694865 51.752116 L 178.694865 50.247115 C 178.694865 49.377559 179.129643 48.942781 179.9992 48.942781 L 183.561035 48.942781 C 184.430591 48.942781 184.86537 48.508003 184.86537 47.638447 L 184.86537 36.472175 C 184.86537 35.615161 184.430591 35.184563 183.561035 35.184563 L 179.9992 35.184563 C 179.129643 35.184563 178.694865 35.615161 178.694865 36.472175 L 178.694865 42.090846 C 178.694865 42.960402 178.268448 43.39518 177.407253 43.39518 L 175.906433 43.39518 C 175.036877 43.39518 174.602099 43.829958 174.602099 44.699514 L 174.602099 48.257169 C 174.602099 49.126725 174.167321 49.561504 173.297764 49.561504 L 159.472658 49.561504 C 158.603101 49.561504 158.168323 49.126725 158.168323 48.257169 L 158.168323 36.472175 C 158.168323 35.615161 158.603101 35.184563 159.472658 35.184563 L 161.997715 35.184563 C 162.867271 35.184563 163.302049 34.753966 163.302049 33.884409 L 163.302049 32.379408 C 163.302049 31.509852 163.736827 31.075074 164.602203 31.075074 L 195.897863 31.075074 C 196.754878 31.075074 197.185475 31.509852 197.185475 32.379408 L 197.185475 33.884409 C 197.185475 34.753966 197.620253 35.184563 198.48981 35.184563 L 199.99063 35.184563 C 200.860186 35.184563 201.294964 35.615161 201.294964 36.472175 L 201.294964 77.696662 C 201.294964 78.566218 200.860186 79.000996 199.99063 79.000996 L 188.222358 79.000996 C 187.356982 79.000996 186.922204 78.566218 186.922204 77.696662 L 186.922204 76.191661 C 186.922204 75.322105 186.487426 74.887327 185.61787 74.887327 L 184.112869 74.887327 C 183.243313 74.887327 182.808535 75.322105 182.808535 76.191661 L 182.808535 77.696662 C 182.808535 78.566218 182.373757 79.000996 181.504201 79.000996 L 161.51277 79.000996 C 160.651575 79.000996 160.225158 78.566218 160.225158 77.696662 Z M 214.317404 77.696662 L 214.317404 76.191661 C 214.317404 75.322105 213.882626 74.887327 213.01307 74.887327 L 211.508068 74.887327 C 210.638512 74.887327 210.203734 74.452548 210.203734 73.582992 L 210.203734 61.81472 C 210.203734 60.945164 210.638512 60.510386 211.508068 60.510386 L 227.385829 60.510386 C 228.255386 60.510386 228.690164 60.945164 228.690164 61.81472 L 228.690164 73.582992 C 228.690164 74.452548 229.124942 74.887327 229.994498 74.887327 L 231.499499 74.887327 C 232.356513 74.887327 232.787111 74.452548 232.787111 73.582992 L 232.787111 72.077991 C 232.787111 71.208435 233.221889 70.773657 234.091445 70.773657 L 235.663335 70.773657 C 236.532891 70.773657 236.967669 70.34724 236.967669 69.490226 L 236.967669 62.63411 C 236.967669 61.764554 236.532891 61.329776 235.663335 61.329776 L 234.158334 61.329776 C 233.30132 61.329776 232.870722 60.894997 232.870722 60.025441 L 232.870722 58.52044 C 232.870722 57.655065 232.435944 57.220287 231.566388 57.220287 L 215.600835 57.220287 C 214.743821 57.220287 214.317404 56.789689 214.317404 55.932675 L 214.317404 54.427674 C 214.317404 53.558117 213.882626 53.123339 213.01307 53.123339 L 211.508068 53.123339 C 210.638512 53.123339 210.203734 52.688561 210.203734 51.819005 L 210.203734 36.472175 C 210.203734 35.615161 210.638512 35.184563 211.508068 35.184563 L 212.528125 35.184563 C 213.397681 35.184563 213.832459 34.753966 213.832459 33.884409 L 213.832459 32.379408 C 213.832459 31.509852 214.267237 31.075074 215.132613 31.075074 L 249.304497 31.075074 C 250.161512 31.075074 250.587929 31.509852 250.587929 32.379408 L 250.587929 33.884409 C 250.587929 34.753966 251.022707 35.184563 251.892263 35.184563 L 253.397264 35.184563 C 254.26682 35.184563 254.701598 35.615161 254.701598 36.472175 L 254.701598 48.257169 C 254.701598 49.126725 254.26682 49.561504 253.397264 49.561504 L 242.314604 49.561504 C 241.445047 49.561504 241.010269 49.126725 241.010269 48.257169 L 241.010269 46.752168 C 241.010269 45.886793 240.575491 45.452015 239.705935 45.452015 L 238.205115 45.452015 C 237.335558 45.452015 236.90078 45.017237 236.90078 44.14768 L 236.90078 36.472175 C 236.90078 35.615161 236.466002 35.184563 235.596446 35.184563 L 234.091445 35.184563 C 233.221889 35.184563 232.787111 35.615161 232.787111 36.472175 L 232.787111 37.993898 C 232.787111 38.850913 232.356513 39.28151 231.499499 39.28151 L 229.994498 39.28151 C 229.124942 39.28151 228.690164 39.716288 228.690164 40.585845 L 228.690164 47.705336 C 228.690164 48.574892 229.124942 49.00967 229.994498 49.00967 L 231.499499 49.00967 C 232.356513 49.00967 232.787111 49.444448 232.787111 50.314004 L 232.787111 51.819005 C 232.787111 52.688561 233.221889 53.123339 234.091445 53.123339 L 249.371386 53.123339 C 250.228401 53.123339 250.654818 53.558117 250.654818 54.427674 L 250.654818 55.932675 C 250.654818 56.789689 251.089596 57.220287 251.959152 57.220287 L 253.464153 57.220287 C 254.333709 57.220287 254.768487 57.655065 254.768487 58.52044 L 254.768487 73.582992 C 254.768487 74.452548 254.333709 74.887327 253.464153 74.887327 L 251.959152 74.887327 C 251.089596 74.887327 250.654818 75.322105 250.654818 76.191661 L 250.654818 77.696662 C 250.654818 78.566218 250.228401 79.000996 249.371386 79.000996 L 215.600835 79.000996 C 214.743821 79.000996 214.317404 78.566218 214.317404 77.696662 Z M 272.502416 77.696662 L 272.502416 76.191661 C 272.502416 75.322105 272.067638 74.887327 271.198082 74.887327 L 269.693081 74.887327 C 268.823525 74.887327 268.388747 74.452548 268.388747 73.582992 L 268.388747 72.077991 C 268.388747 71.208435 267.96233 70.773657 267.101135 70.773657 L 265.600314 70.773657 C 264.730758 70.773657 264.29598 70.34724 264.29598 69.490226 L 264.29598 40.585845 C 264.29598 39.716288 264.730758 39.28151 265.600314 39.28151 L 267.101135 39.28151 C 267.96233 39.28151 268.388747 38.850913 268.388747 37.993898 L 268.388747 36.472175 C 268.388747 35.615161 268.823525 35.184563 269.693081 35.184563 L 271.198082 35.184563 C 272.067638 35.184563 272.502416 34.753966 272.502416 33.884409 L 272.502416 32.379408 C 272.502416 31.509852 272.937194 31.075074 273.80675 31.075074 L 299.968685 31.075074 C 300.838241 31.075074 301.268839 31.509852 301.268839 32.379408 L 301.268839 33.884409 C 301.268839 34.753966 301.699436 35.184563 302.556451 35.184563 L 304.061452 35.184563 C 304.931008 35.184563 305.365786 35.615161 305.365786 36.472175 L 305.365786 37.993898 C 305.365786 38.850913 305.800564 39.28151 306.67012 39.28151 L 308.175121 39.28151 C 309.044677 39.28151 309.479455 39.716288 309.479455 40.585845 L 309.479455 51.685227 C 309.479455 52.554783 309.044677 52.989561 308.175121 52.989561 L 306.67012 52.989561 C 305.800564 52.989561 305.365786 53.420159 305.365786 54.277173 L 305.365786 55.782175 C 305.365786 56.651731 304.931008 57.086509 304.061452 57.086509 L 284.070021 57.086509 C 283.213007 57.086509 282.782409 57.521287 282.782409 58.390843 L 282.782409 73.582992 C 282.782409 74.452548 283.213007 74.887327 284.070021 74.887327 L 285.591744 74.887327 C 286.448759 74.887327 286.879356 74.452548 286.879356 73.582992 L 286.879356 72.077991 C 286.879356 71.208435 287.314135 70.773657 288.183691 70.773657 L 289.684511 70.773657 C 290.554067 70.773657 290.988845 70.34724 290.988845 69.490226 L 290.988845 64.757833 C 290.988845 63.888277 291.423624 63.453499 292.29318 63.453499 L 308.175121 63.453499 C 309.044677 63.453499 309.479455 63.888277 309.479455 64.757833 L 309.479455 69.490226 C 309.479455 70.34724 309.044677 70.773657 308.175121 70.773657 L 306.67012 70.773657 C 305.800564 70.773657 305.365786 71.208435 305.365786 72.077991 L 305.365786 73.582992 C 305.365786 74.452548 304.931008 74.887327 304.061452 74.887327 L 302.556451 74.887327 C 301.699436 74.887327 301.268839 75.322105 301.268839 76.191661 L 301.268839 77.696662 C 301.268839 78.566218 300.838241 79.000996 299.968685 79.000996 L 273.80675 79.000996 C 272.937194 79.000996 272.502416 78.566218 272.502416 77.696662 Z M 284.070021 52.989561 L 289.684511 52.989561 C 290.554067 52.989561 290.988845 52.554783 290.988845 51.685227 L 290.988845 36.472175 C 290.988845 35.615161 290.554067 35.184563 289.684511 35.184563 L 288.183691 35.184563 C 287.314135 35.184563 286.879356 35.615161 286.879356 36.472175 L 286.879356 37.993898 C 286.879356 38.850913 286.448759 39.28151 285.591744 39.28151 L 284.070021 39.28151 C 283.213007 39.28151 282.782409 39.716288 282.782409 40.585845 L 282.782409 51.685227 C 282.782409 52.554783 283.213007 52.989561 284.070021 52.989561 Z M 324.537827 77.696662 L 324.537827 76.191661 C 324.537827 75.322105 324.103049 74.887327 323.233493 74.887327 L 321.728492 74.887327 C 320.871477 74.887327 320.44088 74.452548 320.44088 73.582992 L 320.44088 36.405286 C 320.44088 35.53573 320.006102 35.100952 319.136545 35.100952 L 316.945933 35.100952 C 316.080557 35.100952 315.645779 34.674535 315.645779 33.81752 L 315.645779 32.379408 C 315.645779 31.509852 316.080557 31.075074 316.945933 31.075074 L 319.136545 31.075074 C 320.006102 31.075074 320.44088 30.640296 320.44088 29.77074 L 320.44088 20.259969 C 320.44088 19.390413 320.871477 18.955635 321.728492 18.955635 L 337.627155 18.955635 C 338.48417 18.955635 338.914767 19.390413 338.914767 20.259969 L 338.914767 29.77074 C 338.914767 30.640296 339.349545 31.075074 340.214921 31.075074 L 347.137926 31.075074 C 348.007482 31.075074 348.44226 31.509852 348.44226 32.379408 L 348.44226 33.81752 C 348.44226 34.674535 348.007482 35.100952 347.137926 35.100952 L 340.214921 35.100952 C 339.349545 35.100952 338.914767 35.53573 338.914767 36.405286 L 338.914767 73.582992 C 338.914767 74.452548 339.349545 74.887327 340.214921 74.887327 L 341.719922 74.887327 C 342.589478 74.887327 343.024256 74.452548 343.024256 73.582992 L 343.024256 66.614001 C 343.024256 65.744445 343.459034 65.309667 344.32859 65.309667 L 355.427973 65.309667 C 356.284988 65.309667 356.715585 65.744445 356.715585 66.614001 L 356.715585 73.582992 C 356.715585 74.452548 356.284988 74.887327 355.427973 74.887327 L 351.866137 74.887327 C 351.000762 74.887327 350.565984 75.322105 350.565984 76.191661 L 350.565984 77.696662 C 350.565984 78.566218 350.131206 79.000996 349.261649 79.000996 L 325.842161 79.000996 C 324.972605 79.000996 324.537827 78.566218 324.537827 77.696662 Z M 324.537827 77.696662 " stroke="#242424" stroke-width="9.415491" stroke-opacity="1" stroke-miterlimit="4"/><g fill="#242424" fill-opacity="1"><g transform="translate(18.041964, 184.995163)"><g><path d="M 4.484375 -1.21875 L 4.484375 -58.671875 C 4.484375 -59.484375 4.882812 -59.890625 5.6875 -59.890625 L 37.8125 -59.890625 C 38.625 -59.890625 39.03125 -59.484375 39.03125 -58.671875 L 39.03125 -57.265625 C 39.03125 -56.453125 39.4375 -56.046875 40.25 -56.046875 L 41.65625 -56.046875 C 42.46875 -56.046875 42.875 -55.640625 42.875 -54.828125 L 42.875 -53.421875 C 42.875 -52.617188 43.273438 -52.21875 44.078125 -52.21875 L 45.5 -52.21875 C 46.300781 -52.21875 46.703125 -51.8125 46.703125 -51 L 46.703125 -8.890625 C 46.703125 -8.078125 46.300781 -7.671875 45.5 -7.671875 L 44.078125 -7.671875 C 43.273438 -7.671875 42.875 -7.269531 42.875 -6.46875 L 42.875 -5.0625 C 42.875 -4.25 42.46875 -3.84375 41.65625 -3.84375 L 40.25 -3.84375 C 39.4375 -3.84375 39.03125 -3.4375 39.03125 -2.625 L 39.03125 -1.21875 C 39.03125 -0.40625 38.625 0 37.8125 0 L 5.6875 0 C 4.882812 0 4.484375 -0.40625 4.484375 -1.21875 Z M 21.75 -54.828125 L 21.75 -5.0625 C 21.75 -4.25 22.15625 -3.84375 22.96875 -3.84375 L 24.375 -3.84375 C 25.1875 -3.84375 25.59375 -4.25 25.59375 -5.0625 L 25.59375 -6.46875 C 25.59375 -7.269531 26 -7.671875 26.8125 -7.671875 L 28.21875 -7.671875 C 29.03125 -7.671875 29.4375 -8.078125 29.4375 -8.890625 L 29.4375 -51 C 29.4375 -51.8125 29.03125 -52.21875 28.21875 -52.21875 L 26.8125 -52.21875 C 26 -52.21875 25.59375 -52.617188 25.59375 -53.421875 L 25.59375 -54.828125 C 25.59375 -55.640625 25.1875 -56.046875 24.375 -56.046875 L 22.96875 -56.046875 C 22.15625 -56.046875 21.75 -55.640625 21.75 -54.828125 Z M 21.75 -54.828125 "/></g></g></g><g fill="#242424" fill-opacity="1"><g transform="translate(69.222939, 184.995163)"><g><path d="M 26.9375 -20.40625 L 21.6875 -20.40625 C 20.875 -20.40625 20.46875 -20.003906 20.46875 -19.203125 L 20.46875 -5.0625 C 20.46875 -4.25 20.875 -3.84375 21.6875 -3.84375 L 23.09375 -3.84375 C 23.90625 -3.84375 24.3125 -4.25 24.3125 -5.0625 L 24.3125 -6.46875 C 24.3125 -7.269531 24.71875 -7.671875 25.53125 -7.671875 L 26.9375 -7.671875 C 27.75 -7.671875 28.15625 -8.078125 28.15625 -8.890625 L 28.15625 -19.203125 C 28.15625 -20.003906 27.75 -20.40625 26.9375 -20.40625 Z M 7.03125 -1.21875 L 7.03125 -2.625 C 7.03125 -3.4375 6.628906 -3.84375 5.828125 -3.84375 L 4.421875 -3.84375 C 3.609375 -3.84375 3.203125 -4.25 3.203125 -5.0625 L 3.203125 -19.203125 C 3.203125 -20.003906 3.609375 -20.40625 4.421875 -20.40625 L 5.828125 -20.40625 C 6.628906 -20.40625 7.03125 -20.8125 7.03125 -21.625 L 7.03125 -23.03125 C 7.03125 -23.84375 7.4375 -24.25 8.25 -24.25 L 23.09375 -24.25 C 23.90625 -24.25 24.3125 -24.65625 24.3125 -25.46875 L 24.3125 -26.875 C 24.3125 -27.6875 24.71875 -28.09375 25.53125 -28.09375 L 28.859375 -28.09375 C 29.671875 -28.09375 30.078125 -28.5 30.078125 -29.3125 L 30.078125 -39.734375 C 30.078125 -40.546875 29.671875 -40.953125 28.859375 -40.953125 L 25.53125 -40.953125 C 24.71875 -40.953125 24.3125 -40.546875 24.3125 -39.734375 L 24.3125 -34.484375 C 24.3125 -33.671875 23.90625 -33.265625 23.09375 -33.265625 L 21.6875 -33.265625 C 20.875 -33.265625 20.46875 -32.863281 20.46875 -32.0625 L 20.46875 -28.734375 C 20.46875 -27.921875 20.066406 -27.515625 19.265625 -27.515625 L 6.328125 -27.515625 C 5.523438 -27.515625 5.125 -27.921875 5.125 -28.734375 L 5.125 -39.734375 C 5.125 -40.546875 5.523438 -40.953125 6.328125 -40.953125 L 8.703125 -40.953125 C 9.515625 -40.953125 9.921875 -41.359375 9.921875 -42.171875 L 9.921875 -43.578125 C 9.921875 -44.390625 10.328125 -44.796875 11.140625 -44.796875 L 40.375 -44.796875 C 41.1875 -44.796875 41.59375 -44.390625 41.59375 -43.578125 L 41.59375 -42.171875 C 41.59375 -41.359375 42 -40.953125 42.8125 -40.953125 L 44.21875 -40.953125 C 45.019531 -40.953125 45.421875 -40.546875 45.421875 -39.734375 L 45.421875 -1.21875 C 45.421875 -0.40625 45.019531 0 44.21875 0 L 33.203125 0 C 32.398438 0 32 -0.40625 32 -1.21875 L 32 -2.625 C 32 -3.4375 31.59375 -3.84375 30.78125 -3.84375 L 29.375 -3.84375 C 28.5625 -3.84375 28.15625 -3.4375 28.15625 -2.625 L 28.15625 -1.21875 C 28.15625 -0.40625 27.75 0 26.9375 0 L 8.25 0 C 7.4375 0 7.03125 -0.40625 7.03125 -1.21875 Z M 7.03125 -1.21875 "/></g></g></g><g fill="#242424" fill-opacity="1"><g transform="translate(119.124382, 184.995163)"><g><path d="M 10.875 -1.21875 L 10.875 -2.625 C 10.875 -3.4375 10.46875 -3.84375 9.65625 -3.84375 L 8.25 -3.84375 C 7.4375 -3.84375 7.03125 -4.25 7.03125 -5.0625 L 7.03125 -39.796875 C 7.03125 -40.609375 6.628906 -41.015625 5.828125 -41.015625 L 3.78125 -41.015625 C 2.96875 -41.015625 2.5625 -41.421875 2.5625 -42.234375 L 2.5625 -43.578125 C 2.5625 -44.390625 2.96875 -44.796875 3.78125 -44.796875 L 5.828125 -44.796875 C 6.628906 -44.796875 7.03125 -45.195312 7.03125 -46 L 7.03125 -54.90625 C 7.03125 -55.707031 7.4375 -56.109375 8.25 -56.109375 L 23.09375 -56.109375 C 23.90625 -56.109375 24.3125 -55.707031 24.3125 -54.90625 L 24.3125 -46 C 24.3125 -45.195312 24.71875 -44.796875 25.53125 -44.796875 L 32 -44.796875 C 32.800781 -44.796875 33.203125 -44.390625 33.203125 -43.578125 L 33.203125 -42.234375 C 33.203125 -41.421875 32.800781 -41.015625 32 -41.015625 L 25.53125 -41.015625 C 24.71875 -41.015625 24.3125 -40.609375 24.3125 -39.796875 L 24.3125 -5.0625 C 24.3125 -4.25 24.71875 -3.84375 25.53125 -3.84375 L 26.9375 -3.84375 C 27.75 -3.84375 28.15625 -4.25 28.15625 -5.0625 L 28.15625 -11.578125 C 28.15625 -12.390625 28.5625 -12.796875 29.375 -12.796875 L 39.734375 -12.796875 C 40.546875 -12.796875 40.953125 -12.390625 40.953125 -11.578125 L 40.953125 -5.0625 C 40.953125 -4.25 40.546875 -3.84375 39.734375 -3.84375 L 36.40625 -3.84375 C 35.59375 -3.84375 35.1875 -3.4375 35.1875 -2.625 L 35.1875 -1.21875 C 35.1875 -0.40625 34.78125 0 33.96875 0 L 12.09375 0 C 11.28125 0 10.875 -0.40625 10.875 -1.21875 Z M 10.875 -1.21875 "/></g></g></g><g fill="#242424" fill-opacity="1"><g transform="translate(160.708923, 184.995163)"><g><path d="M 26.9375 -20.40625 L 21.6875 -20.40625 C 20.875 -20.40625 20.46875 -20.003906 20.46875 -19.203125 L 20.46875 -5.0625 C 20.46875 -4.25 20.875 -3.84375 21.6875 -3.84375 L 23.09375 -3.84375 C 23.90625 -3.84375 24.3125 -4.25 24.3125 -5.0625 L 24.3125 -6.46875 C 24.3125 -7.269531 24.71875 -7.671875 25.53125 -7.671875 L 26.9375 -7.671875 C 27.75 -7.671875 28.15625 -8.078125 28.15625 -8.890625 L 28.15625 -19.203125 C 28.15625 -20.003906 27.75 -20.40625 26.9375 -20.40625 Z M 7.03125 -1.21875 L 7.03125 -2.625 C 7.03125 -3.4375 6.628906 -3.84375 5.828125 -3.84375 L 4.421875 -3.84375 C 3.609375 -3.84375 3.203125 -4.25 3.203125 -5.0625 L 3.203125 -19.203125 C 3.203125 -20.003906 3.609375 -20.40625 4.421875 -20.40625 L 5.828125 -20.40625 C 6.628906 -20.40625 7.03125 -20.8125 7.03125 -21.625 L 7.03125 -23.03125 C 7.03125 -23.84375 7.4375 -24.25 8.25 -24.25 L 23.09375 -24.25 C 23.90625 -24.25 24.3125 -24.65625 24.3125 -25.46875 L 24.3125 -26.875 C 24.3125 -27.6875 24.71875 -28.09375 25.53125 -28.09375 L 28.859375 -28.09375 C 29.671875 -28.09375 30.078125 -28.5 30.078125 -29.3125 L 30.078125 -39.734375 C 30.078125 -40.546875 29.671875 -40.953125 28.859375 -40.953125 L 25.53125 -40.953125 C 24.71875 -40.953125 24.3125 -40.546875 24.3125 -39.734375 L 24.3125 -34.484375 C 24.3125 -33.671875 23.90625 -33.265625 23.09375 -33.265625 L 21.6875 -33.265625 C 20.875 -33.265625 20.46875 -32.863281 20.46875 -32.0625 L 20.46875 -28.734375 C 20.46875 -27.921875 20.066406 -27.515625 19.265625 -27.515625 L 6.328125 -27.515625 C 5.523438 -27.515625 5.125 -27.921875 5.125 -28.734375 L 5.125 -39.734375 C 5.125 -40.546875 5.523438 -40.953125 6.328125 -40.953125 L 8.703125 -40.953125 C 9.515625 -40.953125 9.921875 -41.359375 9.921875 -42.171875 L 9.921875 -43.578125 C 9.921875 -44.390625 10.328125 -44.796875 11.140625 -44.796875 L 40.375 -44.796875 C 41.1875 -44.796875 41.59375 -44.390625 41.59375 -43.578125 L 41.59375 -42.171875 C 41.59375 -41.359375 42 -40.953125 42.8125 -40.953125 L 44.21875 -40.953125 C 45.019531 -40.953125 45.421875 -40.546875 45.421875 -39.734375 L 45.421875 -1.21875 C 45.421875 -0.40625 45.019531 0 44.21875 0 L 33.203125 0 C 32.398438 0 32 -0.40625 32 -1.21875 L 32 -2.625 C 32 -3.4375 31.59375 -3.84375 30.78125 -3.84375 L 29.375 -3.84375 C 28.5625 -3.84375 28.15625 -3.4375 28.15625 -2.625 L 28.15625 -1.21875 C 28.15625 -0.40625 27.75 0 26.9375 0 L 8.25 0 C 7.4375 0 7.03125 -0.40625 7.03125 -1.21875 Z M 7.03125 -1.21875 "/></g></g></g><g fill="#242424" fill-opacity="1"><g transform="translate(210.610366, 184.995163)"><g><path d="M 7.671875 -1.21875 L 7.671875 -2.625 C 7.671875 -3.4375 7.269531 -3.84375 6.46875 -3.84375 L 5.0625 -3.84375 C 4.25 -3.84375 3.84375 -4.25 3.84375 -5.0625 L 3.84375 -16.0625 C 3.84375 -16.875 4.25 -17.28125 5.0625 -17.28125 L 19.90625 -17.28125 C 20.707031 -17.28125 21.109375 -16.875 21.109375 -16.0625 L 21.109375 -5.0625 C 21.109375 -4.25 21.515625 -3.84375 22.328125 -3.84375 L 23.734375 -3.84375 C 24.546875 -3.84375 24.953125 -4.25 24.953125 -5.0625 L 24.953125 -6.46875 C 24.953125 -7.269531 25.359375 -7.671875 26.171875 -7.671875 L 27.640625 -7.671875 C 28.453125 -7.671875 28.859375 -8.078125 28.859375 -8.890625 L 28.859375 -15.296875 C 28.859375 -16.109375 28.453125 -16.515625 27.640625 -16.515625 L 26.234375 -16.515625 C 25.421875 -16.515625 25.015625 -16.914062 25.015625 -17.71875 L 25.015625 -19.125 C 25.015625 -19.9375 24.609375 -20.34375 23.796875 -20.34375 L 8.890625 -20.34375 C 8.078125 -20.34375 7.671875 -20.75 7.671875 -21.5625 L 7.671875 -22.96875 C 7.671875 -23.78125 7.269531 -24.1875 6.46875 -24.1875 L 5.0625 -24.1875 C 4.25 -24.1875 3.84375 -24.59375 3.84375 -25.40625 L 3.84375 -39.734375 C 3.84375 -40.546875 4.25 -40.953125 5.0625 -40.953125 L 6.015625 -40.953125 C 6.828125 -40.953125 7.234375 -41.359375 7.234375 -42.171875 L 7.234375 -43.578125 C 7.234375 -44.390625 7.640625 -44.796875 8.453125 -44.796875 L 40.375 -44.796875 C 41.1875 -44.796875 41.59375 -44.390625 41.59375 -43.578125 L 41.59375 -42.171875 C 41.59375 -41.359375 42 -40.953125 42.8125 -40.953125 L 44.21875 -40.953125 C 45.019531 -40.953125 45.421875 -40.546875 45.421875 -39.734375 L 45.421875 -28.734375 C 45.421875 -27.921875 45.019531 -27.515625 44.21875 -27.515625 L 33.84375 -27.515625 C 33.03125 -27.515625 32.625 -27.921875 32.625 -28.734375 L 32.625 -30.140625 C 32.625 -30.953125 32.222656 -31.359375 31.421875 -31.359375 L 30.015625 -31.359375 C 29.203125 -31.359375 28.796875 -31.757812 28.796875 -32.5625 L 28.796875 -39.734375 C 28.796875 -40.546875 28.390625 -40.953125 27.578125 -40.953125 L 26.171875 -40.953125 C 25.359375 -40.953125 24.953125 -40.546875 24.953125 -39.734375 L 24.953125 -38.328125 C 24.953125 -37.515625 24.546875 -37.109375 23.734375 -37.109375 L 22.328125 -37.109375 C 21.515625 -37.109375 21.109375 -36.703125 21.109375 -35.890625 L 21.109375 -29.234375 C 21.109375 -28.429688 21.515625 -28.03125 22.328125 -28.03125 L 23.734375 -28.03125 C 24.546875 -28.03125 24.953125 -27.625 24.953125 -26.8125 L 24.953125 -25.40625 C 24.953125 -24.59375 25.359375 -24.1875 26.171875 -24.1875 L 40.4375 -24.1875 C 41.25 -24.1875 41.65625 -23.78125 41.65625 -22.96875 L 41.65625 -21.5625 C 41.65625 -20.75 42.0625 -20.34375 42.875 -20.34375 L 44.28125 -20.34375 C 45.09375 -20.34375 45.5 -19.9375 45.5 -19.125 L 45.5 -5.0625 C 45.5 -4.25 45.09375 -3.84375 44.28125 -3.84375 L 42.875 -3.84375 C 42.0625 -3.84375 41.65625 -3.4375 41.65625 -2.625 L 41.65625 -1.21875 C 41.65625 -0.40625 41.25 0 40.4375 0 L 8.890625 0 C 8.078125 0 7.671875 -0.40625 7.671875 -1.21875 Z M 7.671875 -1.21875 "/></g></g></g><g fill="#242424" fill-opacity="1"><g transform="translate(260.511809, 184.995163)"><g><path d="M 12.15625 -1.21875 L 12.15625 -2.625 C 12.15625 -3.4375 11.75 -3.84375 10.9375 -3.84375 L 9.53125 -3.84375 C 8.71875 -3.84375 8.3125 -4.25 8.3125 -5.0625 L 8.3125 -6.46875 C 8.3125 -7.269531 7.910156 -7.671875 7.109375 -7.671875 L 5.6875 -7.671875 C 4.882812 -7.671875 4.484375 -8.078125 4.484375 -8.890625 L 4.484375 -35.890625 C 4.484375 -36.703125 4.882812 -37.109375 5.6875 -37.109375 L 7.109375 -37.109375 C 7.910156 -37.109375 8.3125 -37.515625 8.3125 -38.328125 L 8.3125 -39.734375 C 8.3125 -40.546875 8.71875 -40.953125 9.53125 -40.953125 L 10.9375 -40.953125 C 11.75 -40.953125 12.15625 -41.359375 12.15625 -42.171875 L 12.15625 -43.578125 C 12.15625 -44.390625 12.5625 -44.796875 13.375 -44.796875 L 37.8125 -44.796875 C 38.625 -44.796875 39.03125 -44.390625 39.03125 -43.578125 L 39.03125 -42.171875 C 39.03125 -41.359375 39.4375 -40.953125 40.25 -40.953125 L 41.65625 -40.953125 C 42.46875 -40.953125 42.875 -40.546875 42.875 -39.734375 L 42.875 -38.328125 C 42.875 -37.515625 43.273438 -37.109375 44.078125 -37.109375 L 45.5 -37.109375 C 46.300781 -37.109375 46.703125 -36.703125 46.703125 -35.890625 L 46.703125 -25.53125 C 46.703125 -24.71875 46.300781 -24.3125 45.5 -24.3125 L 44.078125 -24.3125 C 43.273438 -24.3125 42.875 -23.90625 42.875 -23.09375 L 42.875 -21.6875 C 42.875 -20.875 42.46875 -20.46875 41.65625 -20.46875 L 22.96875 -20.46875 C 22.15625 -20.46875 21.75 -20.066406 21.75 -19.265625 L 21.75 -5.0625 C 21.75 -4.25 22.15625 -3.84375 22.96875 -3.84375 L 24.375 -3.84375 C 25.1875 -3.84375 25.59375 -4.25 25.59375 -5.0625 L 25.59375 -6.46875 C 25.59375 -7.269531 26 -7.671875 26.8125 -7.671875 L 28.21875 -7.671875 C 29.03125 -7.671875 29.4375 -8.078125 29.4375 -8.890625 L 29.4375 -13.3125 C 29.4375 -14.125 29.84375 -14.53125 30.65625 -14.53125 L 45.5 -14.53125 C 46.300781 -14.53125 46.703125 -14.125 46.703125 -13.3125 L 46.703125 -8.890625 C 46.703125 -8.078125 46.300781 -7.671875 45.5 -7.671875 L 44.078125 -7.671875 C 43.273438 -7.671875 42.875 -7.269531 42.875 -6.46875 L 42.875 -5.0625 C 42.875 -4.25 42.46875 -3.84375 41.65625 -3.84375 L 40.25 -3.84375 C 39.4375 -3.84375 39.03125 -3.4375 39.03125 -2.625 L 39.03125 -1.21875 C 39.03125 -0.40625 38.625 0 37.8125 0 L 13.375 0 C 12.5625 0 12.15625 -0.40625 12.15625 -1.21875 Z M 22.96875 -24.3125 L 28.21875 -24.3125 C 29.03125 -24.3125 29.4375 -24.71875 29.4375 -25.53125 L 29.4375 -39.734375 C 29.4375 -40.546875 29.03125 -40.953125 28.21875 -40.953125 L 26.8125 -40.953125 C 26 -40.953125 25.59375 -40.546875 25.59375 -39.734375 L 25.59375 -38.328125 C 25.59375 -37.515625 25.1875 -37.109375 24.375 -37.109375 L 22.96875 -37.109375 C 22.15625 -37.109375 21.75 -36.703125 21.75 -35.890625 L 21.75 -25.53125 C 21.75 -24.71875 22.15625 -24.3125 22.96875 -24.3125 Z M 22.96875 -24.3125 "/></g></g></g><g fill="#242424" fill-opacity="1"><g transform="translate(310.413252, 184.995163)"><g><path d="M 10.875 -1.21875 L 10.875 -2.625 C 10.875 -3.4375 10.46875 -3.84375 9.65625 -3.84375 L 8.25 -3.84375 C 7.4375 -3.84375 7.03125 -4.25 7.03125 -5.0625 L 7.03125 -39.796875 C 7.03125 -40.609375 6.628906 -41.015625 5.828125 -41.015625 L 3.78125 -41.015625 C 2.96875 -41.015625 2.5625 -41.421875 2.5625 -42.234375 L 2.5625 -43.578125 C 2.5625 -44.390625 2.96875 -44.796875 3.78125 -44.796875 L 5.828125 -44.796875 C 6.628906 -44.796875 7.03125 -45.195312 7.03125 -46 L 7.03125 -54.90625 C 7.03125 -55.707031 7.4375 -56.109375 8.25 -56.109375 L 23.09375 -56.109375 C 23.90625 -56.109375 24.3125 -55.707031 24.3125 -54.90625 L 24.3125 -46 C 24.3125 -45.195312 24.71875 -44.796875 25.53125 -44.796875 L 32 -44.796875 C 32.800781 -44.796875 33.203125 -44.390625 33.203125 -43.578125 L 33.203125 -42.234375 C 33.203125 -41.421875 32.800781 -41.015625 32 -41.015625 L 25.53125 -41.015625 C 24.71875 -41.015625 24.3125 -40.609375 24.3125 -39.796875 L 24.3125 -5.0625 C 24.3125 -4.25 24.71875 -3.84375 25.53125 -3.84375 L 26.9375 -3.84375 C 27.75 -3.84375 28.15625 -4.25 28.15625 -5.0625 L 28.15625 -11.578125 C 28.15625 -12.390625 28.5625 -12.796875 29.375 -12.796875 L 39.734375 -12.796875 C 40.546875 -12.796875 40.953125 -12.390625 40.953125 -11.578125 L 40.953125 -5.0625 C 40.953125 -4.25 40.546875 -3.84375 39.734375 -3.84375 L 36.40625 -3.84375 C 35.59375 -3.84375 35.1875 -3.4375 35.1875 -2.625 L 35.1875 -1.21875 C 35.1875 -0.40625 34.78125 0 33.96875 0 L 12.09375 0 C 11.28125 0 10.875 -0.40625 10.875 -1.21875 Z M 10.875 -1.21875 "/></g></g></g><path stroke-linecap="butt" transform="matrix(0.934385, 0, 0, 0.934385, 22.966563, 104.890042)" fill="none" stroke-linejoin="miter" d="M 4.797441 77.696303 L 4.797441 16.21283 C 4.797441 15.343273 5.232219 14.908495 6.101775 14.908495 L 40.470146 14.908495 C 41.339702 14.908495 41.77448 15.343273 41.77448 16.21283 L 41.77448 17.717831 C 41.77448 18.587387 42.205078 19.022165 43.062092 19.022165 L 44.567093 19.022165 C 45.43665 19.022165 45.871428 19.456943 45.871428 20.326499 L 45.871428 21.8315 C 45.871428 22.701056 46.306206 23.135834 47.171581 23.135834 L 48.676582 23.135834 C 49.546139 23.135834 49.980917 23.562251 49.980917 24.419266 L 49.980917 69.489866 C 49.980917 70.346881 49.546139 70.777478 48.676582 70.777478 L 47.171581 70.777478 C 46.306206 70.777478 45.871428 71.212256 45.871428 72.077632 L 45.871428 73.582633 C 45.871428 74.452189 45.43665 74.886967 44.567093 74.886967 L 43.062092 74.886967 C 42.205078 74.886967 41.77448 75.321745 41.77448 76.191301 L 41.77448 77.696303 C 41.77448 78.565859 41.339702 79.000637 40.470146 79.000637 L 6.101775 79.000637 C 5.232219 79.000637 4.797441 78.565859 4.797441 77.696303 Z M 23.283871 20.326499 L 23.283871 73.582633 C 23.283871 74.452189 23.714468 74.886967 24.571483 74.886967 L 26.093206 74.886967 C 26.95022 74.886967 27.380818 74.452189 27.380818 73.582633 L 27.380818 72.077632 C 27.380818 71.212256 27.815596 70.777478 28.685152 70.777478 L 30.190153 70.777478 C 31.059709 70.777478 31.494487 70.346881 31.494487 69.489866 L 31.494487 24.419266 C 31.494487 23.562251 31.059709 23.135834 30.190153 23.135834 L 28.685152 23.135834 C 27.815596 23.135834 27.380818 22.701056 27.380818 21.8315 L 27.380818 20.326499 C 27.380818 19.456943 26.95022 19.022165 26.093206 19.022165 L 24.571483 19.022165 C 23.714468 19.022165 23.283871 19.456943 23.283871 20.326499 Z M 83.592606 57.153038 L 77.994839 57.153038 C 77.125283 57.153038 76.690505 57.587816 76.690505 58.457373 L 76.690505 73.582633 C 76.690505 74.452189 77.125283 74.886967 77.994839 74.886967 L 79.49984 74.886967 C 80.356854 74.886967 80.787452 74.452189 80.787452 73.582633 L 80.787452 72.077632 C 80.787452 71.212256 81.22223 70.777478 82.087605 70.777478 L 83.592606 70.777478 C 84.462163 70.777478 84.896941 70.346881 84.896941 69.489866 L 84.896941 58.457373 C 84.896941 57.587816 84.462163 57.153038 83.592606 57.153038 Z M 62.313564 77.696303 L 62.313564 76.191301 C 62.313564 75.321745 61.878786 74.886967 61.00923 74.886967 L 59.504229 74.886967 C 58.634673 74.886967 58.199895 74.452189 58.199895 73.582633 L 58.199895 58.457373 C 58.199895 57.587816 58.634673 57.153038 59.504229 57.153038 L 61.00923 57.153038 C 61.878786 57.153038 62.313564 56.722441 62.313564 55.865426 L 62.313564 54.343703 C 62.313564 53.486689 62.744162 53.056091 63.601176 53.056091 L 79.49984 53.056091 C 80.356854 53.056091 80.787452 52.621313 80.787452 51.751757 L 80.787452 50.246756 C 80.787452 49.3772 81.22223 48.942422 82.087605 48.942422 L 85.649441 48.942422 C 86.518997 48.942422 86.953775 48.507644 86.953775 47.642268 L 86.953775 36.471816 C 86.953775 35.614801 86.518997 35.188384 85.649441 35.188384 L 82.087605 35.188384 C 81.22223 35.188384 80.787452 35.614801 80.787452 36.471816 L 80.787452 42.090486 C 80.787452 42.960043 80.356854 43.394821 79.49984 43.394821 L 77.994839 43.394821 C 77.125283 43.394821 76.690505 43.829599 76.690505 44.699155 L 76.690505 48.25681 C 76.690505 49.126366 76.255726 49.561144 75.38617 49.561144 L 61.561064 49.561144 C 60.691507 49.561144 60.256729 49.126366 60.256729 48.25681 L 60.256729 36.471816 C 60.256729 35.614801 60.691507 35.188384 61.561064 35.188384 L 64.086121 35.188384 C 64.955677 35.188384 65.390455 34.753606 65.390455 33.88405 L 65.390455 32.379049 C 65.390455 31.509493 65.825233 31.074715 66.694789 31.074715 L 97.986269 31.074715 C 98.843284 31.074715 99.273881 31.509493 99.273881 32.379049 L 99.273881 33.88405 C 99.273881 34.753606 99.708659 35.188384 100.578215 35.188384 L 102.083216 35.188384 C 102.952773 35.188384 103.387551 35.614801 103.387551 36.471816 L 103.387551 77.696303 C 103.387551 78.565859 102.952773 79.000637 102.083216 79.000637 L 90.314944 79.000637 C 89.445388 79.000637 89.01061 78.565859 89.01061 77.696303 L 89.01061 76.191301 C 89.01061 75.321745 88.575832 74.886967 87.706276 74.886967 L 86.201275 74.886967 C 85.331719 74.886967 84.896941 75.321745 84.896941 76.191301 L 84.896941 77.696303 C 84.896941 78.565859 84.462163 79.000637 83.592606 79.000637 L 63.601176 79.000637 C 62.744162 79.000637 62.313564 78.565859 62.313564 77.696303 Z M 119.817145 77.696303 L 119.817145 76.191301 C 119.817145 75.321745 119.382367 74.886967 118.512811 74.886967 L 117.00781 74.886967 C 116.150796 74.886967 115.720198 74.452189 115.720198 73.582633 L 115.720198 36.404927 C 115.720198 35.539551 115.28542 35.104773 114.415864 35.104773 L 112.225251 35.104773 C 111.355695 35.104773 110.920917 34.674176 110.920917 33.817161 L 110.920917 32.379049 C 110.920917 31.509493 111.355695 31.074715 112.225251 31.074715 L 114.415864 31.074715 C 115.28542 31.074715 115.720198 30.639937 115.720198 29.770381 L 115.720198 20.25961 C 115.720198 19.390054 116.150796 18.955276 117.00781 18.955276 L 132.902293 18.955276 C 133.763488 18.955276 134.189905 19.390054 134.189905 20.25961 L 134.189905 29.770381 C 134.189905 30.639937 134.624683 31.074715 135.494239 31.074715 L 142.417244 31.074715 C 143.2868 31.074715 143.721578 31.509493 143.721578 32.379049 L 143.721578 33.817161 C 143.721578 34.674176 143.2868 35.104773 142.417244 35.104773 L 135.494239 35.104773 C 134.624683 35.104773 134.189905 35.539551 134.189905 36.404927 L 134.189905 73.582633 C 134.189905 74.452189 134.624683 74.886967 135.494239 74.886967 L 136.99924 74.886967 C 137.868797 74.886967 138.303575 74.452189 138.303575 73.582633 L 138.303575 66.613642 C 138.303575 65.744086 138.738353 65.309308 139.607909 65.309308 L 150.707292 65.309308 C 151.564306 65.309308 151.994904 65.744086 151.994904 66.613642 L 151.994904 73.582633 C 151.994904 74.452189 151.564306 74.886967 150.707292 74.886967 L 147.145456 74.886967 C 146.2759 74.886967 145.841122 75.321745 145.841122 76.191301 L 145.841122 77.696303 C 145.841122 78.565859 145.406343 79.000637 144.536787 79.000637 L 121.117299 79.000637 C 120.251923 79.000637 119.817145 78.565859 119.817145 77.696303 Z M 181.505466 57.153038 L 175.903517 57.153038 C 175.033961 57.153038 174.599183 57.587816 174.599183 58.457373 L 174.599183 73.582633 C 174.599183 74.452189 175.033961 74.886967 175.903517 74.886967 L 177.408518 74.886967 C 178.265533 74.886967 178.69613 74.452189 178.69613 73.582633 L 178.69613 72.077632 C 178.69613 71.212256 179.130908 70.777478 180.000465 70.777478 L 181.505466 70.777478 C 182.375022 70.777478 182.8098 70.346881 182.8098 69.489866 L 182.8098 58.457373 C 182.8098 57.587816 182.375022 57.153038 181.505466 57.153038 Z M 160.226423 77.696303 L 160.226423 76.191301 C 160.226423 75.321745 159.791645 74.886967 158.922089 74.886967 L 157.417088 74.886967 C 156.547532 74.886967 156.112754 74.452189 156.112754 73.582633 L 156.112754 58.457373 C 156.112754 57.587816 156.547532 57.153038 157.417088 57.153038 L 158.922089 57.153038 C 159.791645 57.153038 160.226423 56.722441 160.226423 55.865426 L 160.226423 54.343703 C 160.226423 53.486689 160.65284 53.056091 161.509855 53.056091 L 177.408518 53.056091 C 178.265533 53.056091 178.69613 52.621313 178.69613 51.751757 L 178.69613 50.246756 C 178.69613 49.3772 179.130908 48.942422 180.000465 48.942422 L 183.5623 48.942422 C 184.427676 48.942422 184.862454 48.507644 184.862454 47.642268 L 184.862454 36.471816 C 184.862454 35.614801 184.427676 35.188384 183.5623 35.188384 L 180.000465 35.188384 C 179.130908 35.188384 178.69613 35.614801 178.69613 36.471816 L 178.69613 42.090486 C 178.69613 42.960043 178.265533 43.394821 177.408518 43.394821 L 175.903517 43.394821 C 175.033961 43.394821 174.599183 43.829599 174.599183 44.699155 L 174.599183 48.25681 C 174.599183 49.126366 174.164405 49.561144 173.294849 49.561144 L 159.473923 49.561144 C 158.604366 49.561144 158.169588 49.126366 158.169588 48.25681 L 158.169588 36.471816 C 158.169588 35.614801 158.604366 35.188384 159.473923 35.188384 L 161.994799 35.188384 C 162.864356 35.188384 163.299134 34.753606 163.299134 33.88405 L 163.299134 32.379049 C 163.299134 31.509493 163.733912 31.074715 164.603468 31.074715 L 195.899128 31.074715 C 196.756143 31.074715 197.18256 31.509493 197.18256 32.379049 L 197.18256 33.88405 C 197.18256 34.753606 197.617338 35.188384 198.486894 35.188384 L 199.991895 35.188384 C 200.861451 35.188384 201.296229 35.614801 201.296229 36.471816 L 201.296229 77.696303 C 201.296229 78.565859 200.861451 79.000637 199.991895 79.000637 L 188.223623 79.000637 C 187.354067 79.000637 186.919289 78.565859 186.919289 77.696303 L 186.919289 76.191301 C 186.919289 75.321745 186.484511 74.886967 185.614955 74.886967 L 184.114134 74.886967 C 183.244578 74.886967 182.8098 75.321745 182.8098 76.191301 L 182.8098 77.696303 C 182.8098 78.565859 182.375022 79.000637 181.505466 79.000637 L 161.509855 79.000637 C 160.65284 79.000637 160.226423 78.565859 160.226423 77.696303 Z M 214.314488 77.696303 L 214.314488 76.191301 C 214.314488 75.321745 213.87971 74.886967 213.010154 74.886967 L 211.505153 74.886967 C 210.639777 74.886967 210.204999 74.452189 210.204999 73.582633 L 210.204999 61.814361 C 210.204999 60.944805 210.639777 60.510027 211.505153 60.510027 L 227.387094 60.510027 C 228.256651 60.510027 228.691429 60.944805 228.691429 61.814361 L 228.691429 73.582633 C 228.691429 74.452189 229.126207 74.886967 229.995763 74.886967 L 231.500764 74.886967 C 232.357778 74.886967 232.788376 74.452189 232.788376 73.582633 L 232.788376 72.077632 C 232.788376 71.212256 233.223154 70.777478 234.09271 70.777478 L 235.66042 70.777478 C 236.529976 70.777478 236.964754 70.346881 236.964754 69.489866 L 236.964754 62.63375 C 236.964754 61.764194 236.529976 61.329416 235.66042 61.329416 L 234.159599 61.329416 C 233.298404 61.329416 232.871987 60.894638 232.871987 60.025082 L 232.871987 58.524262 C 232.871987 57.654705 232.437209 57.219927 231.567653 57.219927 L 215.6021 57.219927 C 214.745086 57.219927 214.314488 56.78933 214.314488 55.932315 L 214.314488 54.427314 C 214.314488 53.557758 213.87971 53.12298 213.010154 53.12298 L 211.505153 53.12298 C 210.639777 53.12298 210.204999 52.688202 210.204999 51.818646 L 210.204999 36.471816 C 210.204999 35.614801 210.639777 35.188384 211.505153 35.188384 L 212.525209 35.188384 C 213.394765 35.188384 213.829543 34.753606 213.829543 33.88405 L 213.829543 32.379049 C 213.829543 31.509493 214.264321 31.074715 215.133878 31.074715 L 249.301582 31.074715 C 250.162777 31.074715 250.589194 31.509493 250.589194 32.379049 L 250.589194 33.88405 C 250.589194 34.753606 251.023972 35.188384 251.893528 35.188384 L 253.398529 35.188384 C 254.268085 35.188384 254.702863 35.614801 254.702863 36.471816 L 254.702863 48.25681 C 254.702863 49.126366 254.268085 49.561144 253.398529 49.561144 L 242.315869 49.561144 C 241.446312 49.561144 241.011534 49.126366 241.011534 48.25681 L 241.011534 46.75599 C 241.011534 45.886433 240.576756 45.451655 239.7072 45.451655 L 238.202199 45.451655 C 237.332643 45.451655 236.897865 45.016877 236.897865 44.147321 L 236.897865 36.471816 C 236.897865 35.614801 236.463087 35.188384 235.593531 35.188384 L 234.09271 35.188384 C 233.223154 35.188384 232.788376 35.614801 232.788376 36.471816 L 232.788376 37.993539 C 232.788376 38.854734 232.357778 39.281151 231.500764 39.281151 L 229.995763 39.281151 C 229.126207 39.281151 228.691429 39.715929 228.691429 40.585485 L 228.691429 47.709157 C 228.691429 48.574532 229.126207 49.009311 229.995763 49.009311 L 231.500764 49.009311 C 232.357778 49.009311 232.788376 49.444089 232.788376 50.313645 L 232.788376 51.818646 C 232.788376 52.688202 233.223154 53.12298 234.09271 53.12298 L 249.368471 53.12298 C 250.229666 53.12298 250.656083 53.557758 250.656083 54.427314 L 250.656083 55.932315 C 250.656083 56.78933 251.090861 57.219927 251.960417 57.219927 L 253.465418 57.219927 C 254.334974 57.219927 254.769752 57.654705 254.769752 58.524262 L 254.769752 73.582633 C 254.769752 74.452189 254.334974 74.886967 253.465418 74.886967 L 251.960417 74.886967 C 251.090861 74.886967 250.656083 75.321745 250.656083 76.191301 L 250.656083 77.696303 C 250.656083 78.565859 250.229666 79.000637 249.368471 79.000637 L 215.6021 79.000637 C 214.745086 79.000637 214.314488 78.565859 214.314488 77.696303 Z M 272.503681 77.696303 L 272.503681 76.191301 C 272.503681 75.321745 272.068903 74.886967 271.199347 74.886967 L 269.694346 74.886967 C 268.82479 74.886967 268.390012 74.452189 268.390012 73.582633 L 268.390012 72.077632 C 268.390012 71.212256 267.959414 70.777478 267.1024 70.777478 L 265.597398 70.777478 C 264.727842 70.777478 264.293064 70.346881 264.293064 69.489866 L 264.293064 40.585485 C 264.293064 39.715929 264.727842 39.281151 265.597398 39.281151 L 267.1024 39.281151 C 267.959414 39.281151 268.390012 38.854734 268.390012 37.993539 L 268.390012 36.471816 C 268.390012 35.614801 268.82479 35.188384 269.694346 35.188384 L 271.199347 35.188384 C 272.068903 35.188384 272.503681 34.753606 272.503681 33.88405 L 272.503681 32.379049 C 272.503681 31.509493 272.938459 31.074715 273.808015 31.074715 L 299.965769 31.074715 C 300.835326 31.074715 301.270104 31.509493 301.270104 32.379049 L 301.270104 33.88405 C 301.270104 34.753606 301.700701 35.188384 302.557716 35.188384 L 304.062717 35.188384 C 304.932273 35.188384 305.367051 35.614801 305.367051 36.471816 L 305.367051 37.993539 C 305.367051 38.854734 305.801829 39.281151 306.671385 39.281151 L 308.176386 39.281151 C 309.045942 39.281151 309.47654 39.715929 309.47654 40.585485 L 309.47654 51.684868 C 309.47654 52.554424 309.045942 52.989202 308.176386 52.989202 L 306.671385 52.989202 C 305.801829 52.989202 305.367051 53.4198 305.367051 54.276814 L 305.367051 55.781815 C 305.367051 56.651371 304.932273 57.086149 304.062717 57.086149 L 284.071286 57.086149 C 283.210091 57.086149 282.783674 57.520928 282.783674 58.390484 L 282.783674 73.582633 C 282.783674 74.452189 283.210091 74.886967 284.071286 74.886967 L 285.593009 74.886967 C 286.450024 74.886967 286.876441 74.452189 286.876441 73.582633 L 286.876441 72.077632 C 286.876441 71.212256 287.311219 70.777478 288.180775 70.777478 L 289.685776 70.777478 C 290.555332 70.777478 290.99011 70.346881 290.99011 69.489866 L 290.99011 64.757474 C 290.99011 63.887918 291.424888 63.45314 292.294445 63.45314 L 308.176386 63.45314 C 309.045942 63.45314 309.47654 63.887918 309.47654 64.757474 L 309.47654 69.489866 C 309.47654 70.346881 309.045942 70.777478 308.176386 70.777478 L 306.671385 70.777478 C 305.801829 70.777478 305.367051 71.212256 305.367051 72.077632 L 305.367051 73.582633 C 305.367051 74.452189 304.932273 74.886967 304.062717 74.886967 L 302.557716 74.886967 C 301.700701 74.886967 301.270104 75.321745 301.270104 76.191301 L 301.270104 77.696303 C 301.270104 78.565859 300.835326 79.000637 299.965769 79.000637 L 273.808015 79.000637 C 272.938459 79.000637 272.503681 78.565859 272.503681 77.696303 Z M 284.071286 52.989202 L 289.685776 52.989202 C 290.555332 52.989202 290.99011 52.554424 290.99011 51.684868 L 290.99011 36.471816 C 290.99011 35.614801 290.555332 35.188384 289.685776 35.188384 L 288.180775 35.188384 C 287.311219 35.188384 286.876441 35.614801 286.876441 36.471816 L 286.876441 37.993539 C 286.876441 38.854734 286.450024 39.281151 285.593009 39.281151 L 284.071286 39.281151 C 283.210091 39.281151 282.783674 39.715929 282.783674 40.585485 L 282.783674 51.684868 C 282.783674 52.554424 283.210091 52.989202 284.071286 52.989202 Z M 324.539092 77.696303 L 324.539092 76.191301 C 324.539092 75.321745 324.104314 74.886967 323.234758 74.886967 L 321.729757 74.886967 C 320.868562 74.886967 320.442145 74.452189 320.442145 73.582633 L 320.442145 36.404927 C 320.442145 35.539551 320.007366 35.104773 319.13781 35.104773 L 316.947198 35.104773 C 316.077642 35.104773 315.642863 34.674176 315.642863 33.817161 L 315.642863 32.379049 C 315.642863 31.509493 316.077642 31.074715 316.947198 31.074715 L 319.13781 31.074715 C 320.007366 31.074715 320.442145 30.639937 320.442145 29.770381 L 320.442145 20.25961 C 320.442145 19.390054 320.868562 18.955276 321.729757 18.955276 L 337.62424 18.955276 C 338.485435 18.955276 338.911852 19.390054 338.911852 20.25961 L 338.911852 29.770381 C 338.911852 30.639937 339.34663 31.074715 340.216186 31.074715 L 347.139191 31.074715 C 348.008747 31.074715 348.439344 31.509493 348.439344 32.379049 L 348.439344 33.817161 C 348.439344 34.674176 348.008747 35.104773 347.139191 35.104773 L 340.216186 35.104773 C 339.34663 35.104773 338.911852 35.539551 338.911852 36.404927 L 338.911852 73.582633 C 338.911852 74.452189 339.34663 74.886967 340.216186 74.886967 L 341.721187 74.886967 C 342.590743 74.886967 343.025521 74.452189 343.025521 73.582633 L 343.025521 66.613642 C 343.025521 65.744086 343.460299 65.309308 344.329855 65.309308 L 355.429238 65.309308 C 356.286253 65.309308 356.71685 65.744086 356.71685 66.613642 L 356.71685 73.582633 C 356.71685 74.452189 356.286253 74.886967 355.429238 74.886967 L 351.867402 74.886967 C 350.997846 74.886967 350.563068 75.321745 350.563068 76.191301 L 350.563068 77.696303 C 350.563068 78.565859 350.12829 79.000637 349.258734 79.000637 L 325.839246 79.000637 C 324.969689 79.000637 324.539092 78.565859 324.539092 77.696303 Z M 324.539092 77.696303 " stroke="#242424" stroke-width="9.415491" stroke-opacity="1" stroke-miterlimit="4"/><g fill="#c1ff72" fill-opacity="1"><g transform="translate(22.966563, 178.706436)"><g><path d="M 4.484375 -1.21875 L 4.484375 -58.671875 C 4.484375 -59.484375 4.882812 -59.890625 5.6875 -59.890625 L 37.8125 -59.890625 C 38.625 -59.890625 39.03125 -59.484375 39.03125 -58.671875 L 39.03125 -57.265625 C 39.03125 -56.453125 39.4375 -56.046875 40.25 -56.046875 L 41.65625 -56.046875 C 42.46875 -56.046875 42.875 -55.640625 42.875 -54.828125 L 42.875 -53.421875 C 42.875 -52.617188 43.273438 -52.21875 44.078125 -52.21875 L 45.5 -52.21875 C 46.300781 -52.21875 46.703125 -51.8125 46.703125 -51 L 46.703125 -8.890625 C 46.703125 -8.078125 46.300781 -7.671875 45.5 -7.671875 L 44.078125 -7.671875 C 43.273438 -7.671875 42.875 -7.269531 42.875 -6.46875 L 42.875 -5.0625 C 42.875 -4.25 42.46875 -3.84375 41.65625 -3.84375 L 40.25 -3.84375 C 39.4375 -3.84375 39.03125 -3.4375 39.03125 -2.625 L 39.03125 -1.21875 C 39.03125 -0.40625 38.625 0 37.8125 0 L 5.6875 0 C 4.882812 0 4.484375 -0.40625 4.484375 -1.21875 Z M 21.75 -54.828125 L 21.75 -5.0625 C 21.75 -4.25 22.15625 -3.84375 22.96875 -3.84375 L 24.375 -3.84375 C 25.1875 -3.84375 25.59375 -4.25 25.59375 -5.0625 L 25.59375 -6.46875 C 25.59375 -7.269531 26 -7.671875 26.8125 -7.671875 L 28.21875 -7.671875 C 29.03125 -7.671875 29.4375 -8.078125 29.4375 -8.890625 L 29.4375 -51 C 29.4375 -51.8125 29.03125 -52.21875 28.21875 -52.21875 L 26.8125 -52.21875 C 26 -52.21875 25.59375 -52.617188 25.59375 -53.421875 L 25.59375 -54.828125 C 25.59375 -55.640625 25.1875 -56.046875 24.375 -56.046875 L 22.96875 -56.046875 C 22.15625 -56.046875 21.75 -55.640625 21.75 -54.828125 Z M 21.75 -54.828125 "/></g></g></g><g fill="#c1ff72" fill-opacity="1"><g transform="translate(74.147538, 178.706436)"><g><path d="M 26.9375 -20.40625 L 21.6875 -20.40625 C 20.875 -20.40625 20.46875 -20.003906 20.46875 -19.203125 L 20.46875 -5.0625 C 20.46875 -4.25 20.875 -3.84375 21.6875 -3.84375 L 23.09375 -3.84375 C 23.90625 -3.84375 24.3125 -4.25 24.3125 -5.0625 L 24.3125 -6.46875 C 24.3125 -7.269531 24.71875 -7.671875 25.53125 -7.671875 L 26.9375 -7.671875 C 27.75 -7.671875 28.15625 -8.078125 28.15625 -8.890625 L 28.15625 -19.203125 C 28.15625 -20.003906 27.75 -20.40625 26.9375 -20.40625 Z M 7.03125 -1.21875 L 7.03125 -2.625 C 7.03125 -3.4375 6.628906 -3.84375 5.828125 -3.84375 L 4.421875 -3.84375 C 3.609375 -3.84375 3.203125 -4.25 3.203125 -5.0625 L 3.203125 -19.203125 C 3.203125 -20.003906 3.609375 -20.40625 4.421875 -20.40625 L 5.828125 -20.40625 C 6.628906 -20.40625 7.03125 -20.8125 7.03125 -21.625 L 7.03125 -23.03125 C 7.03125 -23.84375 7.4375 -24.25 8.25 -24.25 L 23.09375 -24.25 C 23.90625 -24.25 24.3125 -24.65625 24.3125 -25.46875 L 24.3125 -26.875 C 24.3125 -27.6875 24.71875 -28.09375 25.53125 -28.09375 L 28.859375 -28.09375 C 29.671875 -28.09375 30.078125 -28.5 30.078125 -29.3125 L 30.078125 -39.734375 C 30.078125 -40.546875 29.671875 -40.953125 28.859375 -40.953125 L 25.53125 -40.953125 C 24.71875 -40.953125 24.3125 -40.546875 24.3125 -39.734375 L 24.3125 -34.484375 C 24.3125 -33.671875 23.90625 -33.265625 23.09375 -33.265625 L 21.6875 -33.265625 C 20.875 -33.265625 20.46875 -32.863281 20.46875 -32.0625 L 20.46875 -28.734375 C 20.46875 -27.921875 20.066406 -27.515625 19.265625 -27.515625 L 6.328125 -27.515625 C 5.523438 -27.515625 5.125 -27.921875 5.125 -28.734375 L 5.125 -39.734375 C 5.125 -40.546875 5.523438 -40.953125 6.328125 -40.953125 L 8.703125 -40.953125 C 9.515625 -40.953125 9.921875 -41.359375 9.921875 -42.171875 L 9.921875 -43.578125 C 9.921875 -44.390625 10.328125 -44.796875 11.140625 -44.796875 L 40.375 -44.796875 C 41.1875 -44.796875 41.59375 -44.390625 41.59375 -43.578125 L 41.59375 -42.171875 C 41.59375 -41.359375 42 -40.953125 42.8125 -40.953125 L 44.21875 -40.953125 C 45.019531 -40.953125 45.421875 -40.546875 45.421875 -39.734375 L 45.421875 -1.21875 C 45.421875 -0.40625 45.019531 0 44.21875 0 L 33.203125 0 C 32.398438 0 32 -0.40625 32 -1.21875 L 32 -2.625 C 32 -3.4375 31.59375 -3.84375 30.78125 -3.84375 L 29.375 -3.84375 C 28.5625 -3.84375 28.15625 -3.4375 28.15625 -2.625 L 28.15625 -1.21875 C 28.15625 -0.40625 27.75 0 26.9375 0 L 8.25 0 C 7.4375 0 7.03125 -0.40625 7.03125 -1.21875 Z M 7.03125 -1.21875 "/></g></g></g><g fill="#c1ff72" fill-opacity="1"><g transform="translate(124.048981, 178.706436)"><g><path d="M 10.875 -1.21875 L 10.875 -2.625 C 10.875 -3.4375 10.46875 -3.84375 9.65625 -3.84375 L 8.25 -3.84375 C 7.4375 -3.84375 7.03125 -4.25 7.03125 -5.0625 L 7.03125 -39.796875 C 7.03125 -40.609375 6.628906 -41.015625 5.828125 -41.015625 L 3.78125 -41.015625 C 2.96875 -41.015625 2.5625 -41.421875 2.5625 -42.234375 L 2.5625 -43.578125 C 2.5625 -44.390625 2.96875 -44.796875 3.78125 -44.796875 L 5.828125 -44.796875 C 6.628906 -44.796875 7.03125 -45.195312 7.03125 -46 L 7.03125 -54.90625 C 7.03125 -55.707031 7.4375 -56.109375 8.25 -56.109375 L 23.09375 -56.109375 C 23.90625 -56.109375 24.3125 -55.707031 24.3125 -54.90625 L 24.3125 -46 C 24.3125 -45.195312 24.71875 -44.796875 25.53125 -44.796875 L 32 -44.796875 C 32.800781 -44.796875 33.203125 -44.390625 33.203125 -43.578125 L 33.203125 -42.234375 C 33.203125 -41.421875 32.800781 -41.015625 32 -41.015625 L 25.53125 -41.015625 C 24.71875 -41.015625 24.3125 -40.609375 24.3125 -39.796875 L 24.3125 -5.0625 C 24.3125 -4.25 24.71875 -3.84375 25.53125 -3.84375 L 26.9375 -3.84375 C 27.75 -3.84375 28.15625 -4.25 28.15625 -5.0625 L 28.15625 -11.578125 C 28.15625 -12.390625 28.5625 -12.796875 29.375 -12.796875 L 39.734375 -12.796875 C 40.546875 -12.796875 40.953125 -12.390625 40.953125 -11.578125 L 40.953125 -5.0625 C 40.953125 -4.25 40.546875 -3.84375 39.734375 -3.84375 L 36.40625 -3.84375 C 35.59375 -3.84375 35.1875 -3.4375 35.1875 -2.625 L 35.1875 -1.21875 C 35.1875 -0.40625 34.78125 0 33.96875 0 L 12.09375 0 C 11.28125 0 10.875 -0.40625 10.875 -1.21875 Z M 10.875 -1.21875 "/></g></g></g><g fill="#c1ff72" fill-opacity="1"><g transform="translate(165.633522, 178.706436)"><g><path d="M 26.9375 -20.40625 L 21.6875 -20.40625 C 20.875 -20.40625 20.46875 -20.003906 20.46875 -19.203125 L 20.46875 -5.0625 C 20.46875 -4.25 20.875 -3.84375 21.6875 -3.84375 L 23.09375 -3.84375 C 23.90625 -3.84375 24.3125 -4.25 24.3125 -5.0625 L 24.3125 -6.46875 C 24.3125 -7.269531 24.71875 -7.671875 25.53125 -7.671875 L 26.9375 -7.671875 C 27.75 -7.671875 28.15625 -8.078125 28.15625 -8.890625 L 28.15625 -19.203125 C 28.15625 -20.003906 27.75 -20.40625 26.9375 -20.40625 Z M 7.03125 -1.21875 L 7.03125 -2.625 C 7.03125 -3.4375 6.628906 -3.84375 5.828125 -3.84375 L 4.421875 -3.84375 C 3.609375 -3.84375 3.203125 -4.25 3.203125 -5.0625 L 3.203125 -19.203125 C 3.203125 -20.003906 3.609375 -20.40625 4.421875 -20.40625 L 5.828125 -20.40625 C 6.628906 -20.40625 7.03125 -20.8125 7.03125 -21.625 L 7.03125 -23.03125 C 7.03125 -23.84375 7.4375 -24.25 8.25 -24.25 L 23.09375 -24.25 C 23.90625 -24.25 24.3125 -24.65625 24.3125 -25.46875 L 24.3125 -26.875 C 24.3125 -27.6875 24.71875 -28.09375 25.53125 -28.09375 L 28.859375 -28.09375 C 29.671875 -28.09375 30.078125 -28.5 30.078125 -29.3125 L 30.078125 -39.734375 C 30.078125 -40.546875 29.671875 -40.953125 28.859375 -40.953125 L 25.53125 -40.953125 C 24.71875 -40.953125 24.3125 -40.546875 24.3125 -39.734375 L 24.3125 -34.484375 C 24.3125 -33.671875 23.90625 -33.265625 23.09375 -33.265625 L 21.6875 -33.265625 C 20.875 -33.265625 20.46875 -32.863281 20.46875 -32.0625 L 20.46875 -28.734375 C 20.46875 -27.921875 20.066406 -27.515625 19.265625 -27.515625 L 6.328125 -27.515625 C 5.523438 -27.515625 5.125 -27.921875 5.125 -28.734375 L 5.125 -39.734375 C 5.125 -40.546875 5.523438 -40.953125 6.328125 -40.953125 L 8.703125 -40.953125 C 9.515625 -40.953125 9.921875 -41.359375 9.921875 -42.171875 L 9.921875 -43.578125 C 9.921875 -44.390625 10.328125 -44.796875 11.140625 -44.796875 L 40.375 -44.796875 C 41.1875 -44.796875 41.59375 -44.390625 41.59375 -43.578125 L 41.59375 -42.171875 C 41.59375 -41.359375 42 -40.953125 42.8125 -40.953125 L 44.21875 -40.953125 C 45.019531 -40.953125 45.421875 -40.546875 45.421875 -39.734375 L 45.421875 -1.21875 C 45.421875 -0.40625 45.019531 0 44.21875 0 L 33.203125 0 C 32.398438 0 32 -0.40625 32 -1.21875 L 32 -2.625 C 32 -3.4375 31.59375 -3.84375 30.78125 -3.84375 L 29.375 -3.84375 C 28.5625 -3.84375 28.15625 -3.4375 28.15625 -2.625 L 28.15625 -1.21875 C 28.15625 -0.40625 27.75 0 26.9375 0 L 8.25 0 C 7.4375 0 7.03125 -0.40625 7.03125 -1.21875 Z M 7.03125 -1.21875 "/></g></g></g><g fill="#c1ff72" fill-opacity="1"><g transform="translate(215.534965, 178.706436)"><g><path d="M 7.671875 -1.21875 L 7.671875 -2.625 C 7.671875 -3.4375 7.269531 -3.84375 6.46875 -3.84375 L 5.0625 -3.84375 C 4.25 -3.84375 3.84375 -4.25 3.84375 -5.0625 L 3.84375 -16.0625 C 3.84375 -16.875 4.25 -17.28125 5.0625 -17.28125 L 19.90625 -17.28125 C 20.707031 -17.28125 21.109375 -16.875 21.109375 -16.0625 L 21.109375 -5.0625 C 21.109375 -4.25 21.515625 -3.84375 22.328125 -3.84375 L 23.734375 -3.84375 C 24.546875 -3.84375 24.953125 -4.25 24.953125 -5.0625 L 24.953125 -6.46875 C 24.953125 -7.269531 25.359375 -7.671875 26.171875 -7.671875 L 27.640625 -7.671875 C 28.453125 -7.671875 28.859375 -8.078125 28.859375 -8.890625 L 28.859375 -15.296875 C 28.859375 -16.109375 28.453125 -16.515625 27.640625 -16.515625 L 26.234375 -16.515625 C 25.421875 -16.515625 25.015625 -16.914062 25.015625 -17.71875 L 25.015625 -19.125 C 25.015625 -19.9375 24.609375 -20.34375 23.796875 -20.34375 L 8.890625 -20.34375 C 8.078125 -20.34375 7.671875 -20.75 7.671875 -21.5625 L 7.671875 -22.96875 C 7.671875 -23.78125 7.269531 -24.1875 6.46875 -24.1875 L 5.0625 -24.1875 C 4.25 -24.1875 3.84375 -24.59375 3.84375 -25.40625 L 3.84375 -39.734375 C 3.84375 -40.546875 4.25 -40.953125 5.0625 -40.953125 L 6.015625 -40.953125 C 6.828125 -40.953125 7.234375 -41.359375 7.234375 -42.171875 L 7.234375 -43.578125 C 7.234375 -44.390625 7.640625 -44.796875 8.453125 -44.796875 L 40.375 -44.796875 C 41.1875 -44.796875 41.59375 -44.390625 41.59375 -43.578125 L 41.59375 -42.171875 C 41.59375 -41.359375 42 -40.953125 42.8125 -40.953125 L 44.21875 -40.953125 C 45.019531 -40.953125 45.421875 -40.546875 45.421875 -39.734375 L 45.421875 -28.734375 C 45.421875 -27.921875 45.019531 -27.515625 44.21875 -27.515625 L 33.84375 -27.515625 C 33.03125 -27.515625 32.625 -27.921875 32.625 -28.734375 L 32.625 -30.140625 C 32.625 -30.953125 32.222656 -31.359375 31.421875 -31.359375 L 30.015625 -31.359375 C 29.203125 -31.359375 28.796875 -31.757812 28.796875 -32.5625 L 28.796875 -39.734375 C 28.796875 -40.546875 28.390625 -40.953125 27.578125 -40.953125 L 26.171875 -40.953125 C 25.359375 -40.953125 24.953125 -40.546875 24.953125 -39.734375 L 24.953125 -38.328125 C 24.953125 -37.515625 24.546875 -37.109375 23.734375 -37.109375 L 22.328125 -37.109375 C 21.515625 -37.109375 21.109375 -36.703125 21.109375 -35.890625 L 21.109375 -29.234375 C 21.109375 -28.429688 21.515625 -28.03125 22.328125 -28.03125 L 23.734375 -28.03125 C 24.546875 -28.03125 24.953125 -27.625 24.953125 -26.8125 L 24.953125 -25.40625 C 24.953125 -24.59375 25.359375 -24.1875 26.171875 -24.1875 L 40.4375 -24.1875 C 41.25 -24.1875 41.65625 -23.78125 41.65625 -22.96875 L 41.65625 -21.5625 C 41.65625 -20.75 42.0625 -20.34375 42.875 -20.34375 L 44.28125 -20.34375 C 45.09375 -20.34375 45.5 -19.9375 45.5 -19.125 L 45.5 -5.0625 C 45.5 -4.25 45.09375 -3.84375 44.28125 -3.84375 L 42.875 -3.84375 C 42.0625 -3.84375 41.65625 -3.4375 41.65625 -2.625 L 41.65625 -1.21875 C 41.65625 -0.40625 41.25 0 40.4375 0 L 8.890625 0 C 8.078125 0 7.671875 -0.40625 7.671875 -1.21875 Z M 7.671875 -1.21875 "/></g></g></g><g fill="#c1ff72" fill-opacity="1"><g transform="translate(265.436408, 178.706436)"><g><path d="M 12.15625 -1.21875 L 12.15625 -2.625 C 12.15625 -3.4375 11.75 -3.84375 10.9375 -3.84375 L 9.53125 -3.84375 C 8.71875 -3.84375 8.3125 -4.25 8.3125 -5.0625 L 8.3125 -6.46875 C 8.3125 -7.269531 7.910156 -7.671875 7.109375 -7.671875 L 5.6875 -7.671875 C 4.882812 -7.671875 4.484375 -8.078125 4.484375 -8.890625 L 4.484375 -35.890625 C 4.484375 -36.703125 4.882812 -37.109375 5.6875 -37.109375 L 7.109375 -37.109375 C 7.910156 -37.109375 8.3125 -37.515625 8.3125 -38.328125 L 8.3125 -39.734375 C 8.3125 -40.546875 8.71875 -40.953125 9.53125 -40.953125 L 10.9375 -40.953125 C 11.75 -40.953125 12.15625 -41.359375 12.15625 -42.171875 L 12.15625 -43.578125 C 12.15625 -44.390625 12.5625 -44.796875 13.375 -44.796875 L 37.8125 -44.796875 C 38.625 -44.796875 39.03125 -44.390625 39.03125 -43.578125 L 39.03125 -42.171875 C 39.03125 -41.359375 39.4375 -40.953125 40.25 -40.953125 L 41.65625 -40.953125 C 42.46875 -40.953125 42.875 -40.546875 42.875 -39.734375 L 42.875 -38.328125 C 42.875 -37.515625 43.273438 -37.109375 44.078125 -37.109375 L 45.5 -37.109375 C 46.300781 -37.109375 46.703125 -36.703125 46.703125 -35.890625 L 46.703125 -25.53125 C 46.703125 -24.71875 46.300781 -24.3125 45.5 -24.3125 L 44.078125 -24.3125 C 43.273438 -24.3125 42.875 -23.90625 42.875 -23.09375 L 42.875 -21.6875 C 42.875 -20.875 42.46875 -20.46875 41.65625 -20.46875 L 22.96875 -20.46875 C 22.15625 -20.46875 21.75 -20.066406 21.75 -19.265625 L 21.75 -5.0625 C 21.75 -4.25 22.15625 -3.84375 22.96875 -3.84375 L 24.375 -3.84375 C 25.1875 -3.84375 25.59375 -4.25 25.59375 -5.0625 L 25.59375 -6.46875 C 25.59375 -7.269531 26 -7.671875 26.8125 -7.671875 L 28.21875 -7.671875 C 29.03125 -7.671875 29.4375 -8.078125 29.4375 -8.890625 L 29.4375 -13.3125 C 29.4375 -14.125 29.84375 -14.53125 30.65625 -14.53125 L 45.5 -14.53125 C 46.300781 -14.53125 46.703125 -14.125 46.703125 -13.3125 L 46.703125 -8.890625 C 46.703125 -8.078125 46.300781 -7.671875 45.5 -7.671875 L 44.078125 -7.671875 C 43.273438 -7.671875 42.875 -7.269531 42.875 -6.46875 L 42.875 -5.0625 C 42.875 -4.25 42.46875 -3.84375 41.65625 -3.84375 L 40.25 -3.84375 C 39.4375 -3.84375 39.03125 -3.4375 39.03125 -2.625 L 39.03125 -1.21875 C 39.03125 -0.40625 38.625 0 37.8125 0 L 13.375 0 C 12.5625 0 12.15625 -0.40625 12.15625 -1.21875 Z M 22.96875 -24.3125 L 28.21875 -24.3125 C 29.03125 -24.3125 29.4375 -24.71875 29.4375 -25.53125 L 29.4375 -39.734375 C 29.4375 -40.546875 29.03125 -40.953125 28.21875 -40.953125 L 26.8125 -40.953125 C 26 -40.953125 25.59375 -40.546875 25.59375 -39.734375 L 25.59375 -38.328125 C 25.59375 -37.515625 25.1875 -37.109375 24.375 -37.109375 L 22.96875 -37.109375 C 22.15625 -37.109375 21.75 -36.703125 21.75 -35.890625 L 21.75 -25.53125 C 21.75 -24.71875 22.15625 -24.3125 22.96875 -24.3125 Z M 22.96875 -24.3125 "/></g></g></g><g fill="#c1ff72" fill-opacity="1"><g transform="translate(315.337851, 178.706436)"><g><path d="M 10.875 -1.21875 L 10.875 -2.625 C 10.875 -3.4375 10.46875 -3.84375 9.65625 -3.84375 L 8.25 -3.84375 C 7.4375 -3.84375 7.03125 -4.25 7.03125 -5.0625 L 7.03125 -39.796875 C 7.03125 -40.609375 6.628906 -41.015625 5.828125 -41.015625 L 3.78125 -41.015625 C 2.96875 -41.015625 2.5625 -41.421875 2.5625 -42.234375 L 2.5625 -43.578125 C 2.5625 -44.390625 2.96875 -44.796875 3.78125 -44.796875 L 5.828125 -44.796875 C 6.628906 -44.796875 7.03125 -45.195312 7.03125 -46 L 7.03125 -54.90625 C 7.03125 -55.707031 7.4375 -56.109375 8.25 -56.109375 L 23.09375 -56.109375 C 23.90625 -56.109375 24.3125 -55.707031 24.3125 -54.90625 L 24.3125 -46 C 24.3125 -45.195312 24.71875 -44.796875 25.53125 -44.796875 L 32 -44.796875 C 32.800781 -44.796875 33.203125 -44.390625 33.203125 -43.578125 L 33.203125 -42.234375 C 33.203125 -41.421875 32.800781 -41.015625 32 -41.015625 L 25.53125 -41.015625 C 24.71875 -41.015625 24.3125 -40.609375 24.3125 -39.796875 L 24.3125 -5.0625 C 24.3125 -4.25 24.71875 -3.84375 25.53125 -3.84375 L 26.9375 -3.84375 C 27.75 -3.84375 28.15625 -4.25 28.15625 -5.0625 L 28.15625 -11.578125 C 28.15625 -12.390625 28.5625 -12.796875 29.375 -12.796875 L 39.734375 -12.796875 C 40.546875 -12.796875 40.953125 -12.390625 40.953125 -11.578125 L 40.953125 -5.0625 C 40.953125 -4.25 40.546875 -3.84375 39.734375 -3.84375 L 36.40625 -3.84375 C 35.59375 -3.84375 35.1875 -3.4375 35.1875 -2.625 L 35.1875 -1.21875 C 35.1875 -0.40625 34.78125 0 33.96875 0 L 12.09375 0 C 11.28125 0 10.875 -0.40625 10.875 -1.21875 Z M 10.875 -1.21875 "/></g></g></g></svg>